<svg width="997" height="437" viewBox="0 0 997 437" fill="none" xmlns="http://www.w3.org/2000/svg">
<g clip-path="url(#clip0_146_64)">
<path d="M535.024 139.441V176.628C535.024 185.795 539.694 187.871 555.088 188.736V196H488.497V188.736C500.086 187.525 501.123 186.141 501.123 177.147V93.4324C501.123 84.4382 500.086 83.0545 488.497 81.8438V74.5793H586.222L587.087 109.172H581.033C571.52 89.6272 567.023 82.7086 551.283 82.7086H535.024V129.928H550.072C558.202 129.928 560.104 125.604 561.661 113.842H569.098V155.526H561.661C560.104 143.765 558.202 139.441 550.072 139.441H535.024ZM663.096 174.38L656.869 158.467H612.764L606.883 174.207C606.018 176.801 605.499 178.877 605.499 180.606C605.499 186.314 610.342 188.217 619.682 188.736V196H582.495V188.736C587.165 188.044 590.624 187.006 592.527 182.336L628.503 88.5894L622.623 74.2334H658.772L701.84 182.336C703.57 186.833 707.029 188.044 712.045 188.736V196H650.989V188.736C659.637 188.39 664.48 186.66 664.48 180.779C664.48 179.05 663.961 176.974 663.096 174.38ZM634.211 101.216L616.223 149.127H653.064L634.211 101.216ZM763.898 93.4324V177.147C763.898 186.141 764.935 187.525 776.351 188.736V196H717.37V188.736C728.959 187.525 729.997 186.141 729.997 177.147V93.4324C729.997 84.4382 728.959 83.0545 717.37 81.8438V74.5793H776.351V81.8438C764.935 83.0545 763.898 84.4382 763.898 93.4324ZM836.984 83.0545H831.968V136.673H837.157C852.897 136.673 861.891 126.641 861.891 109.172C861.891 93.0864 853.07 83.0545 836.984 83.0545ZM831.968 145.322V177.147C831.968 186.141 833.006 187.525 844.422 188.736V196H785.441V188.736C797.03 187.525 798.067 186.141 798.067 177.147V93.4324C798.067 84.4382 797.03 83.0545 785.441 81.8438V74.5793H848.919C877.112 74.5793 895.619 87.7246 895.619 108.999C895.619 126.641 882.474 136.154 869.675 140.306L893.717 174.725C900.808 185.103 904.094 188.39 912.224 188.736V196H872.615C867.772 192.195 863.275 186.314 858.086 177.666L838.368 145.322H831.968Z" fill="#C8821A"/>
<path d="M553.877 240.039C569.444 240.039 582.589 243.671 592.448 250.244L592.967 280.513H584.492C580.168 259.93 571.001 248.687 554.915 248.687C533.295 248.687 524.301 271.692 524.301 300.922C524.301 332.575 535.37 355.752 556.645 355.752C571.001 355.752 582.071 345.547 588.989 319.257H597.637L594.697 353.676C584.665 360.768 569.271 364.919 552.321 364.919C512.885 364.919 488.497 342.261 488.497 305.765C488.497 265.119 517.901 240.039 553.877 240.039ZM683.534 341.569L677.307 325.656H633.202L627.321 341.396C626.456 343.99 625.937 346.066 625.937 347.796C625.937 353.503 630.78 355.406 640.12 355.925V363.189H602.933V355.925C607.603 355.233 611.062 354.195 612.965 349.525L648.941 255.779L643.061 241.423H679.21L722.278 349.525C724.008 354.022 727.467 355.233 732.483 355.925V363.189H671.427V355.925C680.075 355.579 684.918 353.849 684.918 347.969C684.918 346.239 684.399 344.163 683.534 341.569ZM654.649 268.405L636.661 316.316H673.502L654.649 268.405ZM780.876 364.919C763.58 364.919 748.359 359.73 740.23 353.331L738.327 323.235H747.494C751.818 342.607 763.407 356.617 780.876 356.617C793.157 356.617 801.113 350.736 801.113 340.012C801.113 328.77 793.849 323.927 774.65 318.046C751.646 311.3 739.019 300.058 739.019 279.129C739.019 255.087 757.353 240.039 782.952 240.039C798.692 240.039 811.837 244.19 820.312 250.417V276.707H812.529C808.551 259.238 799.038 248.168 782.952 248.168C772.228 248.168 765.137 254.395 765.137 264.254C765.137 275.497 772.055 280.167 789.871 285.529C812.875 292.62 828.096 301.787 828.096 326.002C828.096 352.639 806.821 364.919 780.876 364.919ZM837.972 363.189V355.925C849.561 354.714 850.598 353.331 850.598 344.336V260.622C850.598 251.628 849.561 250.244 837.972 249.033V241.769H937.426L938.291 275.151H931.719C922.551 255.779 918.054 249.898 902.315 249.898H884.499V295.734H901.277C909.233 295.734 911.309 291.582 912.865 279.821H920.303V321.332H912.865C911.309 309.571 909.233 305.247 901.277 305.247H884.499V343.472C884.499 352.812 888.996 355.06 898.509 355.06H904.563C919.957 355.06 923.762 348.315 936.216 325.483H943.999L938.464 363.189H837.972Z" fill="#C8821A"/>
<path d="M232 411C338.039 411 424 325.039 424 219C424 112.961 338.039 27 232 27C125.961 27 40 112.961 40 219C40 325.039 125.961 411 232 411Z" stroke="#C8821A" stroke-width="13.2" stroke-miterlimit="10"/>
<path d="M232 371.151C316.531 371.151 385.057 302.422 385.057 217.642C385.057 132.861 316.531 64.1321 232 64.1321C147.469 64.1321 78.9434 132.861 78.9434 217.642C78.9434 302.422 147.469 371.151 232 371.151Z" stroke="#C8821A" stroke-width="8.5" stroke-miterlimit="10"/>
<mask id="mask0_146_64" style="mask-type:alpha" maskUnits="userSpaceOnUse" x="154" y="93" width="157" height="504">
<path d="M255.114 581.82C253.577 585.721 251.098 588.603 247.404 590.525C238.303 595.273 227.292 595.38 218.171 590.677C214.345 588.705 211.688 585.765 210.145 581.883C205.831 581.099 202.821 578.008 202.549 574.019C202.277 570.03 204.775 566.376 209.278 565.194L197.236 337.851C193.15 336.883 190.083 333.988 189.716 330.125C189.292 325.65 192.056 321.989 196.426 320.864C196.863 319.517 197.533 317.532 198.02 316.426C198.349 315.68 201.056 316.439 201.062 317.254L201.088 320.763L264.254 320.788C264.254 319.126 264.153 317.912 263.912 316.249L200.974 316.357C193.966 313.398 187.603 309.061 182.05 303.536C165.814 287.378 172.885 271.086 162.475 267.717C158.231 266.345 155.739 262.754 156.27 258.614C156.801 254.473 160.375 251.268 164.866 251.242L181.184 251.148C161.766 232.441 163.031 204.449 180.197 184.56C183.669 180.533 187.091 176.892 190.158 172.625C194.523 166.569 194.858 158.515 191.126 152.351C190.804 151.82 190.917 150.138 191.297 149.727C191.752 149.234 193.055 149.095 193.871 149.348C204.402 152.591 210.575 161.663 209.955 173.188C217.134 167.397 218.955 158.097 214.743 149.917C212.953 146.446 211.245 142.995 209.791 139.379C202.372 120.894 214.123 103.971 230.214 95.8913C230.833 95.5816 232.44 96.0367 232.731 96.5235C234.704 99.8487 221.068 109.268 230.416 124.662C237.335 134.644 243.768 134.909 247.227 147.951C250.213 139.233 247.746 130.098 241.877 122.86C241.326 122.184 241.118 120.312 241.624 119.655C242.13 118.997 243.844 119.067 244.697 119.453C251.174 122.392 256.759 125.926 261.186 131.401C268.902 140.94 271.249 153.065 267.593 164.83C266.012 169.919 263.678 174.49 261.294 179.269C256.31 189.257 260.465 199.322 264.684 198.759C268.555 198.241 264.715 190.876 266.164 182.537C268.536 168.908 282.729 162.738 284.36 165.191C284.702 165.703 284.759 167.264 284.462 167.833C281.046 174.376 281.002 181.855 284.803 188.259L292.734 201.623C302.449 217.984 298.933 238.289 284.759 251.11L301.444 251.325C305.941 251.381 308.888 255.762 308.995 259.574C309.128 264.328 305.719 266.661 301.456 268.355C298.104 269.689 296.643 274.228 295.985 277.617C292.368 296.152 283.987 305.919 267.872 314.795L268.687 320.769C272.495 321.863 275.645 325.03 275.613 329.038C275.581 333.387 272.697 336.896 268.093 337.693L260.642 477.309L256.063 565.061C260.294 566.243 262.717 569.682 262.679 573.539C262.641 577.648 259.845 581.024 255.121 581.807L255.114 581.82ZM280.053 221.555C280.072 220.114 281.084 219.185 282.026 219.223C282.741 219.254 284 220.43 284.025 221.252C284.405 233.017 279.351 243.283 270.825 251.027L277.549 251.192C294.088 240.818 298.952 219.349 288.554 202.767C282.381 192.267 275.404 184.352 278.598 171.082C272.21 174.673 269.231 181.975 269.997 189.106L270.654 195.251C270.977 198.241 269.364 201.281 267.056 202.28C264.266 203.481 261.11 202.818 258.954 200.554C255.481 196.9 254.621 191.622 254.861 186.539C249.536 193.335 254.279 200.871 251.876 201.161C248.1 201.61 247.809 190.44 251.402 185.237L258.036 175.621C269.51 158.995 267.176 137.508 249.277 126.489C257.644 143.867 249.719 158.603 235.716 169.559L217.64 181.564C211.29 185.78 205.161 189.972 200.171 195.718C185.883 212.168 192.701 225.823 187.154 224.286C186.477 224.097 185.655 222.845 185.681 221.871C186.003 208.691 191.847 197.147 201.512 188.448C206.603 183.865 211.973 180.141 217.785 176.437C224.281 172.29 239.41 163.319 242.205 156.561C245.001 149.803 242.307 143.033 237.411 138.399C226.969 128.518 219.335 120.376 225.034 104.135C220.423 107.479 216.875 111.715 214.332 116.791C208.621 128.196 212.947 137.185 218.083 147.433C220.916 153.091 222.111 159.229 220.125 165.431C217.69 173.023 208.444 181.741 205.838 179.484C203.833 177.752 210.322 163.111 197.078 155.316C200.569 168.908 192.65 177.107 184.036 186.501C168.711 203.203 175.415 229.413 191.607 241.564C192.214 242.019 192.195 243.587 191.714 243.65C191.348 243.701 190.234 243.682 189.551 243.207C180.412 236.791 172.936 224.274 171.747 211.219C170.052 220.771 171.867 230.545 176.731 238.921C179.685 244.111 183.511 248.176 188.653 251.236L210.607 251.223C197.995 236.437 201.227 219.355 213.118 205.839C219.417 198.683 226.691 192.987 235.084 188.36C235.634 188.056 237.329 188.246 237.601 188.802C239.245 192.203 230.302 200.188 233.705 214.981C235.008 220.639 239.144 226.518 244.508 224.83C245.741 224.438 247.544 222.794 248.056 221.22C249.542 216.65 247.525 215.436 249.289 213.451C251.908 210.511 272.596 231.537 256.481 251.027C258.498 251.223 261.148 251.369 263.065 251.148C273.804 245.256 279.863 234.079 280.053 221.549V221.555ZM252.717 220.481C251.61 224.59 249.46 227.302 246.38 228.478C238.151 231.62 231.611 224.046 229.632 216.062C227.905 209.108 228.961 202.527 231.086 195.699C221.22 202.116 210.347 212.97 207.615 223.951C204.952 234.344 208.469 244.718 217.064 251.261L250.225 251.211C260.054 243.505 261.091 229.951 252.717 220.474V220.481ZM160.438 255.307V263.936L304.796 263.968V255.339L160.438 255.307ZM247.727 282.055C251.471 276.612 255.842 273.267 261.471 272.736C267.448 272.136 272.666 274.993 275.057 280.43C279.769 274.525 286.03 271.82 292.93 272.812L295.226 268.001H170.159L172.367 272.875C179.558 271.801 185.832 274.879 190.177 280.367C192.568 275 197.578 272.357 203.112 272.717C209.297 273.116 214.205 276.839 217.57 282.32C220.688 276.156 226.412 272.654 232.832 272.661C239.226 272.667 244.508 276.567 247.733 282.061L247.727 282.055ZM206.957 311.691C198.343 305.06 192.973 297.214 189.678 287.643C187.856 282.364 180.482 275.436 173.6 276.978C176.402 293.933 185.921 304.706 201.372 312.039C203.004 312.153 205.566 311.957 206.964 311.691H206.957ZM222.554 311.742C219.303 304.939 217.159 298.713 216.21 291.809C216.217 284.514 209.266 276.302 201.284 276.814C196.49 277.124 192.575 281.53 193.998 286.632C196.667 296.215 203.282 304.339 211.555 309.7C214.99 311.925 218.842 312.646 222.554 311.748V311.742ZM237.493 312.039C241.611 305.685 243.357 299.383 244.83 292.391C246.443 284.735 241.345 277.648 233.857 276.852C226.368 276.055 219.556 282.643 220.378 290.627C221.175 298.333 223.731 305.123 227.627 311.957L237.493 312.039ZM250.383 311.445C260.617 306.577 267.669 297.6 271.255 287.15C272.204 284.394 271.059 281.031 269.503 279.381C267.536 277.288 264.443 276.409 261.408 276.928C254.969 278.021 250.08 283.945 249.283 290.444C248.34 298.093 246.064 304.857 242.642 311.868C244.887 311.982 248.012 312.576 250.39 311.445H250.383ZM282.159 298.561C287.491 292.391 290.375 284.855 291.729 276.909C282.273 275.701 276.941 283.395 274.196 291.051C271.154 299.547 265.304 306.096 258.41 311.634C265.405 314.656 278.282 303.043 282.159 298.561ZM267.22 333.381C270.054 333.381 271.666 330.865 271.35 328.526C271.066 326.427 269.257 324.916 266.638 324.916L198.533 324.935C195.882 324.935 193.998 326.876 193.966 329.076C193.941 330.96 195.446 333.381 197.932 333.381H267.22ZM240.365 345.588C244.52 340.815 250.51 341.182 254.191 345.443C256.727 342.668 259.782 341.524 263.596 342.529C263.729 340.727 263.76 338.988 263.507 337.509L201.556 337.541L201.638 342.554C205.528 341.41 208.399 342.845 210.923 345.152C212.877 343.723 215.515 342.048 217.83 342.08C220.726 342.118 222.984 343.565 225.046 345.727C229.189 340.765 236.001 341.075 240.365 345.588ZM217.526 564.208L208.937 350.848C208.861 348.92 207.375 347.314 206.23 346.783C204.807 346.126 203.194 346.17 201.891 347.34L213.491 564.802C215.04 565.124 216.647 565.377 217.52 564.208H217.526ZM235.001 564.29L237.544 395.322L238.411 352.441C238.48 349.027 236.032 346.454 232.788 346.379C230.119 346.315 226.836 348.421 226.893 352.03L230.315 564.783C232.086 565.162 233.876 565.358 234.995 564.29H235.001ZM251.971 564.505L260.883 395.296L263.343 347.352C261.882 346.126 259.915 346.189 258.606 347.061C257.448 347.833 256.291 349.438 256.215 351.417L247.853 564.739C249.289 564.979 250.542 564.979 251.971 564.505ZM226.128 564.815L225.343 515.353L222.693 350.823C222.643 347.782 219.512 346.29 217.324 346.562C214.686 346.891 213.092 348.983 213.212 352.03L218.437 484.737L221.795 564.941C223.174 564.973 224.616 564.941 226.121 564.815H226.128ZM239.195 564.72C241.13 565.093 242.477 565.099 243.654 564.492L252.11 352.58C252.256 348.977 250.744 346.65 247.297 346.556C244.533 346.48 242.496 348.775 242.446 351.86L241.87 386.086L239.195 564.72ZM254.147 577.724C257.094 577.724 258.669 575.05 258.448 573.02C258.207 570.839 256.468 569.158 253.963 569.158H211.195C208.564 569.158 206.786 571.219 206.78 573.494C206.78 575.6 208.627 577.705 211.233 577.705L254.153 577.717L254.147 577.724ZM245.792 586.745C247.974 585.582 249.53 583.774 250.301 581.883L214.737 581.896C215.799 583.875 217.109 585.316 218.924 586.359C227.108 591.044 237.202 591.315 245.792 586.745Z" fill="#C8821A" stroke="#C8821A" stroke-width="4"/>
</mask>
<g mask="url(#mask0_146_64)">
<rect x="155.438" y="94.0857" width="156.388" height="243.481" fill="#C8821A" stroke="#C8821A" stroke-width="4"/>
</g>
</g>
<defs>
<clipPath id="clip0_146_64">
<rect width="997" height="437" fill="white"/>
</clipPath>
</defs>
</svg>
