<svg width="437" height="437" viewBox="0 0 437 437" fill="none" xmlns="http://www.w3.org/2000/svg">
<g clip-path="url(#clip0_146_102)">
<path d="M217.999 427.892C333.426 427.892 426.999 334.319 426.999 218.892C426.999 103.465 333.426 9.89294 217.999 9.89294C102.572 9.89294 9 103.465 9 218.892C9 334.319 102.572 427.892 217.999 427.892Z" stroke="#C8821A" stroke-width="13.2" stroke-miterlimit="10"/>
<path d="M217.999 384.514C310.014 384.514 384.606 309.701 384.606 217.413C384.606 125.126 310.014 50.3126 217.999 50.3126C125.984 50.3126 51.3906 125.126 51.3906 217.413C51.3906 309.701 125.984 384.514 217.999 384.514Z" stroke="#C8821A" stroke-width="8.5" stroke-miterlimit="10"/>
<mask id="mask0_146_102" style="mask-type:alpha" maskUnits="userSpaceOnUse" x="133" y="82" width="171" height="548">
<path d="M243.159 613.836C241.486 618.082 238.787 621.219 234.767 623.311C224.859 628.479 212.873 628.596 202.945 623.477C198.78 621.33 195.888 618.13 194.208 613.904C189.513 613.051 186.236 609.686 185.94 605.344C185.644 601.002 188.363 597.024 193.265 595.737L180.156 348.266C175.709 347.213 172.37 344.061 171.97 339.856C171.509 334.984 174.518 331 179.275 329.775C179.75 328.309 180.48 326.148 181.01 324.944C181.368 324.132 184.315 324.958 184.322 325.846L184.349 329.665L253.108 329.692C253.108 327.883 252.998 326.561 252.736 324.752L184.225 324.868C176.597 321.648 169.671 316.927 163.626 310.913C145.953 293.324 153.65 275.59 142.318 271.922C137.698 270.429 134.985 266.52 135.564 262.013C136.142 257.506 140.032 254.017 144.92 253.989L162.683 253.886C141.546 233.524 142.923 203.052 161.609 181.403C165.388 177.02 169.113 173.056 172.452 168.411C177.203 161.819 177.568 153.052 173.506 146.342C173.155 145.764 173.278 143.934 173.692 143.486C174.187 142.95 175.606 142.798 176.494 143.073C187.957 146.604 194.676 156.479 194.002 169.024C201.816 162.72 203.799 152.597 199.214 143.693C197.265 139.915 195.406 136.158 193.823 132.221C185.747 112.1 198.539 93.6782 216.054 84.8837C216.728 84.5465 218.477 85.042 218.794 85.5718C220.942 89.1915 206.098 99.4449 216.274 116.201C223.806 127.067 230.808 127.356 234.574 141.553C237.823 132.063 235.138 122.119 228.749 114.24C228.15 113.504 227.923 111.467 228.474 110.751C229.025 110.036 230.891 110.111 231.82 110.531C238.87 113.731 244.949 117.578 249.769 123.537C258.168 133.921 260.722 147.12 256.743 159.926C255.022 165.466 252.481 170.441 249.886 175.644C244.46 186.516 248.984 197.472 253.576 196.859C257.789 196.295 253.61 188.278 255.187 179.201C257.769 164.365 273.218 157.648 274.995 160.318C275.366 160.876 275.428 162.576 275.105 163.195C271.387 170.317 271.339 178.458 275.476 185.429L284.11 199.976C294.685 217.786 290.857 239.889 275.428 253.845L293.59 254.079C298.486 254.141 301.694 258.909 301.811 263.059C301.955 268.234 298.245 270.773 293.604 272.617C289.955 274.069 288.365 279.01 287.649 282.699C283.711 302.875 274.588 313.507 257.046 323.169L257.934 329.672C262.079 330.862 265.507 334.31 265.473 338.673C265.438 343.407 262.299 347.226 257.287 348.093L249.177 500.071L244.192 595.593C248.798 596.88 251.435 600.623 251.393 604.821C251.352 609.294 248.309 612.969 243.166 613.822L243.159 613.836ZM270.306 221.674C270.327 220.105 271.428 219.093 272.454 219.135C273.232 219.169 274.602 220.449 274.63 221.343C275.043 234.15 269.542 245.325 260.261 253.755L267.58 253.934C285.583 242.642 290.878 219.272 279.559 201.222C272.84 189.792 265.246 181.176 268.722 166.732C261.769 170.641 258.526 178.589 259.359 186.351L260.075 193.04C260.426 196.295 258.671 199.605 256.158 200.692C253.122 202 249.686 201.277 247.338 198.813C243.559 194.836 242.622 189.09 242.884 183.557C237.087 190.955 242.25 199.158 239.634 199.474C235.524 199.963 235.207 187.803 239.118 182.14L246.34 171.673C258.829 153.575 256.289 130.184 236.805 118.19C245.913 137.107 237.286 153.148 222.044 165.074L202.367 178.142C195.454 182.731 188.783 187.294 183.351 193.549C167.798 211.455 175.22 226.319 169.182 224.647C168.445 224.44 167.55 223.078 167.578 222.018C167.929 207.67 174.291 195.104 184.811 185.635C190.353 180.646 196.198 176.593 202.525 172.561C209.596 168.046 226.064 158.282 229.107 150.925C232.15 143.569 229.217 136.199 223.889 131.155C212.522 120.399 204.212 111.536 210.415 93.8571C205.396 97.4974 201.534 102.108 198.766 107.634C192.549 120.048 197.258 129.834 202.849 140.988C205.933 147.147 207.234 153.829 205.072 160.58C202.422 168.845 192.356 178.334 189.52 175.878C187.337 173.992 194.401 158.054 179.984 149.57C183.785 164.365 175.165 173.29 165.788 183.516C149.106 201.697 156.404 230.227 174.029 243.454C174.69 243.949 174.669 245.656 174.146 245.725C173.747 245.78 172.535 245.759 171.791 245.243C161.843 238.258 153.705 224.633 152.411 210.423C150.566 220.82 152.541 231.459 157.836 240.577C161.051 246.227 165.216 250.652 170.814 253.982L194.711 253.969C180.983 237.873 184.501 219.279 197.444 204.566C204.301 196.777 212.219 190.576 221.355 185.539C221.954 185.209 223.799 185.415 224.095 186.021C225.885 189.723 216.15 198.414 219.854 214.517C221.272 220.676 225.775 227.076 231.613 225.238C232.956 224.812 234.918 223.023 235.476 221.309C237.094 216.334 234.897 215.012 236.818 212.852C239.669 209.652 262.189 232.54 244.646 253.755C246.843 253.969 249.727 254.127 251.813 253.886C263.504 247.472 270.099 235.306 270.306 221.667V221.674ZM240.55 220.504C239.345 224.977 237.004 227.929 233.651 229.209C224.694 232.629 217.575 224.385 215.42 215.694C213.541 208.124 214.691 200.961 217.004 193.529C206.264 200.513 194.429 212.329 191.454 224.282C188.556 235.595 192.384 246.888 201.74 254.01L237.837 253.955C248.536 245.566 249.665 230.812 240.55 220.497V220.504ZM140.101 258.414V267.807L297.239 267.842V258.448L140.101 258.414ZM235.118 287.53C239.194 281.605 243.951 277.964 250.078 277.386C256.585 276.733 262.265 279.843 264.867 285.761C269.996 279.334 276.812 276.388 284.323 277.469L286.823 272.232H150.683L153.085 277.538C160.913 276.368 167.743 279.719 172.473 285.692C175.075 279.85 180.528 276.973 186.552 277.366C193.286 277.799 198.628 281.852 202.291 287.819C205.685 281.109 211.916 277.297 218.904 277.304C225.865 277.311 231.613 281.556 235.125 287.536L235.118 287.53ZM190.738 319.79C181.361 312.571 175.516 304.031 171.929 293.613C169.946 287.867 161.919 280.325 154.428 282.004C157.478 300.46 167.839 312.186 184.659 320.168C186.435 320.292 189.224 320.079 190.745 319.79H190.738ZM207.716 319.845C204.177 312.441 201.844 305.662 200.811 298.148C200.818 290.206 193.251 281.267 184.563 281.825C179.344 282.162 175.082 286.958 176.631 292.512C179.537 302.944 186.738 311.787 195.744 317.622C199.482 320.045 203.675 320.829 207.716 319.852V319.845ZM223.978 320.168C228.46 313.253 230.36 306.392 231.965 298.781C233.72 290.447 228.171 282.733 220.019 281.866C211.868 280.999 204.453 288.17 205.348 296.861C206.215 305.249 208.997 312.64 213.238 320.079L223.978 320.168ZM238.009 319.522C249.149 314.223 256.826 304.451 260.729 293.076C261.762 290.076 260.516 286.415 258.822 284.619C256.681 282.341 253.314 281.384 250.01 281.949C243.001 283.139 237.679 289.587 236.811 296.661C235.786 304.988 233.307 312.351 229.582 319.983C232.026 320.106 235.428 320.753 238.016 319.522H238.009ZM272.599 305.497C278.403 298.781 281.542 290.578 283.015 281.928C272.723 280.614 266.919 288.988 263.931 297.322C260.619 306.571 254.251 313.7 246.746 319.728C254.361 323.017 268.378 310.376 272.599 305.497ZM256.337 343.4C259.421 343.4 261.177 340.661 260.833 338.115C260.523 335.831 258.554 334.186 255.703 334.186L181.568 334.207C178.683 334.207 176.631 336.319 176.597 338.714C176.569 340.765 178.208 343.4 180.914 343.4H256.337ZM227.104 356.688C231.627 351.493 238.147 351.892 242.154 356.53C244.915 353.509 248.24 352.264 252.392 353.358C252.536 351.397 252.571 349.504 252.295 347.894L184.859 347.928L184.948 353.385C189.182 352.14 192.308 353.702 195.055 356.214C197.183 354.658 200.053 352.835 202.573 352.869C205.727 352.911 208.184 354.486 210.429 356.84C214.938 351.438 222.353 351.775 227.104 356.688ZM202.243 594.664L192.893 362.414C192.811 360.315 191.193 358.567 189.947 357.989C188.397 357.273 186.642 357.322 185.224 358.595L197.85 595.311C199.537 595.662 201.286 595.937 202.236 594.664H202.243ZM221.266 594.753L224.033 410.825L224.976 364.148C225.052 360.432 222.388 357.631 218.856 357.549C215.95 357.48 212.377 359.771 212.439 363.701L216.164 595.29C218.092 595.703 220.04 595.916 221.259 594.753H221.266ZM239.737 594.987L249.438 410.798L252.116 358.608C250.526 357.273 248.385 357.342 246.96 358.292C245.7 359.131 244.44 360.879 244.357 363.033L235.255 595.242C236.818 595.503 238.182 595.503 239.737 594.987ZM211.606 595.324L210.752 541.484L207.868 362.386C207.813 359.076 204.405 357.452 202.023 357.748C199.152 358.106 197.417 360.384 197.547 363.701L203.234 508.157L206.89 595.462C208.391 595.496 209.961 595.462 211.599 595.324H211.606ZM225.83 595.221C227.937 595.627 229.403 595.634 230.684 594.973L239.889 364.299C240.047 360.377 238.402 357.845 234.65 357.741C231.641 357.659 229.424 360.157 229.369 363.515L228.742 400.771L225.83 595.221ZM242.106 609.376C245.314 609.376 247.028 606.466 246.787 604.257C246.526 601.883 244.633 600.052 241.906 600.052H195.351C192.487 600.052 190.552 602.295 190.546 604.773C190.546 607.064 192.556 609.356 195.392 609.356L242.113 609.37L242.106 609.376ZM233.011 619.196C235.386 617.93 237.08 615.962 237.92 613.904L199.207 613.918C200.363 616.072 201.788 617.641 203.764 618.777C212.673 623.876 223.661 624.172 233.011 619.196Z" fill="#C8821A" stroke="#C8821A" stroke-width="4"/>
</mask>
<g mask="url(#mask0_146_102)">
<rect x="134.482" y="82.7412" width="170.589" height="265.392" fill="#C8821A" stroke="#C8821A" stroke-width="4"/>
</g>
</g>
<defs>
<clipPath id="clip0_146_102">
<rect width="437" height="437" fill="white"/>
</clipPath>
</defs>
</svg>
