<svg width="437" height="437" viewBox="0 0 437 437" fill="none" xmlns="http://www.w3.org/2000/svg">
<path d="M219 431C336.084 431 431 336.084 431 219C431 101.916 336.084 7 219 7C101.916 7 7 101.916 7 219C7 336.084 101.916 431 219 431Z" fill="#0D1F3C" stroke="#C8821A" stroke-width="10.4898" stroke-miterlimit="10"/>
<path d="M219 387C312.336 387 388 311.112 388 217.5C388 123.888 312.336 48 219 48C125.664 48 50 123.888 50 217.5C50 311.112 125.664 387 219 387Z" stroke="#C8821A" stroke-width="7.62892" stroke-miterlimit="10"/>
<path d="M232.967 355.827C232.082 358.097 230.654 359.775 228.527 360.893C223.285 363.656 216.943 363.718 211.691 360.981C209.487 359.834 207.957 358.123 207.068 355.864C204.584 355.408 202.85 353.609 202.693 351.288C202.537 348.967 203.976 346.84 206.569 346.152L199.634 213.858C197.281 213.295 195.514 211.611 195.303 209.363C195.059 206.758 196.65 204.628 199.167 203.974C199.419 203.19 199.805 202.035 200.085 201.391C200.275 200.957 201.834 201.398 201.837 201.873L201.852 203.915L238.23 203.929C238.23 202.962 238.172 202.256 238.034 201.288L201.786 201.351C197.751 199.629 194.086 197.105 190.888 193.89C181.537 184.487 185.61 175.007 179.614 173.047C177.17 172.248 175.735 170.159 176.041 167.749C176.347 165.34 178.405 163.475 180.991 163.46L190.389 163.405C179.206 152.519 179.935 136.23 189.821 124.657C191.82 122.313 193.791 120.194 195.558 117.711C198.071 114.187 198.264 109.5 196.115 105.914C195.929 105.605 195.995 104.626 196.213 104.387C196.476 104.1 197.226 104.019 197.696 104.166C203.761 106.053 207.316 111.332 206.959 118.039C211.093 114.669 212.142 109.258 209.716 104.497C208.685 102.478 207.702 100.469 206.864 98.3649C202.591 87.6083 209.359 77.7603 218.626 73.0589C218.983 72.8787 219.908 73.1435 220.076 73.4268C221.212 75.3618 213.359 80.8431 218.743 89.8008C222.728 95.6095 226.432 95.764 228.425 103.353C230.144 98.2802 228.723 92.9645 225.343 88.7524C225.026 88.3587 224.906 87.2698 225.197 86.8872C225.489 86.5047 226.476 86.5451 226.968 86.7695C230.698 88.4801 233.914 90.5365 236.464 93.7223C240.908 99.2735 242.259 106.329 240.154 113.175C239.243 116.137 237.899 118.796 236.526 121.578C233.655 127.39 236.048 133.246 238.478 132.919C240.707 132.617 238.496 128.332 239.33 123.479C240.696 115.548 248.87 111.958 249.81 113.385C250.007 113.683 250.04 114.592 249.868 114.923C247.901 118.73 247.876 123.082 250.065 126.809L254.633 134.586C260.228 144.106 258.203 155.922 250.04 163.383L259.649 163.508C262.238 163.541 263.936 166.09 263.998 168.308C264.074 171.075 262.111 172.432 259.656 173.418C257.725 174.194 256.884 176.836 256.505 178.807C254.422 189.593 249.595 195.277 240.314 200.442L240.784 203.918C242.977 204.555 244.791 206.398 244.772 208.73C244.754 211.261 243.093 213.303 240.441 213.766L236.15 295.011L233.513 346.075C235.95 346.763 237.345 348.764 237.323 351.008C237.301 353.4 235.691 355.364 232.97 355.82L232.967 355.827ZM247.329 146.185C247.34 145.346 247.923 144.805 248.466 144.827C248.878 144.845 249.602 145.53 249.617 146.008C249.836 152.854 246.925 158.828 242.015 163.335L245.887 163.43C255.412 157.394 258.213 144.901 252.225 135.251C248.67 129.141 244.652 124.535 246.492 116.814C242.813 118.903 241.097 123.152 241.538 127.302L241.917 130.877C242.102 132.617 241.174 134.387 239.844 134.968C238.238 135.667 236.42 135.281 235.178 133.964C233.178 131.838 232.683 128.766 232.821 125.808C229.754 129.763 232.486 134.148 231.102 134.317C228.927 134.578 228.76 128.078 230.829 125.05L234.65 119.455C241.257 109.78 239.913 97.276 229.605 90.8639C234.424 100.977 229.86 109.552 221.795 115.927L211.385 122.913C207.728 125.367 204.198 127.806 201.324 131.15C193.095 140.722 197.022 148.668 193.827 147.774C193.438 147.663 192.964 146.935 192.979 146.368C193.165 138.698 196.53 131.981 202.096 126.919C205.028 124.252 208.121 122.085 211.468 119.93C215.209 117.516 223.922 112.296 225.532 108.364C227.142 104.431 225.591 100.491 222.771 97.7947C216.757 92.0448 212.361 87.3066 215.643 77.856C212.987 79.802 210.944 82.2668 209.48 85.2208C206.19 91.8572 208.682 97.0883 211.64 103.052C213.271 106.344 213.96 109.916 212.816 113.525C211.414 117.943 206.088 123.016 204.588 121.703C203.433 120.695 207.17 112.175 199.543 107.639C201.553 115.548 196.993 120.319 192.032 125.786C183.206 135.505 187.067 150.757 196.392 157.828C196.742 158.093 196.731 159.005 196.454 159.042C196.242 159.071 195.601 159.06 195.208 158.784C189.945 155.05 185.639 147.766 184.954 140.17C183.978 145.728 185.023 151.416 187.825 156.29C189.526 159.31 191.729 161.676 194.691 163.456L207.334 163.449C200.071 154.844 201.932 144.904 208.78 137.039C212.408 132.875 216.597 129.56 221.431 126.868C221.748 126.691 222.724 126.801 222.881 127.125C223.828 129.104 218.677 133.75 220.637 142.359C221.387 145.651 223.769 149.072 226.858 148.09C227.569 147.862 228.607 146.906 228.902 145.99C229.758 143.33 228.596 142.624 229.612 141.468C231.12 139.758 243.035 151.993 233.754 163.335C234.916 163.449 236.442 163.533 237.546 163.405C243.731 159.976 247.22 153.472 247.329 146.181V146.185ZM231.586 145.559C230.949 147.95 229.71 149.529 227.936 150.213C223.197 152.041 219.431 147.634 218.291 142.988C217.297 138.941 217.905 135.112 219.129 131.139C213.446 134.872 207.185 141.189 205.611 147.579C204.078 153.627 206.103 159.663 211.053 163.471L230.151 163.441C235.812 158.957 236.409 151.07 231.586 145.555V145.559ZM178.441 165.825V170.847L261.579 170.865V165.844L178.441 165.825ZM228.712 181.39C230.869 178.223 233.386 176.276 236.628 175.967C240.07 175.618 243.075 177.281 244.452 180.444C247.166 177.009 250.772 175.434 254.746 176.012L256.068 173.212H184.04L185.311 176.048C189.453 175.423 193.066 177.215 195.569 180.408C196.946 177.284 199.83 175.747 203.018 175.956C206.58 176.188 209.407 178.355 211.345 181.544C213.14 177.958 216.437 175.92 220.134 175.923C223.817 175.927 226.858 178.197 228.716 181.394L228.712 181.39ZM205.232 198.636C200.271 194.777 197.179 190.211 195.281 184.642C194.232 181.57 189.985 177.538 186.021 178.436C187.635 188.302 193.117 194.571 202.016 198.838C202.956 198.904 204.431 198.79 205.236 198.636H205.232ZM214.215 198.665C212.343 194.707 211.108 191.083 210.561 187.066C210.565 182.821 206.562 178.042 201.965 178.34C199.204 178.521 196.949 181.085 197.769 184.053C199.306 189.63 203.116 194.357 207.88 197.477C209.858 198.772 212.077 199.191 214.215 198.669V198.665ZM222.819 198.838C225.19 195.141 226.195 191.473 227.044 187.405C227.973 182.95 225.037 178.826 220.724 178.362C216.411 177.899 212.488 181.732 212.962 186.378C213.421 190.863 214.892 194.814 217.136 198.79L222.819 198.838ZM230.242 198.492C236.136 195.66 240.197 190.436 242.263 184.355C242.809 182.751 242.15 180.794 241.254 179.834C240.121 178.616 238.34 178.105 236.591 178.406C232.883 179.043 230.067 182.49 229.608 186.272C229.066 190.723 227.754 194.659 225.784 198.739C227.077 198.805 228.876 199.151 230.246 198.492H230.242ZM248.542 190.995C251.613 187.405 253.274 183.02 254.054 178.395C248.608 177.693 245.537 182.17 243.956 186.625C242.204 191.569 238.835 195.38 234.865 198.603C238.893 200.361 246.31 193.603 248.542 190.995ZM239.939 211.257C241.571 211.257 242.499 209.793 242.317 208.432C242.153 207.211 241.112 206.332 239.604 206.332L200.38 206.343C198.854 206.343 197.769 207.472 197.751 208.752C197.736 209.848 198.603 211.257 200.034 211.257H239.939ZM224.472 218.361C226.866 215.584 230.315 215.797 232.435 218.276C233.896 216.661 235.655 215.996 237.852 216.581C237.928 215.532 237.946 214.52 237.801 213.66L202.122 213.678L202.169 216.595C204.409 215.929 206.063 216.764 207.516 218.107C208.642 217.276 210.161 216.301 211.494 216.319C213.162 216.341 214.463 217.184 215.65 218.442C218.036 215.554 221.959 215.734 224.472 218.361ZM211.319 345.579L206.372 221.422C206.329 220.3 205.473 219.365 204.813 219.056C203.994 218.674 203.065 218.699 202.315 219.38L208.995 345.924C209.888 346.112 210.813 346.259 211.315 345.579H211.319ZM221.383 345.626L222.848 247.302L223.347 222.349C223.387 220.362 221.977 218.865 220.109 218.821C218.571 218.784 216.681 220.009 216.714 222.11L218.684 345.913C219.704 346.134 220.735 346.248 221.38 345.626H221.383ZM231.156 345.751L236.289 247.287L237.706 219.387C236.864 218.674 235.732 218.711 234.978 219.218C234.311 219.667 233.644 220.601 233.601 221.753L228.785 345.888C229.612 346.027 230.333 346.027 231.156 345.751ZM216.273 345.932L215.821 317.149L214.295 221.407C214.266 219.638 212.463 218.769 211.203 218.928C209.684 219.119 208.766 220.337 208.835 222.11L211.844 299.333L213.778 346.005C214.572 346.024 215.402 346.005 216.269 345.932H216.273ZM223.798 345.877C224.913 346.094 225.689 346.097 226.367 345.744L231.237 222.43C231.32 220.333 230.45 218.979 228.465 218.924C226.873 218.88 225.7 220.215 225.671 222.01L225.339 241.927L223.798 345.877ZM232.41 353.444C234.107 353.444 235.014 351.888 234.886 350.707C234.748 349.438 233.746 348.459 232.304 348.459H207.673C206.158 348.459 205.134 349.658 205.13 350.983C205.13 352.208 206.194 353.433 207.695 353.433L232.413 353.44L232.41 353.444ZM227.598 358.693C228.854 358.016 229.75 356.964 230.195 355.864L209.713 355.872C210.325 357.023 211.079 357.862 212.124 358.469C216.838 361.195 222.651 361.353 227.598 358.693Z" fill="#C8821A" stroke="#C8821A" stroke-width="3"/>
</svg>
