<?xml version="1.0" encoding="UTF-8"?>
<svg id="Layer_1" xmlns="http://www.w3.org/2000/svg" version="1.1" viewBox="0 0 431 437">
  <!-- Generator: Adobe Illustrator 30.2.1, SVG Export Plug-In . SVG Version: 2.1.1 Build 1)  -->
  <defs>
    <style>
      .st0 {
        stroke-width: 13.2px;
      }

      .st0, .st1 {
        fill: none;
        stroke-miterlimit: 10;
      }

      .st0, .st1, .st2 {
        stroke: #c8821a;
      }

      .st1 {
        stroke-width: 6.69px;
      }

      .st2 {
        fill: #c8821a;
        stroke-width: 1.63px;
      }
    </style>
  </defs>
  <path class="st0" d="M215.5,422.11c112.45,0,203.61-91.16,203.61-203.61S327.95,14.89,215.5,14.89,11.89,106.05,11.89,218.5s91.16,203.61,203.61,203.61Z"/>
  <path class="st1" d="M215.5,379.85c89.64,0,162.31-72.89,162.31-162.79S305.14,54.27,215.5,54.27,53.19,127.15,53.19,217.06s72.67,162.79,162.31,162.79Z"/>
  <path class="st2" d="M228.76,350.13c-.84,2.18-2.2,3.8-4.22,4.87-4.98,2.66-11.01,2.72-16.01.08-2.1-1.1-3.55-2.75-4.39-4.92-2.36-.44-4.01-2.17-4.16-4.4-.15-2.23,1.22-4.28,3.69-4.94l-6.59-127.24c-2.24-.54-3.92-2.16-4.12-4.32-.23-2.5,1.28-4.55,3.68-5.18.24-.75.61-1.86.87-2.48.18-.42,1.66,0,1.67.46v1.96s34.6.01,34.6.01c0-.93-.06-1.61-.19-2.54l-34.47.06c-3.84-1.66-7.32-4.08-10.36-7.18-8.89-9.04-5.02-18.16-10.72-20.05-2.32-.77-3.69-2.78-3.4-5.09.29-2.32,2.25-4.11,4.71-4.13l8.94-.05c-10.63-10.47-9.94-26.14-.54-37.27,1.9-2.25,3.78-4.29,5.46-6.68,2.39-3.39,2.57-7.9.53-11.35-.18-.3-.11-1.24.09-1.47.25-.28.96-.35,1.41-.21,5.77,1.82,9.15,6.89,8.81,13.34,3.93-3.24,4.93-8.45,2.62-13.02-.98-1.94-1.92-3.87-2.71-5.9-4.06-10.35,2.37-19.82,11.18-24.34.34-.17,1.22.08,1.38.35,1.08,1.86-6.39,7.13-1.27,15.75,3.79,5.59,7.31,5.74,9.21,13.03,1.63-4.88.28-9.99-2.93-14.04-.3-.38-.42-1.43-.14-1.79s1.22-.33,1.68-.11c3.55,1.65,6.61,3.62,9.03,6.69,4.22,5.34,5.51,12.13,3.51,18.71-.87,2.85-2.14,5.41-3.45,8.08-2.73,5.59-.45,11.22,1.86,10.91,2.12-.29.02-4.41.81-9.08,1.3-7.63,9.07-11.08,9.97-9.71.19.29.22,1.16.06,1.48-1.87,3.66-1.9,7.85.19,11.43l4.34,7.48c5.32,9.16,3.39,20.52-4.37,27.7l9.14.12c2.46.03,4.08,2.48,4.14,4.62.07,2.66-1.79,3.97-4.13,4.91-1.84.75-2.64,3.29-3,5.18-1.98,10.37-6.57,15.84-15.4,20.81l.45,3.34c2.09.61,3.81,2.38,3.79,4.63-.02,2.43-1.6,4.4-4.12,4.84l-4.08,78.14-2.51,49.11c2.32.66,3.64,2.59,3.62,4.74-.02,2.3-1.55,4.19-4.14,4.63h0ZM242.42,148.5c0-.81.56-1.33,1.08-1.31.39.02,1.08.68,1.09,1.14.21,6.58-2.56,12.33-7.23,16.66l3.68.09c9.06-5.81,11.72-17.82,6.03-27.1-3.38-5.88-7.2-10.31-5.45-17.73-3.5,2.01-5.13,6.1-4.71,10.09l.36,3.44c.18,1.67-.71,3.38-1.97,3.93-1.53.67-3.26.3-4.44-.97-1.9-2.04-2.37-5-2.24-7.84-2.92,3.8-.32,8.02-1.64,8.18-2.07.25-2.23-6-.26-8.91l3.63-5.38c6.28-9.3,5.01-21.33-4.8-27.5,4.58,9.73.24,17.97-7.43,24.11l-9.9,6.72c-3.48,2.36-6.83,4.71-9.57,7.92-7.82,9.21-4.09,16.85-7.13,15.99-.37-.11-.82-.81-.81-1.35.18-7.38,3.38-13.84,8.67-18.71,2.79-2.57,5.73-4.65,8.91-6.72,3.56-2.32,11.84-7.34,13.37-11.12,1.53-3.78.06-7.57-2.62-10.16-5.72-5.53-9.9-10.09-6.78-19.18-2.52,1.87-4.47,4.24-5.86,7.08-3.13,6.38-.76,11.41,2.05,17.15,1.55,3.17,2.21,6.6,1.12,10.07-1.33,4.25-6.4,9.13-7.82,7.87-1.1-.97,2.45-9.16-4.8-13.53,1.91,7.61-2.42,12.2-7.14,17.45-8.39,9.35-4.72,24.02,4.15,30.82.33.26.32,1.13.06,1.17-.2.03-.81.02-1.18-.25-5-3.59-9.1-10.6-9.75-17.9-.93,5.35.07,10.82,2.73,15.5,1.62,2.9,3.71,5.18,6.53,6.89h12.02c-6.91-8.28-5.14-17.84,1.38-25.41,3.45-4,7.43-7.19,12.03-9.78.3-.17,1.23-.06,1.38.25.9,1.9-4,6.37-2.13,14.65.71,3.17,2.98,6.46,5.92,5.51.68-.22,1.66-1.14,1.94-2.02.81-2.56-.29-3.24.67-4.35,1.43-1.64,12.76,10.12,3.94,21.03,1.11.11,2.56.19,3.61.07,5.88-3.3,9.2-9.55,9.3-16.57h0ZM227.45,147.9c-.61,2.3-1.78,3.82-3.47,4.48-4.51,1.76-8.09-2.48-9.17-6.95-.94-3.89-.37-7.57.8-11.4-5.4,3.59-11.36,9.67-12.85,15.81-1.46,5.82.47,11.62,5.18,15.28l18.16-.03c5.38-4.31,5.95-11.9,1.36-17.2h0ZM176.91,167.39v4.83l79.05.02v-4.83l-79.05-.02ZM224.71,182.36c2.05-3.05,4.44-4.92,7.53-5.22,3.27-.34,6.13,1.26,7.44,4.31,2.58-3.31,6.01-4.82,9.79-4.26l1.26-2.69h-68.49l1.21,2.73c3.94-.6,7.37,1.12,9.75,4.19,1.31-3,4.05-4.48,7.08-4.28,3.39.22,6.08,2.31,7.92,5.37,1.71-3.45,4.84-5.41,8.36-5.41,3.5,0,6.39,2.19,8.16,5.26h0ZM202.39,198.95c-4.72-3.71-7.66-8.1-9.46-13.46-1-2.95-5.04-6.83-8.81-5.97,1.53,9.49,6.75,15.52,15.21,19.62.89.06,2.3-.05,3.06-.2h0ZM210.93,198.97c-1.78-3.81-2.95-7.29-3.47-11.16,0-4.08-3.8-8.68-8.17-8.39-2.63.17-4.77,2.64-3.99,5.5,1.46,5.36,5.08,9.91,9.62,12.91,1.88,1.25,3.99,1.65,6.02,1.15h0ZM219.11,199.14c2.25-3.56,3.21-7.08,4.02-11,.88-4.28-1.91-8.25-6.01-8.7-4.1-.45-7.83,3.24-7.38,7.71.44,4.31,1.84,8.11,3.97,11.94l5.4.05ZM226.17,198.81c5.6-2.72,9.47-7.75,11.43-13.6.52-1.54-.11-3.42-.96-4.35-1.08-1.17-2.77-1.66-4.43-1.37-3.53.61-6.2,3.93-6.64,7.56-.52,4.28-1.76,8.07-3.64,11.99,1.23.06,2.94.4,4.24-.24h0ZM243.57,191.6c2.92-3.45,4.5-7.67,5.24-12.12-5.18-.68-8.1,3.63-9.6,7.92-1.67,4.76-4.87,8.42-8.64,11.52,3.83,1.69,10.88-4.81,13.01-7.32ZM235.39,211.09c1.55,0,2.43-1.41,2.26-2.72-.16-1.18-1.15-2.02-2.58-2.02h-37.3c-1.45.01-2.48,1.1-2.5,2.33-.01,1.05.81,2.41,2.17,2.41h37.94ZM220.68,217.92c2.28-2.67,5.56-2.47,7.57-.08,1.39-1.55,3.06-2.19,5.15-1.63.07-1.01.09-1.98-.05-2.81l-33.93.02.05,2.8c2.13-.64,3.7.16,5.08,1.45,1.07-.8,2.52-1.74,3.78-1.72,1.59.02,2.82.83,3.95,2.04,2.27-2.78,6-2.6,8.39-.08ZM208.17,340.27l-4.7-119.41c-.04-1.08-.86-1.98-1.48-2.28-.78-.37-1.66-.34-2.38.31l6.35,121.71c.85.18,1.73.32,2.21-.33h0ZM217.74,340.32l1.39-94.57.48-24c.04-1.91-1.3-3.35-3.08-3.39-1.46-.04-3.26,1.14-3.23,3.16l1.87,119.07c.97.21,1.95.32,2.56-.28h0ZM227.04,340.44l4.88-94.7,1.35-26.83c-.8-.69-1.88-.65-2.59-.16-.63.43-1.27,1.33-1.31,2.44l-4.58,119.39c.79.13,1.47.13,2.25-.13ZM212.88,340.61l-.43-27.68-1.45-92.08c-.03-1.7-1.74-2.54-2.94-2.38-1.44.18-2.32,1.35-2.25,3.06l2.86,74.27,1.84,44.89c.76.02,1.54,0,2.37-.07h0ZM220.04,340.56c1.06.21,1.8.21,2.44-.13l4.63-118.6c.08-2.02-.75-3.32-2.64-3.37-1.51-.04-2.63,1.24-2.66,2.97l-.32,19.16-1.46,99.98ZM228.23,347.84c1.61,0,2.48-1.5,2.36-2.63-.13-1.22-1.08-2.16-2.46-2.16h-23.42c-1.44,0-2.41,1.15-2.42,2.43,0,1.18,1.01,2.36,2.44,2.36h23.5s0,.01,0,.01ZM223.65,352.89c1.2-.65,2.05-1.66,2.47-2.72h-19.48c.58,1.11,1.3,1.92,2.29,2.51,4.48,2.62,10.01,2.77,14.71.22Z"/>
</svg>