<svg width="997" height="437" viewBox="0 0 997 437" fill="none" xmlns="http://www.w3.org/2000/svg">
<path d="M535.023 139.441V176.628C535.023 185.795 539.693 187.871 555.087 188.736V196H488.496V188.736C500.085 187.525 501.122 186.141 501.122 177.147V93.4324C501.122 84.4383 500.085 83.0546 488.496 81.8438V74.5793H586.221L587.086 109.172H581.032C571.519 89.6272 567.022 82.7086 551.282 82.7086H535.023V129.928H550.071C558.201 129.928 560.103 125.604 561.66 113.842H569.097V155.526H561.66C560.103 143.765 558.201 139.441 550.071 139.441H535.023Z" fill="#C8821A"/>
<path d="M663.095 174.38L656.868 158.467H612.763L606.882 174.207C606.017 176.801 605.498 178.877 605.498 180.606C605.498 186.314 610.341 188.217 619.681 188.736V196H582.494V188.736C587.164 188.044 590.623 187.006 592.526 182.336L628.502 88.5894L622.622 74.2334H658.771L701.839 182.336C703.569 186.833 707.028 188.044 712.044 188.736V196H650.988V188.736C659.636 188.39 664.479 186.66 664.479 180.779C664.479 179.05 663.96 176.974 663.095 174.38ZM634.21 101.216L616.222 149.127H653.063L634.21 101.216Z" fill="#C8821A"/>
<path d="M763.897 93.4324V177.147C763.897 186.141 764.934 187.525 776.35 188.736V196H717.369V188.736C728.958 187.525 729.996 186.141 729.996 177.147V93.4324C729.996 84.4383 728.958 83.0546 717.369 81.8438V74.5793H776.35V81.8438C764.934 83.0546 763.897 84.4383 763.897 93.4324Z" fill="#C8821A"/>
<path d="M836.983 83.0546H831.967V136.673H837.156C852.896 136.673 861.89 126.641 861.89 109.172C861.89 93.0865 853.069 83.0546 836.983 83.0546ZM831.967 145.322V177.147C831.967 186.141 833.005 187.525 844.421 188.736V196H785.44V188.736C797.029 187.525 798.066 186.141 798.066 177.147V93.4324C798.066 84.4383 797.029 83.0546 785.44 81.8438V74.5793H848.918C877.111 74.5793 895.618 87.7246 895.618 108.999C895.618 126.641 882.473 136.155 869.674 140.306L893.716 174.725C900.807 185.103 904.093 188.39 912.223 188.736V196H872.614C867.771 192.195 863.274 186.314 858.085 177.666L838.367 145.322H831.967Z" fill="#C8821A"/>
<path d="M553.876 240.039C569.443 240.039 582.588 243.671 592.447 250.244L592.966 280.513H584.491C580.167 259.93 571 248.687 554.914 248.687C533.294 248.687 524.3 271.692 524.3 300.922C524.3 332.575 535.369 355.752 556.644 355.752C571 355.752 582.07 345.547 588.988 319.257H597.636L594.696 353.676C584.664 360.768 569.27 364.919 552.32 364.919C512.884 364.919 488.496 342.261 488.496 305.765C488.496 265.119 517.9 240.039 553.876 240.039Z" fill="#C8821A"/>
<path d="M683.533 341.569L677.307 325.656H633.201L627.32 341.396C626.455 343.99 625.936 346.066 625.936 347.796C625.936 353.503 630.779 355.406 640.119 355.925V363.189H602.932V355.925C607.602 355.233 611.061 354.195 612.964 349.525L648.94 255.779L643.06 241.423H679.209L722.277 349.525C724.007 354.022 727.466 355.233 732.482 355.925V363.189H671.426V355.925C680.074 355.579 684.917 353.849 684.917 347.969C684.917 346.239 684.398 344.163 683.533 341.569ZM654.648 268.405L636.66 316.316H673.501L654.648 268.405Z" fill="#C8821A"/>
<path d="M780.875 364.919C763.579 364.919 748.358 359.73 740.229 353.331L738.326 323.235H747.493C751.818 342.607 763.406 356.617 780.875 356.617C793.156 356.617 801.112 350.736 801.112 340.012C801.112 328.77 793.848 323.927 774.649 318.046C751.645 311.3 739.018 300.058 739.018 279.129C739.018 255.087 757.352 240.039 782.951 240.039C798.691 240.039 811.836 244.19 820.311 250.417V276.708H812.528C808.55 259.238 799.037 248.168 782.951 248.168C772.227 248.168 765.136 254.395 765.136 264.254C765.136 275.497 772.054 280.167 789.87 285.529C812.874 292.62 828.095 301.787 828.095 326.002C828.095 352.639 806.82 364.919 780.875 364.919Z" fill="#C8821A"/>
<path d="M837.971 363.189V355.925C849.56 354.714 850.598 353.331 850.598 344.336V260.622C850.598 251.628 849.56 250.244 837.971 249.033V241.769H937.425L938.29 275.151H931.718C922.551 255.779 918.053 249.898 902.314 249.898H884.498V295.734H901.276C909.232 295.734 911.308 291.582 912.865 279.821H920.302V321.332H912.865C911.308 309.571 909.232 305.247 901.276 305.247H884.498V343.472C884.498 352.812 888.995 355.06 898.509 355.06H904.562C919.956 355.06 923.761 348.315 936.215 325.483H943.998L938.463 363.189H837.971Z" fill="#C8821A"/>
<path d="M232 411C338.039 411 424 325.039 424 219C424 112.961 338.039 27 232 27C125.961 27 40 112.961 40 219C40 325.039 125.961 411 232 411Z" stroke="#C8821A" stroke-width="13.2" stroke-miterlimit="10"/>
<path d="M232 371.151C316.531 371.151 385.057 302.422 385.057 217.642C385.057 132.861 316.531 64.1321 232 64.1321C147.469 64.1321 78.9434 132.861 78.9434 217.642C78.9434 302.422 147.469 371.151 232 371.151Z" stroke="#C8821A" stroke-width="6.69" stroke-miterlimit="10"/>
<path d="M244.502 343.125C243.709 345.184 242.428 346.705 240.521 347.719C235.821 350.225 230.135 350.282 225.425 347.799C223.449 346.758 222.078 345.207 221.281 343.158C219.053 342.745 217.499 341.113 217.358 339.008C217.218 336.903 218.508 334.974 220.833 334.35L214.615 214.367C212.505 213.857 210.921 212.328 210.731 210.29C210.513 207.928 211.94 205.996 214.197 205.402C214.422 204.691 214.768 203.644 215.02 203.06C215.19 202.666 216.587 203.067 216.591 203.497L216.604 205.349L249.222 205.362C249.222 204.485 249.17 203.844 249.046 202.967L216.545 203.023C212.926 201.462 209.641 199.173 206.773 196.257C198.389 187.729 202.04 179.131 196.664 177.353C194.473 176.629 193.186 174.734 193.46 172.549C193.735 170.363 195.58 168.672 197.899 168.658L206.325 168.608C196.299 158.736 196.952 143.962 205.816 133.466C207.609 131.341 209.376 129.419 210.96 127.167C213.214 123.971 213.387 119.72 211.46 116.467C211.293 116.187 211.352 115.299 211.548 115.083C211.783 114.822 212.456 114.749 212.877 114.882C218.315 116.594 221.503 121.382 221.183 127.464C224.89 124.408 225.83 119.5 223.655 115.183C222.731 113.351 221.849 111.529 221.098 109.621C217.267 99.8653 223.335 90.9338 231.644 86.6699C231.964 86.5064 232.794 86.7466 232.944 87.0035C233.963 88.7585 226.921 93.7297 231.748 101.854C235.322 107.122 238.643 107.262 240.43 114.145C241.971 109.544 240.697 104.723 237.667 100.903C237.382 100.546 237.275 99.5584 237.536 99.2114C237.797 98.8644 238.682 98.9011 239.123 99.1046C242.468 100.656 245.352 102.521 247.638 105.41C251.622 110.445 252.834 116.844 250.946 123.053C250.13 125.739 248.925 128.151 247.693 130.674C245.12 135.945 247.266 141.257 249.444 140.96C251.443 140.686 249.46 136.799 250.208 132.399C251.433 125.205 258.762 121.949 259.605 123.243C259.781 123.514 259.81 124.338 259.657 124.638C257.893 128.091 257.87 132.038 259.833 135.418L263.929 142.471C268.946 151.106 267.13 161.822 259.81 168.588L268.426 168.702C270.748 168.732 272.27 171.044 272.326 173.056C272.395 175.565 270.634 176.796 268.433 177.69C266.702 178.394 265.947 180.79 265.608 182.578C263.74 192.36 259.412 197.515 251.09 202.199L251.511 205.352C253.478 205.929 255.104 207.601 255.088 209.716C255.071 212.012 253.582 213.863 251.204 214.284L247.357 287.968L244.992 334.28C247.177 334.904 248.428 336.719 248.409 338.754C248.389 340.923 246.945 342.705 244.506 343.118L244.502 343.125ZM257.381 152.991C257.39 152.23 257.913 151.74 258.4 151.76C258.769 151.776 259.419 152.397 259.432 152.831C259.628 159.04 257.018 164.458 252.615 168.545L256.087 168.632C264.628 163.157 267.139 151.826 261.77 143.075C258.582 137.533 254.98 133.356 256.629 126.353C253.331 128.248 251.792 132.102 252.187 135.865L252.527 139.108C252.694 140.686 251.861 142.291 250.669 142.818C249.228 143.452 247.599 143.102 246.485 141.907C244.692 139.979 244.248 137.193 244.372 134.51C241.622 138.097 244.071 142.074 242.83 142.228C240.88 142.464 240.73 136.569 242.585 133.823L246.011 128.748C251.936 119.974 250.731 108.633 241.488 102.818C245.809 111.99 241.716 119.767 234.485 125.549L225.151 131.885C221.872 134.11 218.707 136.322 216.13 139.355C208.752 148.036 212.273 155.243 209.409 154.432C209.059 154.332 208.635 153.671 208.648 153.158C208.814 146.201 211.832 140.109 216.823 135.518C219.452 133.099 222.225 131.134 225.226 129.179C228.58 126.99 236.393 122.256 237.836 118.689C239.28 115.123 237.889 111.549 235.361 109.104C229.968 103.889 226.026 99.5918 228.969 91.0206C226.588 92.7855 224.756 95.0209 223.443 97.7C220.494 103.719 222.728 108.463 225.38 113.872C226.843 116.858 227.46 120.097 226.435 123.37C225.177 127.377 220.402 131.978 219.057 130.787C218.021 129.873 221.372 122.146 214.533 118.032C216.336 125.205 212.247 129.533 207.798 134.49C199.885 143.305 203.347 157.138 211.708 163.55C212.021 163.791 212.012 164.618 211.763 164.651C211.574 164.678 210.999 164.668 210.646 164.418C205.927 161.031 202.067 154.425 201.452 147.536C200.577 152.577 201.515 157.735 204.026 162.156C205.551 164.895 207.527 167.04 210.183 168.655L221.519 168.648C215.007 160.845 216.676 151.83 222.816 144.696C226.069 140.92 229.825 137.914 234.159 135.471C234.443 135.311 235.318 135.411 235.459 135.705C236.308 137.5 231.69 141.714 233.447 149.521C234.12 152.507 236.256 155.61 239.025 154.719C239.662 154.512 240.593 153.645 240.858 152.814C241.625 150.402 240.583 149.761 241.494 148.713C242.847 147.162 253.53 158.259 245.208 168.545C246.25 168.648 247.618 168.725 248.608 168.608C254.154 165.499 257.283 159.6 257.381 152.987V152.991ZM243.265 152.424C242.693 154.592 241.583 156.024 239.992 156.644C235.743 158.302 232.366 154.305 231.343 150.091C230.452 146.421 230.997 142.948 232.095 139.345C227 142.731 221.385 148.46 219.974 154.255C218.599 159.74 220.415 165.215 224.854 168.668L241.978 168.642C247.053 164.575 247.589 157.421 243.265 152.42V152.424ZM195.613 170.804V175.358L270.157 175.375V170.82L195.613 170.804ZM240.688 184.92C242.621 182.047 244.878 180.282 247.785 180.002C250.871 179.685 253.566 181.193 254.8 184.063C257.234 180.946 260.467 179.518 264.03 180.042L265.216 177.503H200.633L201.773 180.076C205.486 179.508 208.726 181.133 210.97 184.029C212.204 181.197 214.791 179.802 217.649 179.992C220.843 180.202 223.378 182.167 225.115 185.06C226.725 181.807 229.681 179.959 232.996 179.962C236.298 179.965 239.025 182.024 240.691 184.923L240.688 184.92ZM219.635 200.561C215.186 197.061 212.413 192.921 210.712 187.869C209.771 185.083 205.963 181.427 202.409 182.241C203.856 191.189 208.772 196.874 216.751 200.745C217.593 200.805 218.916 200.701 219.638 200.561H219.635ZM227.689 200.588C226.01 196.998 224.903 193.711 224.413 190.068C224.416 186.218 220.827 181.884 216.705 182.154C214.229 182.318 212.208 184.643 212.942 187.336C214.321 192.394 217.737 196.681 222.009 199.51C223.783 200.684 225.772 201.065 227.689 200.591V200.588ZM235.403 200.745C237.529 197.391 238.431 194.065 239.192 190.375C240.025 186.335 237.392 182.595 233.525 182.174C229.658 181.754 226.141 185.23 226.565 189.444C226.977 193.511 228.296 197.095 230.308 200.701L235.403 200.745ZM242.059 200.431C247.344 197.862 250.986 193.124 252.837 187.609C253.327 186.154 252.736 184.38 251.933 183.509C250.917 182.404 249.32 181.941 247.752 182.214C244.427 182.791 241.903 185.918 241.491 189.347C241.004 193.384 239.829 196.954 238.062 200.654C239.221 200.714 240.835 201.028 242.063 200.431H242.059ZM258.468 193.631C261.221 190.375 262.711 186.398 263.41 182.204C258.527 181.567 255.774 185.627 254.356 189.668C252.785 194.152 249.764 197.608 246.204 200.531C249.816 202.126 256.466 195.997 258.468 193.631ZM250.754 212.008C252.217 212.008 253.05 210.68 252.886 209.446C252.739 208.338 251.805 207.541 250.453 207.541L215.284 207.551C213.916 207.551 212.942 208.575 212.926 209.736C212.913 210.73 213.69 212.008 214.974 212.008H250.754ZM236.886 218.451C239.032 215.932 242.125 216.125 244.026 218.374C245.335 216.909 246.913 216.305 248.882 216.836C248.951 215.885 248.967 214.968 248.836 214.187L216.845 214.204L216.888 216.849C218.897 216.245 220.379 217.003 221.682 218.221C222.692 217.467 224.054 216.582 225.249 216.599C226.745 216.619 227.911 217.383 228.976 218.524C231.115 215.905 234.632 216.069 236.886 218.451ZM225.092 333.83L220.657 221.227C220.618 220.209 219.85 219.362 219.259 219.081C218.524 218.734 217.691 218.758 217.019 219.375L223.008 334.144C223.809 334.314 224.638 334.447 225.089 333.83H225.092ZM234.116 333.873L235.429 244.698L235.877 222.067C235.913 220.266 234.649 218.908 232.973 218.868C231.595 218.834 229.9 219.945 229.929 221.851L231.696 334.133C232.611 334.334 233.535 334.437 234.113 333.873H234.116ZM242.879 333.987L247.481 244.685L248.752 219.382C247.997 218.734 246.981 218.768 246.305 219.228C245.708 219.635 245.11 220.483 245.071 221.527L240.753 334.11C241.494 334.237 242.141 334.237 242.879 333.987ZM229.534 334.15L229.129 308.046L227.761 221.213C227.734 219.608 226.118 218.821 224.988 218.965C223.626 219.138 222.803 220.242 222.865 221.851L225.563 291.888L227.297 334.217C228.009 334.234 228.753 334.217 229.531 334.15H229.534ZM236.282 334.1C237.281 334.297 237.977 334.3 238.584 333.98L242.951 222.141C243.026 220.239 242.246 219.011 240.466 218.961C239.038 218.921 237.987 220.132 237.961 221.76L237.663 239.824L236.282 334.1ZM244.003 340.963C245.525 340.963 246.338 339.552 246.224 338.481C246.1 337.33 245.201 336.442 243.908 336.442H221.823C220.464 336.442 219.546 337.53 219.543 338.731C219.543 339.842 220.497 340.953 221.843 340.953L244.006 340.96L244.003 340.963ZM239.688 345.724C240.815 345.11 241.618 344.156 242.017 343.158L223.652 343.165C224.201 344.209 224.877 344.97 225.814 345.521C230.04 347.993 235.253 348.136 239.688 345.724Z" fill="#C8821A" stroke="#C8821A" stroke-width="1.63"/>
</svg>
