<?xml version="1.0" encoding="UTF-8"?>
<svg id="Layer_1" xmlns="http://www.w3.org/2000/svg" version="1.1" viewBox="0 0 937.6 240.5">
  <!-- Generator: Adobe Illustrator 29.2.1, SVG Export Plug-In . SVG Version: 2.1.0 Build 116)  -->
  <defs>
    <style>
      .st0 {
        fill: #fff;
      }
    </style>
  </defs>
  <path class="st0" d="M412.9,28.9c1.3-3,3.3-3.8,6.6-3.8h3.7v32.5h7.1V25.1h4.4c3.1,0,5.9.3,5.9,5.1v1.2h2.3l1.6-9.4h-33.4l-1.6,9.4h2.2l1.1-2.5h0Z"/>
  <path class="st0" d="M456,27.4v30.3h7.2v-16.5h17.1v16.5h7.2v-28.6c0-3.3.6-4.3,1.5-5.3l.6-.8v-.9h-13v1.9l1.5.4c1.9.6,2.2,1.2,2.2,3v10.8h-17.1v-9.1c0-3.3.6-4.3,1.5-5.3l.6-.8v-.9h-13v1.9l1.5.4c1.9.6,2.2,1.2,2.2,3"/>
  <path class="st0" d="M504.8,27.3v30.3h22.3v-3h-15.1v-13.5h10v-3h-10v-12.9h6.2c3.1,0,5.9.4,5.9,5.1v1.2h2.3l1.6-9.4h-26.9v1.9l1.5.4c1.9.6,2.2,1.2,2.2,3"/>
  <path class="st0" d="M136.5,93.1l-38.6,93-29.7-75.6c-2.8-7.1-6.5-16.6-6.5-16.7l-.3-.7H22.2v8.2l.8.2c13.8,2.7,13.8,4.3,13.8,12.3v102.6h11.8v-102.5l41.3,101.8.3.6h8.1l42.1-101.5.2,101.5h19.8v-97.5c0-7.7,1.6-12.7,3-15.5,1.4-3,2.9-4.2,2.9-4.2l.6-.4-1.9-5.5h-28.4Z"/>
  <path class="st0" d="M383.1,190c-.1.1-13.8,12.6-35.7,12.6s-26.1-4.9-35-13.9c-9.4-9.5-14.4-22.6-14.4-38,0-28.9,17.9-49.1,43.5-49.1s16.6,2.7,22.2,7.8c5.1,4.7,8,10.9,8,17.6v1h10v-31l-.8-.2c-8.8-2.4-22.2-6-36.3-6s-36.2,6.6-48.4,18.5c-12.1,11.8-18.8,28.4-18.8,46.7s6.8,34.7,19.7,46.2c11.8,10.5,27.5,16.2,44.2,16.2,31.6,0,45.8-21.3,45.9-21.6l.3-.5-3.3-7.4-1,1h0Z"/>
  <path class="st0" d="M914.2,93.1h-38v8.9h.9c13.9,1.5,13.9,5,13.9,12.7v68.8c-1.7-2.3-3.6-4.9-5.5-7.1l-72.9-82.9-.3-.3h-26.1v8.2h.8c11.5,2.2,14,5.3,14,17.5v97.5h11.8v-94.9l81.6,95.5.3.4h8v-100.3c0-14.1,11.3-17.4,11.7-17.6l.9-.3-1.3-6.1h0Z"/>
  <path class="st0" d="M207.8,161.6c-1.4,0-2.9,0-4.4,0l15.3-40.4,16.2,43.1c-6.2-1.3-15.7-2.8-27.1-2.8M227.6,93.1h-9l-49.3,123.2h13.3l17.8-46.7c6.4-.3,22-.4,37.8,3.8l16.1,42.9h21.4l-47.8-122.6-.3-.7h0Z"/>
  <path class="st0" d="M423.2,169.7l1.6-4.2,16.8-44.2,16,42.8c-6.2.3-20.5,1.4-34.4,5.7M450.5,93.1h-9l-49.3,123.2h13.3l13.9-36.6c5.1-1.9,22-7.6,40.6-7.6h.5l16.3,43.6.2.7h21.3l-47.8-122.6-.3-.6h0Z"/>
  <path class="st0" d="M726.3,159.2c-1.6,0-3.2,0-4.8.1l14.5-38,15.7,41.9c-5.7-1.9-14.5-4-25.4-4ZM744.9,93.1h-9l-49.3,123.2h13.3l18.5-48.7c6.1-.6,21.1-1.2,37.1,5.9l15.8,42.2.2.7h21.4l-47.8-122.6-.3-.6h0Z"/>
  <path class="st0" d="M586.7,182.1l-1.7,11.3c-.3,2.5-.9,4.5-1.8,6.1-.9,1.6-2,2.8-3.3,3.7-1.3.9-2.8,1.5-4.5,1.8-1.7.3-3.7.4-5.8.4h-37.2v-88.4c0-7.7,1.5-12.7,2.8-15.5,1.3-3,2.7-4.2,2.7-4.2l.5-.5-1.4-3.7h-37.7v8.2l.8.2c12.6,2.6,12.6,3.9,12.6,12.3v102.6h80.2v-37.3h-5.6l-.5,3.1h0Z"/>
  <path class="st0" d="M681.1,178.4l-.5.9c-11,20.9-15.1,25.7-29.8,25.7h-25.9v-88.1c0-7.7,1.5-12.7,2.8-15.5,1.3-2.9,2.7-4.2,2.7-4.2l.5-.5-1.4-3.7h-37.6v8.2l.8.2c12.5,2.6,12.5,3.8,12.5,12.2v102.3h69.8l14.3-33.2-8.4-4.3h0Z"/>
</svg>