<?xml version="1.0" encoding="UTF-8"?>
<svg id="Layer_1" data-name="Layer 1" xmlns="http://www.w3.org/2000/svg" viewBox="0 0 685.78 281.84">
  <defs>
    <style>
      .cls-1 {
        fill: #fff;
      }
    </style>
  </defs>
  <path class="cls-1" d="M685.78,140.49v2.57c-1.93,71.57-57.97,132.61-129.95,138.78l-238.98-.04v-23.55c0-2.85-5.16-6.13-8.11-5.61-66.14-2.55-135.02,3.54-200.84.08C37.04,249-13.61,184.73,3.26,114.79,14.31,69.01,57.88,32.59,105.33,30.83l204.25.05c2.27.61,7.27-3.99,7.27-5.59V.04l236.41-.04c72.97,4.58,132,67.9,132.52,140.49ZM352.89,35.15v84.79h-21.02l-26.16,19.7,8.57-39.4h-24.02l-16.3,78.79h23.17c2.27-9.94,2.06-17.77,13.25-21.46l12.06,21.46h30.46v67.66h200.33c16.94-1.17,39.9-9.08,53.06-19.84,1.12-.92,2.61-1.46,2.29-3.28h-74.64l-.21-22.88c16.71-28.95,65.1-82.67,54.89-117.77-3.48-11.95-19.94-12.75-24.55-1.86-.36.84-1.81,4.65-1.81,5.04v16.7h-27.45v-15.84c0-7.35,8.91-21.7,14.57-26.56,22.13-18.98,64.74-8.46,67.78,22.29,4.24,42.82-32.18,83.03-54.02,116.47,1.33,2.12,1.8.42,2.12.42h49.33v18.84c2.06-.56,5.04-3.13,6.56-4.58,62.94-59.92,17.84-174.02-67.92-178.69h-200.33ZM83.49,100.24h-23.17l-16.3,78.79h22.31l.87-5.99c11.78,12.41,36.18,9.26,48.45-.88,14.61-12.06,21.21-41.77.17-50.66-11.6-4.9-27.44-3.23-37.47,4.43l5.14-25.69ZM168.43,100.24h-24.02l-16.3,78.79h22.74l17.59-78.79ZM201.03,100.24h-23.17l-3.43,13.7h24.02l2.57-13.7ZM265.38,179.03c2.39-25,26.17-63.2-17.63-59.99-7.79.57-13.67,3.75-20.12,7.74l.85-6.85h-21.88l-12.96,57.33.95,1.76h21.45c6.93-13.45,1.42-43.39,23.94-42.74,7.78.22,9.69,4.33,8.86,11.26-1.2,10.05-5.9,21.12-6.64,31.48h23.17ZM196.74,119.94h-23.17l-12.01,59.1h23.17l12.01-59.1Z"/>
  <path class="cls-1" d="M507.33,133.63c11.62,5.84,16.34,20.63,17.19,32.95,1.73,25.3-3.35,55.88-33.94,58.69-42,3.86-51.41-25.16-48.45-61.21,1.16-14.07,6.56-22.79,17.13-31.7-16.33-11.47-17.3-34.03-13.47-52.01,8.55-40.15,66.62-40.36,74.86,1.02,3.51,17.61,2.48,39.72-13.32,51v1.26ZM480.49,73.89c-12.1,2.48-11.29,28.41-8.62,37.33,3.75,12.49,17.78,13.21,22.4,1.27,4.11-10.62,4.45-42.34-13.79-38.59ZM482.26,145.81c-17.52,1.35-16.22,36.39-11.6,47.98,3.17,7.97,10.43,11.61,18.56,7.84,10.41-4.83,10.12-29.46,8.46-39.09-1.42-8.24-5.42-17.51-15.41-16.74Z"/>
  <path class="cls-1" d="M422.39,223.57h-26.6V88.25h-23.17v-14.99c7.63-4.35,15.38-8.47,22.76-13.25,2.02-1.31,12.05-9.44,12.85-9.44h12.87l1.29,1.28v171.72Z"/>
  <polygon class="cls-1" points="352.89 128.51 351.61 175.62 332.23 141.86 352.89 128.51"/>
  <rect class="cls-1" x="357.18" y="138.78" width="30.89" height="13.7"/>
  <rect class="cls-1" x="610.28" y="138.78" width="30.03" height="13.7"/>
  <path class="cls-1" d="M86.7,135.56c14.93-2.52,23.61,5.72,15.7,19.95-4.35,7.82-13.46,9.28-21.7,7.9-14.8-2.48-7.52-25.57,6-27.85Z"/>
</svg>