<?xml version="1.0" encoding="UTF-8"?>
<svg id="Layer_1" data-name="Layer 1" xmlns="http://www.w3.org/2000/svg" viewBox="0 0 692.11 286.36">
  <defs>
    <style>
      .cls-1 {
        fill: #fff;
      }
    </style>
  </defs>
  <path class="cls-1" d="M598.15,124.53c-11.7,2.7-42.6,4.2-42.6,4.2l-3.8,12.2s15.3-1.3,26.5-.2c0,0,3.6-.3,4,4,.2,4.4-.3,9-.3,9,0,0-.3,2.7-4,3.4-4.3.7-33.3,2-33.3,2l-4.7,15.8s-1.7,3.6,2.2,2.6c3.6-1,34-6.8,38-6,4.2,1,9,6.8,7.6,12-1.6,6.3-32,25.7-50.4,24.4,0,0-9.7.6-17.8-12.5-7.8-12.5,2.7-36,2.7-36,0,0-4.7-11-1.2-15,0,0,2-1.7,8-2.2l7.5-15.4s-8.5.5-13.5-5.7c-4.6-6-5-8.6-1.4-10.2,3.8-2,39-8.3,63.2-7.5,0,0,8.5-1,16,13.7,0,0,3.4,6-2.6,7.4M506.95,183.73c-3,7.3-11.3,15-21.3,10.3-10.2-4.8-26.3-37.6-26.3-37.6,0,0-6-12.2-7.2-11.8,0,0-1.3-2.4-2,11-1,13.3.2,39.2-5.3,43.3-5,4-11,2.3-14.4-2.4-2.8-4.7-4-16-2.4-35.7,1.8-19.7,6.3-40.7,12-47.2,6-6.6,10.8-1.8,12.6,0,0,0,7.7,7,20.7,27.7l2.2,3.8s11.8,19.7,13,19.6c0,0,1,1,1.8.2,1.2-.3.8-6.7.8-6.7,0,0-2.2-21.3-13.2-57.3,0,0-1.6-4.6-.5-9,1-4,5.3-2,5.3-2,0,0,16.6,8,24.7,35,8,27,2.6,51.5-.4,58.8M425.56,114.43c-1.6,2.8-2.3,6.7-9.2,7.8,0,0-66.99,4.7-70.29,9.4,0,0-2.2,2.8,1.4,3.5,3.8.8,19,2.8,26.2,3.2,7.8,0,34,.2,43.6,12,0,0,5.5,5.6,5.3,18.3-.2,13-2.5,17.6-7.6,22.3-5.3,4.4-50.7,24.8-79.99-6.4,0,0-13.4-15,4.7-26.4,0,0,13-8,46.3,1.3,0,0,10,3.6,9.6,7.3-.6,4-8.3,8-19.5,7.8-10.8-.3-18.8-5.5-17.2-4.6,1.5.5-11.7-6.4-15.8-1.7-4,4.4-3,7,1,9.7,10,5.8,49.3,3.7,61-9.4,0,0,4.7-5.3-2.4-9.6-7-4-27.4-6.5-35.3-6.8-7.5-.4-35.6,0-39.8-7.3,0,0-4-5.2.4-19.4,4.6-15,37.3-20.8,51.5-22,0,0,39-1.6,46.3,6.4,0,0,1,1.8-.2,4.5M314.97,202.32c-4.7,3.5-14.7,2-17.6-2-2.8-3.5-3.8-17.3-3.3-39,.7-22.2,1-49.4,6-53.8,5-4.3,8-.5,10,2.4,2,3,4.6,6.3,5,13.2.6,7,2.3,43,2.3,43,0,0,2.2,32.8-2.3,36.2M324.97,85.33c-13.8,4.7-23.2,3.2-31.2-.3-3.5,6.3-5.6,8.2-8.2,8.6-4,.4-7.5-6-8-8-.8-1.5-2.7-4.2-.4-10.3-7.8-7-8.4-16.4-7-22.7,1.8-7.4,15-35.2,55-38.5,0,0,19.6-1.4,23,9h.6s19,0,18.6,17c0,17-21,38.2-42.4,45.5M342.77,36.94c-12.6,2-32,18.8-41.3,32.7,14.3,2.6,39.3,1.6,50.5-21,0,0,5.3-14.2-9.2-11.7M287.47,47.94c-4,6.5-4.2,10.4-2.3,13,4.7-7,13-18,25.5-26.6-9.6,1-17.7,5-23.2,13.6M628.14,201.62c-9.2,22.6-17,45.5-21.5,79.79,0,0-1,6.7-6.5,4.5-5.5-2-14.5-11-16.5-23.7-2-16.6,5.4-44.6,20.5-76.79-4.4-7-7.5-17.4-5-32,0,0,4-27,31-51.4,0,0,3.2-2.7,5-1.8,2.2,1,1.3,9.6-.5,14-1.6,4.2-13.6,25-13.6,25,0,0-7.5,14.2-5.4,25.3,14.2-21.8,46.5-65.99,66.49-52,12.7,9,12.7,38,3.2,54.8-7.5,13.3-28.7,40.8-57,34.4M669.94,133.73c-7.4,8-20.6,23.2-31,43.8,11-1.2,21.7-7.3,25-10.4,5.3-4.7,17.5-17.4,15.6-34.2,0,0-1.2-8.8-9.6.8M221.98,213.42c-35.4,10.8-68.79,5.8-86.99,1-.5,7.4-1.3,10.5-2.5,11.7-1.4,1.6-13,8.2-19.4-1.2-2.8-4.5-4.2-12.6-5-20-41-18.6-60-46-60.6-47-1-1-10.3-10.7-1-22.7,8.7-10.8,37.5-21.7,63.3-26,1-22,3.4-39,6.5-46.5,3.7-9,8.4-1,12.6,5,3.4,4.5,5.5,23.8,5.7,39.2,16.8-.8,27,.4,45.7,4,24.6,4.2,41,16.8,39.7,31-1.2,14-14,19.8-19,20.2-5,.4-13-3.3-13-3.3-5.6-2.6-.5-5,6-7.8,7.2-3.5,5.6-7,5.6-7-2.6-8-34.5-13.3-66.19-13.3,0,17.5.7,46.5,1.2,63.4,22.2,4.2,38.8,3.3,38.8,3.3,0,0,80.99-2.3,83.29-54,2.5-51.8-80.99-101.39-142.49-116.99C52.79,10.34,17.99,21.74,14.99,23.24c-3.3,1.6-.3,2.2-.3,2.2,0,0,3.3.5,9.3,2.5s1.2,5,1.2,5c-10.5,3.6-22.2,1.5-24.5-3.3-2.3-4.7,1.5-9,6-15.3,4.2-6.5,9-6.3,9-6.3,75.99-26.5,168.79,21,168.79,21,86.79,43.8,101.59,95.29,99.99,115.29-1.4,19.7-9,53-62.5,69.19M54.99,141.93c-8.6,4-2.6,10.4-2.6,10.4,16.2,17.3,36,28.2,55,35,2.2-30,2-40.7,2-55.8-29.4,2-46.4,6.8-54.4,10.4"/>
</svg>