<?xml version="1.0" encoding="UTF-8"?>
<svg id="Layer_1" data-name="Layer 1" xmlns="http://www.w3.org/2000/svg" viewBox="0 0 1097.79 455.73">
  <defs>
    <style>
      .cls-1 {
        fill: #fff;
      }
    </style>
  </defs>
  <path class="cls-1" d="M547.8,94.53h3.26c.03-7.88-1.07-15.16,3.44-22.12,3.15-4.86,8.07-6.04,12.34-9.43,18.14-14.42,9.74-31.66-9.08-39.3l2.01-8.54c-5.91-1.03-9.79,8.32-15.84,4.4-3.64-2.36-5.85-7.56-1.53-10.32,4.29-2.74,7.37-.41,11.92-.61.63-4.25-5.94-2.01-7.6-4.89,1.67-1.8,4.04-4.15,6.83-3.65,3.79.67,5.21,6.03,9.49,5.28l-3.26-4.89c7.39-2.16,10.77,6,9.91,12.4l6.41,2.83c-1.89,2.9-6.83-.1-5.42,4.34.39,1.23,3.58,1.68,4.21,3.41,1.66,4.58-2.91,3.07-2.04,5.3.35.89,2.86,2.53,3.75,3.87,6.87,10.3,5.31,20.7-2.68,29.84-5.07,5.8-14.05,7.73-17.63,13.93-2.63,4.55-4.94,14.07-1.41,18.16h52.82c-.69,4.47-2.85,9.1-3.28,13.59-1.9,20.02,1.63,42.92.05,63.13-.36,4.59-1.62,9.32-4.4,13.01-16.62,14.35-37.02,23.96-55.18,36.3l-49.73-30.51c-5.48-4.07-9.82-9.63-10.55-16.66-2.09-20.16,1.96-43.9.03-64.19-.47-4.97-2.99-9.66-3.28-14.67h62.08c.38-6.1.73-20.22-7.31-21.58-2.05-.35-4.23,1.83-5.75.38,4.66-4.81,8.9-8.92,14.18-2.2.74.94,3.24,5.9,3.24,6.55v16.86ZM498.8,101.06h-7.62v72.32c0,2.83,4.36,7.82,6.62,9.7,11.91,9.96,30.06,17.36,42.68,26.97,2.54,1.28,5.6,1.28,8.12,0,12.62-9.61,30.77-17.02,42.68-26.97,2.26-1.89,6.62-6.87,6.62-9.7v-72.32h-7.62v69.06c0,1.64-4.11,9.05-5.99,10.33l-39.37,23.73c-1.51.17-3.66-1.44-5.07-2.19-6.9-3.68-34.97-19.93-38.28-24.84-.53-.79-2.76-5.58-2.76-5.94v-70.15ZM587.01,101.06h-84.95v69.06c0,.29,1.92,4.67,2.31,5.3,2.11,3.41,26.54,17.61,31.8,20.45,1.72.93,7.35,4.1,8.73,3.95l37.68-22.15c1.37-1.38,4.42-8.17,4.42-9.72v-66.89Z"/>
  <path class="cls-1" d="M657.26,334.88c.37,0,1.83-2.06,2.72,1.08-4.64-.63-5.48,4.14-5.23,7.86l18.85,58.5,18.9-59.55c.56-2.03-2.08-4.74-3.6-5.77-1.62-1.1-3.97-.34-3.87-2.12h27.77c.25,0,1.46-2.07,1.64-.54v1.61c-5.45.77-4.69,5.65-4.08,10.08,1.74,12.69,10.51,40.76,15.03,53.5.42,1.17.46,2.61,2.11,2.78l19.59-56.12-2.13-6.45-8.74-4.86h27.77c.8,0,3.25-3.17,2.73,1.08-8.64.52-12.07,5.23-15.45,12.32-10.22,21.43-17.11,48.18-26.2,70.63-.69,1.7-3.43,9.44-4.64,9.49l-23.41-77.77-2.17-1.61-25.61,79.4c-2.12.66-2.17-2.42-2.71-3.8-9.77-24.93-15.98-54.8-26.7-78.85-1.35-3.03-3.71-6.89-6.46-8.77-1.62-1.11-3.97-.33-3.87-2.12,9.24.07,18.52-.09,27.77,0Z"/>
  <path class="cls-1" d="M66.98,334.88l1.48,1.78,2.32,17.8c-3.04-1.64-3.31-5.62-5.42-8.18-4.61-5.59-11.39-6.23-17.92-7.12-1.03-.14-2-1.01-2.25-1.01h-24.5v39.15h26.68c.91,0,6.11-2.76,7.14-3.75l4.3-7.13v26.1c-3.01-1.55-2.22-5.29-4.87-7.65-1.03-.92-6.72-3.23-7.66-3.23h-25.59v40.78l1.63,1.63h21.78c.25,0,1.22-.87,2.25-1.01,10.04-1.39,16.55-3.41,23.35-11.48,1.8-2.14,2.04-6.27,5.44-5.98-2.4,6.86-1.21,15.64-4.9,21.74H0c5.08-4.11,7.14-6.73,7.67-13.55,1.7-22.01-1.3-46.24-.12-68.49-.23-1.77-1.55-5.84-2.66-7.13-1.6-1.85-4.51-1.26-4.88-3.28h66.98Z"/>
  <path class="cls-1" d="M341.97,335.97v23.93c-3.31.55-1.69-.91-2.25-2.6-7.73-23.36-42.7-28.01-60.36-13.7-19.72,15.97-19.99,57.06-.47,73.31,17.63,14.68,44.73,9.37,64.72,2.81,1.83,2.82-3.41,4.05-5.15,4.65-42.11,14.62-95.2,4-88.97-50.78,2.79-24.54,23.51-40.1,47.27-41.98,15.85-1.25,29.81,3.06,45.21,4.36Z"/>
  <path class="cls-1" d="M828.78,365.34v9.78c1.95-.46,2.2-3.56,3.61-5.09,5.26-5.67,17.58-7.89,25-6.62,25.03,4.28,9.64,43.06,17.11,59.04l5.46,4.88h-27.23c2.87-2.95,5.8-4.74,6.49-9.29,1.09-7.23.94-31.61-.03-39.02-.56-4.29-3.57-9.69-8.14-10.36-12.12-1.78-20.77,4.83-22.17,16.9-.79,6.84-1.04,25.92-.05,32.48.23,1.55,1.7,4.87,2.71,5.99,1.68,1.86,4.45,1.29,4.87,3.3h-28.32l5.91-5.51c1.28-2.2,1.57-4.46,1.76-6.95.73-9.5,1.09-30.03-.13-39.12-.25-1.87-2.18-6.82-3.46-7.95-1.35-1.19-4.12-.55-4.08-2.47h20.69Z"/>
  <path class="cls-1" d="M425.82,426.25c.29,1.78-1.47,1.04-2.7,1.08-7.66.24-16.96,1.05-18-8.7-9.33,7.67-32.4,17.52-37.36.89-6.21-20.8,24.38-25.66,37.43-32.02-.54-7.78,2.77-18.76-7.36-20.84-4.44-.91-13.86,1.2-15.34,5.97s.52,12.64-6.28,13.31c-9.02.89-8.42-8.46-3.77-13.56,11.59-12.75,43.71-14.7,45.78,7.64,1.19,12.8-1.08,27.06.21,40.03,1.02,3.49,3.78,5.78,7.4,6.21ZM405.14,391.44c-10.54,2.53-25.13,8.38-25.14,21.21-.01,13.88,19.05,10.4,25.14,2.17v-23.38Z"/>
  <path class="cls-1" d="M193.31,334.88c.32-.04,1.45-2.07,1.64-.54v1.61c-4.46.68-7.02,6.32-7.55,10.42-3.08,23.72,9.67,70.87-20.18,81-11.84,4.02-36.95,3.96-44.66-7.7-6.04-9.14.48-21.42,9.63-16.13,9.89,5.72-.84,12.24-1.37,14.69-1.07,5,9.92,7.53,13.59,7.9,14.28,1.45,24.36-2.84,28.26-17.23,3.15-11.6,2.63-48.41,1.62-61.55-.19-2.49-.48-4.75-1.76-6.95l-5.91-5.51c8.48-.72,18.39.97,26.68,0Z"/>
  <path class="cls-1" d="M555.15,364.52c25.95-3.54,50.29,15.73,40.61,42.73-10.9,30.39-61.4,28.27-68.38-3.57-4.11-18.73,8.81-36.57,27.77-39.15ZM548.15,372.2c-11.56,10.78-10.64,45.05,5.42,52.08,35.46,15.52,41.45-57.69,8.94-57.69-3.96,0-11.43,2.88-14.36,5.61Z"/>
  <path class="cls-1" d="M1057.49,365.34c-.63,1.95-2.77,1.54-4.22,3.94-2.14,3.53-.63,7.28.74,10.96,2.76,7.42,8.31,18.82,11.97,26.11.51,1.02,1.1,2.38,2.39,2.5l10.88-33.26-2.65-5.94-7.13-4.3h28.32l-8.18,4.34c-2.49,2.22-4.33,4.22-5.84,7.22-8.11,16.06-13,39.76-20,57.24-5.21,12.99-12.74,26.16-29.37,20.05-8.43-3.1-9.61-16.56-1.31-17.08,7.4-.46,4.98,9.49,7.23,11.72,14.13,6.5,18.11-13.2,21.29-22.98l-26.07-53.28c-.91-1.36-3.42-4.27-4.67-5.12-1.62-1.11-3.97-.33-3.87-2.12h30.49Z"/>
  <path class="cls-1" d="M907.2,392.52c-.59,11.26,3.67,26.72,15.45,30.8,7.95,2.75,19.18,1.3,25.4-4.68,2.14-2.06,3.09-5.06,4.69-7.28.98-1.36,1.16-3.01,3.46-2.52-1.53,19.49-29.58,23.5-44.3,17.59-17.96-7.21-23.36-29.19-15.09-45.92,10.53-21.31,44.08-23.61,57.05-3.59,2.55,3.94,5.51,11.98,1.8,15.6h-48.46ZM943.14,388.17c-.62-29.58-33.11-27.39-35.94,0h35.94Z"/>
  <path class="cls-1" d="M505.33,318.57v99.51c0,2.28,4.73,8.19,7.62,8.17v1.08s-28.31,0-28.31,0l5.94-5.49,1.64-3.8.08-80.46c-.37-5.54-4.85-8.54-9.83-9.75l22.87-9.25Z"/>
  <path class="cls-1" d="M469.4,54.29l10.34-9.77c3.65,2.82,3,10.67,8.08,9.83.52.34-.25,4.36.07,5.79.21.96,2.01,0,2.28,2.23.62,5.2-1.71,7.16-2,10.01-.32,3.07,3.04,5.04-2.13,7.77-6.25,3.3-11.67-1.61-17.72-3.01-1.63,11.69-4.78,13.62-16.32,10.85l-.11-5.33c-1.96-.3-4.57-.52-5.83-2.24-.42-.58-3.76-9.51-3.85-10.46-.33-3.32,1.19-5.92,1.06-9.14l11.97,5.43c-1.36-4.64-10.71-5.81-11.8-9.43-.85-2.83,1.9-16.83,4.87-17.67s8.84,4.53,11.62,5.64c1.4.56,2.8-.33,3.96.26,2.54,1.26,5.02,6.44,5.51,9.26ZM474.83,59.73c-2.6,1.07-4.91,9.42-8.15,8.7-4.02-4.45-2.46-10.87-2.74-16.31-1.91-.31-.64,1.64-1.41,2.95-.28.48-2.9.64-1.85,3.58l-4.35-1.09c.95,2.78,4.51,3.22,5.95,5.47s1.98,6.26,3.85,8.65l-11.98-1.07c.05,1.76,3.37,1.5,4.95,2.12,1.14.45,2.53.73,2.67,2.22-1.52-.16-2.9.22-4.36.55-1.23.28-3.54.03-3.26,1.63,2.48.29,4.7-.83,7.1-1.09,4.29-.47,6.86-2.06,8.74-2.17,2.18-.13,4.6,1.63,7.02,1.08l-2.17-2.16,7.61-2.19c.23-2.03-2.23-.9-3.33-.61-3.25.87-5.96,2.5-9.73,1.7-1.29-1.12,4.59-6.86,6.47-6.62l-1.04-5.34Z"/>
  <path class="cls-1" d="M459.58,213.08c.29,8.07-10.6,22.67-2.15,28.8l86.55,39.78,6.75-2.04,81.77-38.51c4.4-9.51-2.02-18.83-4.1-28.02,8.72,1.43,17.54,1.86,26.15-.53l10.87-5.99c1.34,5.2-5.04,7.22-9.05,8.9-6.69,2.81-14.24,4.47-21.45,5.24-.19,1.26.06,2.1.58,3.23.75,1.65,8.83,14.71,8.14,15.24l-98.63,48.96-99.58-48.96,8.71-18.48c-7.61-.83-17.79-2.95-24.71-6.32-3.25-1.59-6.81-3.57-5.77-7.82,10.12,8.53,23.41,8.92,35.93,6.53Z"/>
  <path class="cls-1" d="M641.4,39.12c2.44,5.64,3.98,11.53,4.33,17.72l-14.07,10.49c4.13-.7,7.8-3.64,11.43-5.45.85-.42,1.06-1.96,2.19,0,.88,1.53.86,9.37.51,11.41-.33,1.89-1.69,2.71-2.4,4.16-.57,1.18-.6,3.36-1.05,3.81-.69.71-4.52.6-5.08,1.47-.62.94.46,3.48-1.22,4.75-3.06,2.33-10.69,2.26-13.18-1.04-1.85-2.45-.38-7.22-3.71-9.22-5.22,2.5-12.35,6.66-17.47,2.1-4.16-3.7-1.05-4.35-.89-6,.13-1.35-2.94-6.91-1.82-11.83.2-.87,2.02-.51,2.21-1.37.3-1.36-.44-5.47.07-5.79l2.97-.2c.65-2.92,1.72-6.49,4-8.58,1.49-1.37.82-1.12,2.2.01,3.22,2.65,5.62,6.49,9.25,8.71-.23-3.09,2.38-7.2,4.89-8.79,1.4-.89,2.58.08,3.74-.48,2.32-1.12,11.1-7.31,13.09-5.89ZM626.22,55.39l-1.09-3.27c.11,5.84.29,12.81-3.82,17.38l-8.16-11.94.51,7.66c2.25,1.69,6.08,3.1,6.01,6.47l-10.88-1.08,5.44,2.18-2.17,2.16c2.42.55,4.84-1.21,7.02-1.08,2.54.15,4.16,2.69,5.46,2.82,1.5.14,4.07-1.22,6.02-.65l-3.26-1.09c-1.23-1.04,6.1-3.78,7.62-3.26.21-2.04-2.31-.95-3.51-.79-2.78.37-5.43,1.37-8.46.8,1.38-6.76,5.54-10.85,10.88-14.68l-6.53,1.63,2.18-4.34-3.26,1.09Z"/>
  <path class="cls-1" d="M461.77,333.8v85.37c0,2.34,5.02,6.37,6.53,8.16h-27.23c4.02-3.6,6.79-5.66,7.55-11.5-1.02-19.41,1.62-40.59.12-59.79-.35-4.44-.97-8.86-5.09-11.23-2.23-1.28-5.51-.33-4.76-3.39l22.87-7.62Z"/>
  <path class="cls-1" d="M991.06,365.34v11.96s5.98-8.71,5.98-8.71c11.18-9.49,30.45-6.88,26.47,11.21-1.27,5.79-6.86,6.35-11.52,3.79-2.35-4.92.66-9.67-.3-14.92-12.28-3.43-19.68,12.04-20.64,22.22-.63,6.67-.65,19.47,0,26.12.57,5.94,2.64,6.63,6.55,10.32h-27.23l5.46-4.88c1.11-1.61,1.82-3.6,2.08-5.54,1.19-8.91.9-29.84.13-39.12-.22-2.65-.88-6.34-2.35-8.53-1.73-2.58-4.53-1.71-5.32-3.93h20.69Z"/>
  <path class="cls-1" d="M483.55,205.47c.87,4.29-6.72,10.41-3.29,13.61,11.53,4.76,22.9,10.01,34.59,14.4,6.43,2.41,23.56,9.49,29.33,9.71,4.62.18,21.29-6.6,26.78-8.63,12.76-4.71,25.23-10.39,37.83-15.52.86-.64,1.18-.85.98-2-.3-1.75-5.83-10.02-4.24-11.58,4.71.28,9.81-.53,14.45.24,4.61.77,10.5,3.77,5.72,8.48-26.19,14.43-54.31,25.4-81.53,37.82-21.3-10.1-43.42-18.7-64.64-28.95-4.15-2-10.97-4.82-14.44-7.33-12.98-9.4,12.48-11.79,18.45-10.27Z"/>
  <path class="cls-1" d="M143.76,353.37c-.61,2.25-3.25,2.02-4.92,3.24-6.19,4.55-6.05,17.25-11.46,23.41,3.17,5.36,8.1,9.75,13.97,12.24,1.62.69,2.97-.68,2.41,2.43-7.32-.05-17.28.87-21.25-6.55-9.04,7.18-23.66,10-32.67,1.13-11.11-10.93-1-24.89,10.45-30.03-.81-5.22-5.46-9.03-3.97-14.59,2.85-10.67,22.54-12.24,23.55-2.74.92,8.71-3.96,9.79-9.82,14.17l14.13,21.22c2.69.41,3.63-2.67,4.54-4.69,1.81-4.04,3.61-11.13.32-14.85-1.65-1.86-5.08-1.75-5.96-4.38h20.69ZM107.46,338.33c-1.78.54-3.96,3.96-3.95,5.79s3.75,9.34,5.94,9.31c5.72-.07,10.6-18.9-1.99-15.1ZM119.8,387.07c.2-1.43-.57-2.48-1.26-3.61-4.35-7.13-11.3-14.04-15.6-21.44-.88-1.63-3.8.75-4.57,1.5-7.47,7.31-5.41,18.45,2.96,24.07,5.07,3.4,13.15,1.74,18.46-.51Z"/>
  <path class="cls-1" d="M462.61,130.69c.53.68.22,2.25,1.34,3.5,1.22,1.37,5.03,2.76,6.03,4.96.66,1.45-.77,2.87-.11,4.3.98,2.12,5.76,3.21.53,4.97l1.17,9.19-11.98-2.18c-.48,2.01.63,4.24.57,6s-5.23,10.46-6.62,12.42c-.76,1.07-2.72,3.52-4.11,3.21-.54-.12-8.11-5.6-8.91-6.4-6.25-6.22,1.94-10.28,1.64-17.41l-4.6,6.87-.88,2.89c-5.66.75-9.9-10.27-9.37-14.71.16-1.3,2.57-2.19,2.82-3.33l-2.06-4.09c6.42-8.46,10.72-7.29,17.92-.72,1.99-4.28,12.1-15.32,16.62-9.47ZM453.18,140.05l-.66-2.01c-3.24,4.96-5.28,3.52-9.62,4.35-.78.15-1.01,2.74-2.91,2.18l2.13,1.13-1.04,3.21,6.52-3.26c-.67,2.77,1.16,5.61,1.06,8.07-.14,3.33-2.97,6.03-3.22,9.33l4.9-6.52.55,6.52,1.34-4.17,1.91-.19c-1.25-1.75-6.8-10.6-5.44-11.95l11.98,3.25-3.26-2.18,2.17-2.16c-3.25-.39-7.43,1.28-9.78-1.64,2.3-2.21,5.48-3.69,8.69-3.81-.07-2.8-5.01.14-5.32-.15Z"/>
  <path class="cls-1" d="M652.37,163.05l-5.45-8.7,4.23,12.3c-3.71,4.37-7.7,8.93-13.43,10.6-.85.01-4.14-7.88-5.1-9.2-1.04-1.42-2.78-1.51-3.47-3.07-1.62-3.69.07-5.93.34-9.54-4.12,1.79-8.58,2.52-13.06,2.17l2.15-9.31-2.22-1.04c-.16-3.35,3.04-3.69,3.18-3.92.24-.4-1.14-2.06-.81-3.46.6-2.58,5.75-4.57,6.87-6.17.39-.56-.36-1.88.57-2.71,7.72-6.99,15.46,9.17,16.94,9.14,5.65-4.98,9.66-8.21,15.82-1.58,3.77,4.06-.28,4.69.03,6.43l2.95,3.39c-2.26,1.69-.69,3.56-1.07,5.17-.8,3.39-4.73,9.1-8.46,9.51ZM646.66,142.68c-1.66-.78-3.74.04-5.55-.48-2.35-.68-2.75-4.64-7.26-1.99l5.43,3.8c-2.35,2.92-6.54,1.25-9.79,1.64,1.38,2.17.34,3.1-2.17,3.27-.3,1.73,1.47,1.2,2.51.88,3.47-1.06,6.16-4.2,10.55-3.06.35,2.82-5.19,10.47-5.11,11.41.1,1.16,3.42,5,1.85,8.16,1.89.26,1.05-2.49,1.08-3.8.05-2-.04-4,0-5.99l4.34,5.43c.39-3.13-2.15-5.08-2.26-8.16-.1-2.77,1.5-5.34,1.18-8.15,1.44-1.61,7.01,6.33,8.7,6.52l-3.26-6.52,2.17-1.08c-1.78.59-2.15-1.76-2.42-1.89Z"/>
  <path class="cls-1" d="M679.38,49.13c.43.63-.05,2.08.4,2.72.59.86,4.45,1.07,6.25,4.25,1.09,1.93-.03,3.49.6,4.66.54,1.01,2.57,2.05,2.55,2.76-.01.57-1.86,1.48-1.81,3.07.06,1.78,2.53,4.44,1.94,6.61-2.47,3.85-7.03-.24-10.83.66,1.06,6.96-2.92,13.36-6.32,19.27-.51.89.41,1.89-1.72,1.29-2.28-.65-10.9-7.23-11.43-9.34-.83-3.26,4.21-8.42,3.13-12.3l-4.36,8.7c-6.15-1.37-6.56-6.3-7.91-11.15-.82-2.98-3.19-1.76,1.33-5.84l-2.06-4.09c5.55-7.34,8.76-8.05,15.74-1.81,1.18,0,5.22-10.75,10.87-10.76.81,0,3.26.75,3.62,1.29ZM675.22,57.56c-5.08-.69-9.65,3.58-14.09,5.97l1.03,2.72,4.34-2.17c1.93,5.21,1.07,9.99.02,15.22l2.18-4.34,2.29,3.18,3.15-1.02c-3.17-3.5-5.03-7.5-6.53-11.95l8.71,1.08c.53-3.33-.84-1.73-2.7-2.15-1.08-.25-4.41-.7-4.92-1.12-2.81-2.3,7.07-3.59,6.53-5.42Z"/>
  <path class="cls-1" d="M422.57,58.64c4.89-.2,6.47-6.58,11.97-3.8,1.15.58,4.72,4.7,5,5.94.33,1.48-1.92,2.27-1.6,3.66.22.95,1.83,1.58,1.8,3.2-.1,5.49-2.62,10.37-6.86,13.84-3.22.71-3.57-9.07-7.05-9.78l3.92,13.08c-2.38,4.92-7.67,7.06-12.11,9.67l-7.7-14.01.64-6.55-10.88,1.08c-.23-3.22.3-6.57,2.18-9.28l-1.95-.68-.17-1.37c.44-2.55,2.86-2.79,2.98-2.97.18-.26-1.52-2.81,1.29-5.84,1.72-1.86,4.86-2.34,5.29-2.85.2-.23-1.77-3.15,3.15-4.03s9.54,6.4,10.11,10.71ZM431.27,59.73c-2.52-.72-4.44,1.94-6.61,1.68-3.44-.41-4.84-3.4-7.53-4.95l-1.02,3.15,4.28,3.37c-3.42,1.17-8.22.29-9.8,4.35l9.8-2.16c1.29,5.01-3.88,8.08-5.44,11.42-.23.49,2.94.62,2.19,2.71l1.08-4.35,3.26,2.17c-.81-3.44-1.11-8.76.54-11.97,1.37-2.69,4.51,3.43,6,3.28l-1.09-6.52c1-.73,5.35,1.71,4.36-2.18Z"/>
  <path class="cls-1" d="M657.05,92.02c1.6,1.42,4.59,2.57,5.65,4.75.47.97-.13,2,.04,2.61,1.07,3.69.64,3.09.87,6.37.16,2.3,1.25,4.73.72,7.27l-10.88-2.18c.41,3.29,1.56,5.74-.07,8.99-.47.93-1.68.85-2.1,1.56-1.79,3.01-2.97,6.72-5.99,8.86-3.04-2.1-10.07-6-10.98-9.54-.62-2.42,4.8-7.61,3.87-10.95l-5.98,8.68c-5.28-3.82-6.22-8.45-7.16-14.58l2.32-1.24c-3.54-5.84,3.48-10.73,9.01-9,1.93.61,2.74,3.86,5.53,3.02,1.65-.5,4.55-8.26,9.98-8.67,4-.3,3.51,2.58,5.16,4.04ZM649.09,98.87l-1.63-3.25c-2.57,4.16-6.95,3.38-10.33,5.98l1.08,2.72,4.34-2.17c1.87,4.63.91,8.4.02,13.05l3.25-3.26v6.52s1.36-4.17,1.36-4.17l1.92-.71-5.44-10.33,9.8,2.16-1.78-3.31-6.92.05c-.79-2.93,2.37-2.73,4.35-3.27Z"/>
  <path class="cls-1" d="M446.54,97.79c6.55-4.73,10.82-7.21,16.26.67l-1.94,3.14c5.65,4.56.74,12.9-3.99,16.84l-5.98-8.68c-.25,6.11,6.48,9.05,1.01,14.61-.96.98-9.39,6.53-9.71,6.06-1.26-2.38-2.94-7.14-4.32-9.04-.81-1.11-2.7-1.1-3.18-2.5-.97-2.85.67-5.31.94-8.04l-10.88,2.18,1.02-8.24-2.03-.52-.08-1.56c3.61-1.76,1.86-4.55,3.16-6.54s4.72-3.28,5.29-4.12c.91-1.33-.52-3.93,4.17-4.04,4.1-.09,9.49,5.7,10.26,9.79ZM451.95,101.1c-.19-.26-4.8-1.25-6.2-1.99-1.9-1-2.87-2.63-4.67-3.49l-1.1,3.25,4.35,1.64c-1.86,2.54-4.94,1.3-7.49,1.77l-1.22,3.12,8.71-2.16c.66,4.18-2.22,7.14-4.36,10.34l2.22,1.19-.03,5.86c1.9.25,1.03-2.48,1.08-3.8.06-1.63-.05-3.28,0-4.9l3.25,4.34c-.42-3.85-2.01-8.53-.96-12.39,1.25-4.59,5.63,4.27,7.51,2.6-3.03-2.05-.92-5.14-1.1-5.39Z"/>
  <path class="cls-1" d="M785.22,365.34v53.83c0,3.51,4.78,5.74,6.53,8.16h-27.23l5.29-5.05c1.48-2.72,2.14-5.4,2.38-8.5.72-9.31,1.04-29.09-.12-38.03-.25-1.93-1.51-5.6-2.66-7.13-1.94-2.58-4.27-1.2-4.89-3.28h20.69Z"/>
  <path class="cls-1" d="M532.57,67.34c-2.9-14.82-23.64-16.74-29.66-2.96-.81,1.86-.13,5.04-1.93,5.14-3.5-17.71,18.74-26.82,29.42-12.53,1.23,1.65.98,4.31,3.24,4.92-.65-17.27-19.4-25.6-30.48-10.88,2.52-15.31,23.54-17.47,30.35-3.67l3.4,10.19c2.14-21.76-21.21-37.36-37.01-18.49,5.18-17.27,27.5-20.62,37.24-5.11,6.7,10.68,5.48,25.38-4.56,33.38Z"/>
  <path class="cls-1" d="M346.33,384.91c-1.12,2.4-3.86,2.55-5.32,5.02-3.72,6.31-3.02,19.87-.12,26.51l-15.25,3.27v-26.65c0-2.11-5.77-7.49-8.72-5.99v-2.17h29.41Z"/>
  <path class="cls-1" d="M607.7,244.62l-24.65,12.89-38.88,18.43-66.07-31.88c2.39-1.1,6.27,1.22,8.7,2.19,19.25,7.71,38.03,16.73,57.39,24.21,19.95-7.18,38.94-17.17,58.77-24.61,1.55-.58,2.8-1.66,4.74-1.24Z"/>
  <path class="cls-1" d="M607.7,233.75l-9.4,5.28-54.3,24.16-60.45-27.81c.76-1.48,2.97-.03,4.03.33,18.84,6.39,37.54,15.99,56.4,22.64l63.72-24.59Z"/>
  <path class="cls-1" d="M604.44,204.37c-1.12-1.12,4.93-6.82,5.98-7.62,4.63-3.47,15.05-6.85,20.79-7.51,8.76-1.01,14.03,3.63,11.34-8.79,4.15-.85,23.9,1.58,19.11,8.74-3.26,4.87-21.48,2.75-27.28,3.21s-12.21,2.24-17.26,4.52l-12.68,7.45Z"/>
  <path class="cls-1" d="M446.52,180.45c-2.9,12.15,1.95,7.68,10.24,8.8,7.83,1.06,17.62,3.69,23.54,9.12,1.86,1.71,3.76,3.09,3.24,6-8.18-6.69-18.16-11.05-28.85-11.97-6.57-.56-22.07,1.73-26.71-2.69-7.28-6.93,14.37-10.77,18.54-9.27Z"/>
  <path class="cls-1" d="M569.33,40.42c5.25,5.26.67,14.79-1.94,20.39h-2.16s2.17-9.78,2.17-9.78c-2.96,2.09-7.36,9.53-10.35,10.87-.47.21-1.79.27-1.62-.53,1.25-1.2,6.46-8.22,5.44-9.24-4.42,1.01-8.23,4.09-13.06,3.25l9.29-5.39,7.17-10.8c.87-.61,4.27.45,5.06,1.24Z"/>
  <path class="cls-1" d="M772.39,352.05c-3.32-3.18-1.47-10.34,3.79-11.51,12.03-2.67,11.67,14.31,2.13,13.63-.89-.06-5.4-1.62-5.93-2.12Z"/>
  <path class="cls-1" d="M90.05,416.72c5.48-.23,7.5,7.52,2.54,10.08-7.93,4.11-12.24-9.67-2.54-10.08Z"/>
  <path class="cls-1" d="M201.23,425.99c-3.84,3.84-12.38.17-9.02-6.3,3.77-7.26,14.61.72,9.02,6.3Z"/>
  <path class="cls-1" d="M664.33,197.85l-.15,5.29c-9.41,4.32-18.79,6.56-29.25,5.58l16.3-3.83,13.1-7.03Z"/>
  <path class="cls-1" d="M555.35,31.53c1.52,1.05,1.28,8.66.66,10.84-.48,1.69-5.36,9.41-7.11,7.57.38-2.97,3.09-4.99,3.25-8.26s-2.98-5.3-2.08-8.48c.52-1.84,4.26-2.38,5.29-1.67Z"/>
  <path class="cls-1" d="M454.14,207.65c.26,1.89-2.49,1.05-3.8,1.08-6.58.16-11.96-.41-18.23-2.46-5.02-1.65-8.58-2.14-7.36-8.41,8.51,6.39,18.67,9.9,29.39,9.8Z"/>
  <path class="cls-1" d="M663.24,191.33c.39,3.81-.07,4.52-3.26,5.98-6.58,3.02-14.6,4.28-21.78,3.79l13.37-3.5,11.67-6.28Z"/>
  <path class="cls-1" d="M450.87,200.03c.27,1.87-2.52,1.07-3.8,1.08-4.78.03-9.65-.63-14.21-2.13-3.95-1.3-8.1-2.66-7.02-7.66,3.52.84,4.74,3.56,8.41,5.19,4.83,2.15,11.36,3.62,16.63,3.51Z"/>
  <path class="cls-1" d="M544.54,111.93l1.09,7.61-7.29-5.21c-2.49.65-14.49-2.78-14.49.33v15.77c3.98-.42,10.19,1.1,13.53-1.18,1.45-.99,1.57-4.22,2.81-2.63v10.33s-4-4.16-4-4.16l-12.34-.19v15.23l9.49-6.29c9.86-3.92,18.6-1.83,28.59-.2l.03,10.84h-16.34c7.3,8.85,19.51,4.63,20.71-7.05.48-4.69.68-25.35-.5-28.9-.57-1.7-2.22-2.69-2.79-4.28h11.98c-.54,1.47-1.85,1.96-2.17,3.8-2.13,12.01,5.51,37.1-9.79,42.42-4.98,1.73-10.03,1.55-14.96-.32-3.29-1.25-5.89-4.98-7.58-5.48-3.08-.92-7.85.19-11.21-.16-3.57,13.57,1.48,27.24,16.86,28.27,5.44.36,10.42-2.15,15.78-2.19l-6.48,2.77c-19.83,5.63-40.59-6.36-33.82-28.87h-7.62c.19-1.45,2.13-2.09,2.72-3.27,1.08-2.15.92-26.84.56-31.02-.11-1.26-.36-3.19-1.05-4.18-.73-1.04-2.62-.03-2.24-1.77h30.49ZM544.54,149.99c5.08.17,10.69.5,14.14-3.8-3.67-5.23-11.83-5.9-17.73-4.66-2.24.47-11.45,6.66-9.48,8.47h7.62c-1.08-5.34,2.13-9.29,6.48-4.77l-1.04,4.77Z"/>
  <path class="cls-1" d="M563.05,163.06l-2.22,1.75v12.35s-4.9.9-4.9.9c-2.91-.22-1.06-10.76-1.54-13.25l-2.22-1.75h10.88Z"/>
  <path class="cls-1" d="M551.06,121.72c.45,3.56.34,10.57,5.45,8.7-1.65,3.6.5,3.82,2.18,6.52-4.73-1.52-9.45,1.28-14.03-1.21l1.51-7.47c3.11-.44.28,1.73.48,3.77.29,2.98,4.29,5.63,6.57,2.2-2.51-3.35-11.75-12.24-2.17-12.51Z"/>
</svg>