<?xml version="1.0" encoding="UTF-8"?>
<svg id="Layer_1" xmlns="http://www.w3.org/2000/svg" version="1.1" viewBox="0 0 961.2 328.7">
  <!-- Generator: Adobe Illustrator 29.2.1, SVG Export Plug-In . SVG Version: 2.1.0 Build 116)  -->
  <defs>
    <style>
      .st0 {
        fill: #fff;
      }
    </style>
  </defs>
  <path class="st0" d="M414.1,172.3c0,43.7-34.2,75.9-76.2,75.9s-76.2-32.2-76.2-75.9,34.2-75.9,76.2-75.9,76.2,31.9,76.2,75.9ZM380.7,172.3c0-27.3-19.8-46-42.8-46s-42.8,18.7-42.8,46,19.8,46,42.8,46,42.8-19,42.8-46Z"/>
  <path class="st0" d="M578.4,172.3c0,43.7-34.2,75.9-76.2,75.9s-76.2-32.2-76.2-75.9,34.2-75.9,76.2-75.9,76.2,31.9,76.2,75.9ZM545.1,172.3c0-27.3-19.8-46-42.8-46s-42.8,18.7-42.8,46,19.8,46,42.8,46,42.8-19,42.8-46Z"/>
  <path class="st0" d="M735.9,101v136.3c0,56.1-33.1,79-72.2,79s-59-24.6-67.3-44.7l29-12.1c5.2,12.4,17.8,26.9,38.2,26.9s40.5-15.4,40.5-44.5v-10.9h-1.2c-7.5,9.2-21.8,17.3-40,17.3-38,0-72.7-33.1-72.7-75.6s34.8-76.2,72.7-76.2,32.5,8,40,17h1.2v-12.4h31.7ZM706.6,172.6c0-26.7-17.8-46.3-40.5-46.3s-42.3,19.5-42.3,46.3,19.3,45.7,42.3,45.7,40.5-19.3,40.5-45.7Z"/>
  <path class="st0" d="M788.1,21.1v222.5h-32.5V21.1h32.5Z"/>
  <path class="st0" d="M914.8,197.3l25.9,17.3c-8.4,12.4-28.5,33.7-63.3,33.7s-75.3-33.3-75.3-75.9,32.5-75.9,71.6-75.9,58.7,31.4,65,48.3l3.5,8.6-101.5,42c7.8,15.2,19.9,23,36.8,23s28.8-8.4,37.4-21h0ZM835.2,170l67.9-28.2c-3.7-9.5-15-16.1-28.2-16.1s-40.5,15-39.7,44.3Z"/>
  <path class="st0" d="M138.6,152.6v-32.2h108.6c1.1,5.6,1.6,12.3,1.6,19.4,0,24.2-6.6,54.1-27.9,75.3-20.7,21.6-47.2,33.1-82.2,33.1-65,0-119.6-52.9-119.6-117.9S73.7,12.4,138.7,12.4s61.6,14.1,80.8,32.5l-22.7,22.7c-13.8-12.9-32.5-23-58.1-23-47.4,0-84.6,38.2-84.6,85.7s37.1,85.7,84.6,85.7,48.3-12.4,59.5-23.6c9.1-9.1,15.1-22.1,17.5-39.9h-77Z"/>
</svg>