<?xml version="1.0" encoding="UTF-8"?>
<svg id="Layer_1" xmlns="http://www.w3.org/2000/svg" version="1.1" viewBox="0 0 168.88 55.25">
  <!-- Generator: Adobe Illustrator 30.2.1, SVG Export Plug-In . SVG Version: 2.1.1 Build 1)  -->
  <polygon points="0 0 55.25 0 55.25 55.25 0 55.25 0 0"/>
  <polygon points="67.53 21.51 70.8 21.51 70.8 26.2 74.68 26.2 74.68 21.51 77.96 21.51 77.96 33.78 74.68 33.78 74.68 28.52 70.8 28.52 70.8 33.78 67.53 33.78 67.53 21.51"/>
  <path d="M82.84,30.18c0-.88.42-1.32,1.11-1.69.93.86,1.85,1.74,2.73,2.7-.61.46-1.13.68-1.86.68-.99,0-1.97-.64-1.97-1.69h0ZM89.41,27.13c-.03.79-.24,1.6-.81,2.22-.69-.67-1.4-1.32-2.12-1.95,1.31-.76,2.64-1.55,2.64-3.1,0-2.29-2.11-3.03-4.26-3.03-1.93,0-4.09.77-4.09,2.94,0,1.08.5,1.92,1.49,2.7-1.52.71-2.42,1.64-2.42,3.35,0,2.54,2.31,3.74,4.65,3.74,1.34,0,2.77-.22,3.82-1.15.27.28.49.6.74.93h3.51l-2.18-2.43c1.14-1.13,1.81-2.64,1.89-4.21h-2.86ZM83.6,24.36c0-.62.54-1.09,1.31-1.09s1.37.37,1.37,1.09c0,.81-.9,1.31-1.5,1.66-.49-.39-1.18-.95-1.18-1.66h0Z"/>
  <path d="M97.24,23.8h.87c1.24,0,2.39.21,2.39,1.36,0,1.39-1.34,1.42-2.39,1.42h-.87v-2.78h0ZM93.97,33.77h3.27v-4.87h.69c1.21,0,1.64.53,2.31,2.65l.71,2.22h3.41l-1.19-3.35c-.62-1.49-.69-2.43-1.74-2.71v-.03c1.58-.37,2.36-1.46,2.36-3.1,0-2.11-1.77-3.1-3.96-3.1h-5.85v12.3h0Z"/>
  <path d="M114.39,28.56h1c1.13,0,2.42.12,2.42,1.47,0,1.25-1.25,1.42-2.45,1.42h-.97v-2.89h0ZM111.11,33.77h5.18c2.21,0,4.8-.62,4.8-3.56,0-1.49-.85-2.38-2.48-2.71v-.04c1.37-.45,2.16-1.32,2.16-2.87,0-2.12-1.7-3.12-4-3.12h-5.66v12.3h0ZM114.39,23.8h.95c1.09,0,2.15.1,2.15,1.23,0,1.04-1.11,1.3-2.18,1.3h-.92v-2.53h0Z"/>
  <polygon points="122.95 21.48 126.23 21.48 126.23 31.34 131.3 31.34 131.3 33.77 122.95 33.77 122.95 21.48"/>
  <path d="M135.1,27.63c0-2.13.79-3.93,2.78-3.93s2.79,1.8,2.79,3.93-.8,3.93-2.79,3.93c-1.99,0-2.78-1.9-2.78-3.93h0ZM131.72,27.63c0,3.9,2.15,6.36,6.16,6.36s6.17-2.45,6.17-6.36-2.12-6.36-6.17-6.36c-4.05,0-6.16,2.41-6.16,6.36h0Z"/>
  <path d="M156.05,33.49c-.93.23-1.98.5-3.65.5-3.27,0-7.06-1.65-7.06-6.31,0-4.28,2.99-6.41,7.04-6.41,1.26,0,2.47.28,3.65.63l-.26,2.66c-1.06-.58-2.08-.86-3.2-.86-2.33,0-3.85,1.69-3.85,3.98,0,2.41,1.71,3.87,4.11,3.87,1.08,0,2.17-.28,3.06-.64l.16,2.57h0Z"/>
  <polygon points="157.57 21.5 160.82 21.5 160.82 26.52 160.86 26.52 164.63 21.5 168.53 21.5 164.04 27.22 168.88 33.77 164.76 33.77 160.86 28.18 160.82 28.18 160.82 33.77 157.57 33.77 157.57 21.5"/>
</svg>