<?xml version="1.0" encoding="UTF-8"?>
<svg id="Layer_1" data-name="Layer 1" xmlns="http://www.w3.org/2000/svg" viewBox="0 0 688.44 231.05">
  <defs>
    <style>
      .cls-1 {
        fill: #fff;
      }
    </style>
  </defs>
  <path class="cls-1" d="M197.85,0c-1.88,37.86,4.54,78.94-5.28,115.76-8.74,32.77-31.02,64.09-55.63,86.96-4.99,4.64-33.79,28.48-38.48,28.33-5.35-.18-39.5-31.05-44.94-36.8C-1.53,136.07-2.13,80.55,1.06,3.44c-.22-1.02.72-3.44,1.55-3.44h195.24ZM192.86,4.98H6.11c4.25,33.58-3.57,71.03,4.07,104.02,8.64,37.32,36.17,74.06,64.83,98.7,2.92,2.51,21.46,17.31,23.47,17.37,3.37.11,23.12-15.68,26.95-18.91,29.55-24.92,55.69-60.26,63.95-98.58,7.1-32.93,1.84-69.02,3.49-102.61Z"/>
  <path class="cls-1" d="M245.79,67.74h33.96v-19.42c0-5.05-6.35-2.86-4.98-7.47.35-.5,1.28,1,1.49,1h15.98c.21,0,1.14-1.49,1.49-1,.72,4.53-3.31,2.25-4.03,7.43-.67,4.83-.76,48.19.55,50.34.82,1.35,4.09,1.31,3.49,3.99h-18.97v-1.48c1.84-1.13,4.99-3.74,4.99-5.99v-21.42h-33.96v24.4c0,1.71,6.47,1.79,4.99,4.48h-19.97c-.48-3.04,3.31-2.41,4.48-5,.57-1.26.45-2.17.57-3.41,1.03-10.41,1.07-34.57-.06-44.9-.13-1.2-.28-2.81-.91-3.8-1.24-1.94-4.92-.46-4.08-3.65h17.48c.17,0,2.54-1.95,2.48.5-.02.68-4.97,3.02-4.97,3.98v21.42Z"/>
  <path class="cls-1" d="M626.29,102.6c-1.76-1.39.65-1.79,1.3-2.23,3.52-2.35,4.22-.89,4.75-6.18.98-9.68,1.18-36.5-.15-45.82-.73-5.13-3.5-2.93-5.9-6.52,13.11.86,26.21-2.91,39.17.26,26.21,6.43,31.04,40.77,9.1,55.34-1.93,1.28-11.02,5.15-12.82,5.15-4.68,0-34.06,1.1-35.45,0ZM642.27,97.62h16.48c.38,0,6.1-2.44,7.03-2.95,14.82-8.27,15.74-34.82,2.4-44.3-1.17-.83-8.64-4.55-9.42-4.55h-16.48v51.8Z"/>
  <path class="cls-1" d="M560.37,102.6c-.48-3.04,3.31-2.41,4.48-5,.57-1.26.45-2.17.57-3.41,1.46-14.71-1.18-31.86-.09-46.85,1.19-2.69-7.27-3.73-4.96-5.5.54-.41,11.27.16,13.52.04,8.77-.48,13.63-2.17,22.7,1.18,12.07,4.45,14.45,18.77,4.21,26.66-.87,2.02-8.33,2.37-7.47,4.48.36.89,3.36,3.19,4.4,4.58,4.14,5.51,7.69,11.5,12.06,16.86l8.49,6.45c-1.02,2.12-6.36,1.73-8.48,1.51-16.19-1.68-17.72-28.39-34.45-28.88v22.41c0,1.31,5.94,3,4.99,5.48h-19.97ZM575.35,70.72c11.14.2,21.61.46,21.02-13.48-.52-12.33-11.3-11.86-21.02-11.42v24.9Z"/>
  <path class="cls-1" d="M373.62,102.6c-2.12-1.67,3.89-2.94,4.51-3.97,2.83-4.68-1.12-42.98.46-51.29,1.19-2.68-7.27-3.73-4.96-5.5.54-.41,11.27.16,13.52.04,2.69-.15,5.07-1.04,7.9-1.08,26.31-.42,36.61,20.52,11.55,33.42,7.21,5.89,11.46,16.84,17.97,22.9,2.64,2.46,5.83,2.91,7.98,5.48-24.63,8.79-23.88-26.63-43.94-27.88v21.42c0,3.55,6.94,3.56,5.99,6.47h-20.97ZM388.6,70.72c12.3,2.54,28.02-5.41,19.82-19.27-4.37-7.39-12.47-5.47-19.82-5.63v24.9Z"/>
  <path class="cls-1" d="M364.63,102.6h-20.97c-.13-3.7,4.16-1.69,3.98-6.36-.03-.81-4.41-12.3-4.87-12.97-.63-.92-20.77-1.03-22.13-.13-.62.41-5.12,12.66-4.99,13.99.28,2.91,4.44,2.35,4.04,5.48h-16.98c.25-3.04,3.58-3.61,5.44-6.03,5.21-6.79,16.37-38.41,20.29-48.49,1.71-4.39.44-9.11,7.27-6.78l22.37,53.39,6.54,7.92ZM339.67,77.7l-8.49-21.92-8.49,21.92h16.98Z"/>
  <path class="cls-1" d="M552.38,102.6h-20.97c-.13-3.7,4.16-1.69,3.98-6.36-.03-.81-4.41-12.3-4.87-12.97-.63-.92-20.79-1.03-22.12-.13-.88.6-5.14,12.48-5,13.99.27,2.91,4.45,2.36,4.04,5.48h-16.98c.25-3.04,3.58-3.61,5.44-6.03.96-1.25,1.67-3.11,2.41-4.57,7.71-15.27,12.97-34.22,19.6-50.18,1.14-1.54,3.99-1.27,5.56-.52l22.37,53.39,6.54,7.92ZM527.42,77.7l-8.49-21.92-8.49,21.92h16.98Z"/>
  <path class="cls-1" d="M451.52,41.84c.81,3.36-3.01,1.11-3.88,3.61-.46,1.33-.19,3.23.11,4.63,3.31,4.13,14.28,37.08,16.27,37.59s1.41-.91,1.93-2.01c3.55-7.46,12.75-28.38,14.29-35.59.27-1.28.7-4.15.1-5.1-.67-1.07-4.91-.04-3.85-3.13h17.98c-2.5,3.02-6.52,4.55-7.87,8.59l-20.98,51.59c-.79,1.11-5.4,1.03-6.21-.03l-23.67-53.87-6.19-6.28h21.97Z"/>
  <path class="cls-1" d="M491.96,130.49c8.44,1.83,9.02,15.52-.49,17.43l12.97,15.44c-11.34,3.55-13.17-12.75-20.49-14.92-1.87-.55-1.33.32-1.48,1.46-.3,2.25-.35,7.82-.08,10.06.28,2.38,2.83.42,2.08,3.4h-10.98c.01-1.22,3-2.97,3-3.48v-27.39c0-.18-3.1-.32-3-1.99,5.35.78,13.55-1.07,18.48,0ZM482.6,145.3c14.4,3.93,14.26-15.67,0-11.68v11.68Z"/>
  <path class="cls-1" d="M374.62,154.4v-20.42c0-.66-9.98-4.33,5.99-3.48,1.1,2.62-2.99,2.43-2.99,3.48v29.39c-2.33.44-3.06-.67-4.54-1.95-6.64-5.72-12.4-17.02-19.43-22.96v21.42c0,1.05,4.09.86,2.99,3.48h-8.98c-.67-3.12,2.47-1.35,3.01-4.45.44-2.55.18-24.35-.51-25.48s-3.36-.16-2.5-2.93l7.56.92,19.4,22.98Z"/>
  <path class="cls-1" d="M464.5,130.49v6.97c-3.7-5.73-7.9-3.8-13.99-3.99v10.97c4.89.12,8.46.86,11.98-2.99v8.46c-1.78.18-2.19-2.04-4.5-2.47s-5.09.2-7.48-.03v12.96c3.3-.25,7.06.49,10.27-.22,3.84-.84,2.52-3.96,5.71-3.77l-.99,6.97h-23.97c.8-1.8,2.54-2.22,2.97-4.5.73-3.87.6-20.64.1-24.91-.28-2.42-2.59-1.5-3.08-3.45h22.97Z"/>
  <path class="cls-1" d="M318.69,130.5c1.7,1.31-2.66,2.44-3.01,4.45-.69,3.98-.45,20.88,2.45,23.5s10.78,2.49,13.83-.01c2.34-1.91,2.26-20.66,1.8-24.53-.28-2.38-2.83-.42-2.08-3.4h8.98c.67,3.12-2.47,1.35-3.01,4.45-1.76,10.13,5.42,26.7-10.46,28.41-4.7.51-8.8.57-12.51-2.46-9.05-7.39.71-22.44-6.96-30.4h10.98Z"/>
  <path class="cls-1" d="M415.56,130.5c1.95,1.67-2,2.08-2.07,2.58-.24,1.88,6.24,16.41,7.62,19.32.49,1.03-.01,2.6,1.94,2.01.92-.28,7.11-16.65,7.31-17.68.61-3.03-.14-3.91-1.81-6.22h9.99c-6.06,3.53-12.83,31.22-16.56,32.78-.6.25-2.42.51-2.49-.52-4.05-8.06-7.19-20.67-11.68-28.05-1.41-2.32-4.63-2.12-2.73-4.24h10.48Z"/>
  <path class="cls-1" d="M528.41,138.46c-2.88-5.56-15.45-9.24-15.03-.47.37,7.64,18.04,5.66,16,18.83-.81,5.18-7.65,7.66-12.29,7.46-6.92-.3-10.15-1.52-8.63-8.89,3.37,4.2,7.66,8.12,13.35,4.86,10.01-5.75-7.75-12.09-10.6-14.8-4.98-4.75-3.42-13.78,3.79-14.9,7.34-1.14,15.89-1.73,13.41,7.91Z"/>
  <path class="cls-1" d="M594.32,130.5c1.28,2.43-2.17,1.86-2,2.46.32,1.13,7.03,13.2,7.99,12.47.98-5.32,7.4-9.23,5.01-14.93h7.99c-7.1,8.21-14.6,18.7-12,30.23.18.79,1.28.6,1.35.68,2.97,3.57-7.08,1.4-9.32,1.95,2.29-4.53,2.86-9.92,1.53-14.97-.45-1.69-6.69-12.08-8.05-13.9-1.29-1.72-3.29-1.84-3.46-2.03-2.74-3.13,9.23-1.72,10.97-1.97Z"/>
  <path class="cls-1" d="M581.35,130.49v6.97c-3.18-4.61-6.69-4.24-11.98-3.98v26.4c0,.7,2.12,1.12,2.35,1.38,3.24,3.78-8.12,1.53-10.33,2.1-1.1-2.62,2.99-2.43,2.99-3.48v-26.4c-5.29-.26-8.81-.63-11.97,3.98v-6.97s28.95,0,28.95,0Z"/>
  <path class="cls-1" d="M548.39,130.5c-.5,1.94-2.8,1.03-3.08,3.44-.42,3.64-.62,23.94.06,26.73.3,1.24,2.94,1.07,3.02,2.68h-11.98c.5-1.94,2.8-1.03,3.08-3.44.42-3.64.62-23.94-.06-26.73-.3-1.24-2.94-1.07-3.02-2.68h11.98Z"/>
  <path class="cls-1" d="M400.58,130.5c1.88,1.61-2.18,2.42-2.5,2.93-.69,1.12-.95,22.93-.51,25.48.54,3.1,3.69,1.33,3.01,4.45h-10.98c-.93-2.71,1.81-1.82,2.5-2.93s.95-22.93.51-25.48c-.54-3.1-3.69-1.33-3.01-4.45h10.98Z"/>
  <path class="cls-1" d="M143.78,118.68l.13,9.82c3.62-.87,9.46.95,9.05,5.42-.44,4.8-8.08,3.75-8.91,6.15l.02,19.66.84,1.21c11.52-.97,11.58,11.49.15,10.52l-2.13,11.33c-3.81,3.24-28.64.62-35.49,1.45-2.68.33-4.54,1.99-6.98,2.11-3.07.14-4.99-1.74-7.94-2.11-7.01-.86-30.09,2.74-33.92-.04-3.22-2.33-1.23-9.85-1.98-10.92-1.64-2.34-10.11,1.23-9.67-6.45.27-4.75,5.11-6.26,9.08-4.48v-22.91c-3.61.51-10.24-.48-9.81-5.2.68-7.45,8.92-4.88,9.82-5.75.41-.4-.85-7.93,1.25-9.71,1.86-1.58,5.78-.3,7.47-.98,1.53-.62,2.91-2.96,3.91-3.15.87-.16,3.9,2.55,6.82,2.91,16.17,1.98,38.92.15,54.97-2.07l13.32,3.18ZM100.98,149.42v23.91c5.12-4.74,26.62.78,29.47-3.97,1.68-2.81-.59-5.86-.51-8.48.06-1.95,1-3.81,1.05-5.94.24-11.91-2.04-23.63-.05-35.4-8.25,3.51-16.3,1.04-24.31,1.35-7.5.29-6.41,6.61-5.41,12.85.53,3.32,4.46,16.76,5.78,19.88.4.96,6.66,4.26.2,4.1s-2.89-.43-3.61-4.32c-.25-1.34-1.03-3.66-2.62-3.98ZM97.98,172.33v-21.91c-4.19,2.77-.83,9.48-7.99,6.96.57-1.49,2.07-2.08,2.74-3.73,2.44-5.99,6.38-23.59,5.25-29.63-.24-1.28-.28-1.85-1.67-2.31-6.91-2.31-19.43,1.53-27.29-1.16,1.97,7.75-.15,14.62-.05,22.46.04,2.84,1.02,5.25,1.08,7.88.07,2.94-.78,18.29-.16,19.02,2.11,2.47,8.27,1.26,11.59,1.45,1.72.1,3.39.98,5.05,1.03,3.48.12,7.31-1.62,11.44-.04ZM137.93,123.02c.31,18.08-.23,36.21,0,54.29-4.91,2.53-32.03-.58-33.95,2-.28.38,1.31,1.98,1.5,1.98h32.96c.27,0,2.34-1.02,2.54-1.68l1.06-10.17c4.41.98,11.3-2.64,4.99-4.49-2.76-.81-5.52,1.27-6.14-4.02-.39-3.34-.49-20.21.26-22.77.98-3.34,5.12-2.77,7.79-2.69,1.42-5.24-4.84-2.9-6.83-4.15s.35-13.02-4.17-10.3c-1.76,1.05,0,1.74,0,2ZM60.03,181.29c1.11,1.11,27.24,0,31.46,0,2.95,0,4.86-2.99,2-2.99h-31.46v-53.29c0-.31,1.76-2.78.99-3.48-.11-.1-2.88-.12-2.99-.01-.36.36-.29,8.36-1.46,10.01-1.42,2-8.01-.17-8.53,2.46-.8,4.08,7.8.93,8.84,4.11.43,1.3,1.12,26.31.15,27.26-.35.34-8.89-.86-8.97,2.49-.06,2.27,6.67.67,8.5,2.46,2.59,2.55.97,10.48,1.47,10.98ZM135.93,173.32v-49.31c0-.19-2.26-2.47-3-2.49v49.31c0,.19,2.26,2.47,3,2.49ZM67.03,122.52c-1.46-.85-3,1.43-3,2.49v49.31c1.05,0,3-3.08,3-3.49v-48.31ZM96.99,174.32h-23.47c-2.06,0-6.39-4.97-7.49,1.99h30.96v-1.99ZM133.94,176.31c-.97-6.91-5.85-1.99-8.49-1.99h-22.47v1.99h30.96ZM99.5,176.32c-3.82.81-2.37,7.64.97,6.96,2.37-.48,2.19-7.63-.97-6.96Z"/>
  <path class="cls-1" d="M171.51,29.3c.28.16.29,1.4,1.07,1.56,8.64,1.78,8.25-2.89,8.73,10.05,10.82.51,10.1,12.46-.44,10.88v21.93c7.17-2.04,12.37,6,5.39,9.85-1.7.94-4.99.97-5.26,1.23-.83.8-.48,8.43-2.02,10.43-2.37,3.06-23.33.59-28.62,1.34-2.41.34-3.83,2.1-5.92,2.14-2.31.04-3.98-1.78-6.07-2.03-6.62-.78-14.2.54-20.9-.07-14.54-1.33-5.55-6.09-8.97-12.03-.44-.76-9.3.4-8.54-6.35.43-3.76,5.9-4.95,9-4.52l.06-21.3c-.43-1.57-8.62-.37-9.07-5.13-.69-7.27,7.29-4.55,8.59-6.37,1.54-2.15-3.52-9.37,4.35-10.6s10.16-.24,17.59.36c2.6.21,5.58-.99,8.82-.73,5.8.46,16.13,1.57,21.98.87,4.5-.54,5.82-4,10.21-1.5ZM123.45,83.67c4.24,1.2,13.57-.88,18.48,0l.34-48.6c-1.49-3.38-16.37.6-20.3-3.21l-1.02,48.3c.03,1.12,1.7,3.28,2.5,3.51ZM138.93,90.65h-19.47c-1.11,0-5.94-1.64-5.51-3.47l.52-54.28c-4.98,1.17-1,7.02-2.96,9.98-1.27,1.92-6.91,1.11-8.51,3.45,1.56,2.92,6.41,1.84,8.02,2.94,1.52,1.04,1.5,24.21,0,26.8-1.02,1.77-8.82-.62-7.05,4.62,10.97-3.85,6.66,11.96,9.49,11.96h25.47v-1.99ZM144.92,41.34c-1.02,14.04.75,29.18,0,43.33,1.4.58,2.99-1,3.5-1h18.48l.99-50.8c-4.41,1.99-21-.73-22.45,2.93-.36.91.54,2.33.38,3.44-.14.98-.88,1.77-.9,2.1ZM172.89,85.67v-49.31c0-.19-2.26-2.47-3-2.49v49.31c0,.19,2.26,2.47,3,2.49ZM148.92,92.64h26.47c2.08,0,1.84-9.45,2.95-11,1.31-1.82,7.05-.06,7.53-2.46.68-3.38-5.71-1.99-7.05-2.9-1.52-1.03-1.49-23.71-.79-25.83.98-2.95,8.65-.34,7.85-4.11-.43-2-5.44-.89-7.09-2.9-1.89-2.3.23-9.02-2.41-9.56-3.13-.64-1.48,2.31-1.48,2.49v51.8c0,.33-1.32,1.51-1,2.49h-23.47c-.17,0-1.57,1.35-1.5,1.99ZM118.96,34.86c-1.46-.85-3,1.43-3,2.49v48.31c1.46.85,3-1.43,3-2.49v-48.31ZM140.92,86.68c-2.23-2.32-15.91.53-19.71-1.75-9.32,5.95,8.43,3.08,12.22,2.93.5-.02,10.73,2.2,7.49-1.18ZM171.89,88.65c-2.44-5.78-7.41-2.31-12.43-2.05-3.57.19-7.74-.68-10.65-.38-1.84.19-2.21.55-1.89,2.42h24.97Z"/>
  <path class="cls-1" d="M17.09,51.8c-.51-.47-11.95.82-7.5-7.98,1.44-2.85,6.99-1.7,8.38-3.1.34-.34-.91-8.13,1.05-9.41,1.46-.96,4.45-.05,6.36-.62,1.41-.42,2.24-2.42,3.33-2.65,1.03-.21,5.56,2.42,7.94,2.75,7.51,1.06,24.09.7,31.74.05,2.79-.24,6.32-2.99,8.13-2.91s2.77,2.03,4.37,2.41c1.8.43,6.91-.96,7.97,2.17.76,2.27-.68,6.64.56,8.4s6.8-.49,7.29,4.55c.68,7.11-6.67,4.26-7.58,6.96l-.13,21.28c3.08-.44,8.42.65,8.59,4.47.3,7.13-8.17,5.09-8.59,5.49-.93.88,1.99,8.62-2.04,11.41-4.88,3.38-19.3.2-26.4,1.56-2.45.47-2.9,3.03-5.98,3.06s-5.18-2.55-8.08-3.01c-5.99-.95-22.49,1.42-26.42-.54-4.27-2.14-1.14-8.95-2.09-10.37s-8.07.37-8.89-4.64c-1.44-8.87,7.99-5.79,7.99-6.42v-22.91ZM54.04,84.67c3.24-1.05,21.97-.21,21.97-2.49v-48.81c0-2.62-4.27.33-5.55.45-2.95.26-16.43-1.15-16.43,2.54v48.31ZM30.07,32.87v49.31c0,.7,1.67,1.34,2.5,1.49,5.24.96,13.7-.21,19.47.99-3.67-8.02,3.22-45.12-1.23-49.56-2.71-2.71-16.24-.1-20.74-2.23ZM24.58,93.63c6.42.84,16.1,0,22.97,0,.88,0,2.23-2.24-.14-2.85-2.82-.74-24.33,1.56-24.33-1.63v-52.79c0-.27,1.94-.99,0-2-3.03-1.59-.97,8.28-3.98,9.99-1.63.93-6.58-.13-7,1.99-.74,3.74,6.64,1.88,7.85,2.61,1.58.95,1.64,22.91.69,25.81-1.59,4.82-8.59,1.97-8.52,4.43.09,2.94,7.51,2,8.54,3.42,2.33,3.23-2.93,10.12,3.93,11.02ZM78.01,33.87v48.31c0,.41,1.94,3.48,3,3.49v-49.31c0-1.06-1.54-3.34-3-2.49ZM83,35.36v52.79c0,.18-2.32,2.49-2.5,2.49h-19.97c-.17,0-1.57,1.34-1.5,1.98,1.88.56,3.87.01,5.49.01h18.97c2.48-1.32,1.5-10.91,2.54-11.91.57-.55,8.7,1.26,7.94-2.52-.48-2.38-6.3-.68-7.55-2.44-.81-1.14-.91-24.57-.3-26.33,1-2.92,7.22-.09,6.86-4.61l-6.94-1.05c.36-2.23.15-12.85-4.04-9.91-.51.36.96,1.21,1,1.48ZM28.08,34.86c-.85-.42-3,.84-3,1.49v50.3c.73-.02,3-2.3,3-2.49v-49.31ZM80.01,88.65c-.97-6.91-5.85-1.99-8.49-1.99h-15.48c.24,4.89,3.18,1.99,4.49,1.99h19.47ZM48.55,86.66c-2.47-.73-12.42,0-15.98,0-2.18,0-4.1-3.52-5.49,1.99h20.47c.13,0,1.92,1.62,2.49.99.54-.6-.65-2.74-1.49-2.98ZM52.13,95.53c2.96,3.78,7.24-4.85,2.39-5.88-2.55-.54-3.21,4.84-2.39,5.88Z"/>
  <path class="cls-1" d="M123.94,139.45c-1.62,1.68-3.08-1.89-4.43-2.06-4.49-.57-4.63.95-2.11,4.11,3.44,4.32,11.82,5.64,7.42,13.28-1.89,3.28-10.75,3.06-11.9,2.13-1.99-1.61-.86-6.57.54-6.48.59.04,7.9,10.24,8.56,2.45.44-5.18-15.11-9.33-8.12-16.98.98-1.07,7.44-2.54,8.47-2.3,1.92.45,1.96,5.45,1.57,5.85Z"/>
  <path class="cls-1" d="M81,136.47c-2.85-.69-3.89,1.87-5.98,2.98l1-6.98c1.83.31,3.51,1.01,5.43,1.05,2.28.04,9.04-1.31,9.51.48.36,1.34-.11,4.22-1.5,4.46s-3.47-3.66-4.34-.37c-.58,2.19-.33,8.26-.12,10.81.38,4.65,5.05,10.97-3.49,9.5-4.31-.74-.9-2.78-.56-5.55.63-5.17-.35-11.11.05-16.38Z"/>
  <path class="cls-1" d="M157.9,46.82c-2.45,7.27-3.63,16.93,0,23.89h-7.98c.14-2.25,1.69-2.83,2.05-5.41.44-3.16.07-8.59,0-12.05-.12-5.63-3.2-6.87,5.94-6.43Z"/>
  <path class="cls-1" d="M140.92,70.72c-2.93,2.7-7.89-8.07-9.97-8.96-.35,3.39.1,6.14,1.99,8.95h-6.99c1.75-5.67.71-11.62,1.06-17.49,1.08-1.87-2.97-4.91-1.08-5.93,2.75-1.48,11.92-.79,13.5,2.5,3.19,6.66-3.42,8.82-3.48,11.44s6.07,8.47,4.98,9.48ZM135.68,50.07c-5.35-5.59-6.31,8.05-3.22,8.7,2.66.56,6.29-5.49,3.22-8.7Z"/>
  <path class="cls-1" d="M69.02,51.79c-.85.94-2.83-1.57-3.69-1.81-4.01-1.13-3.44,4.1-3.29,6.8l5.98-.99c.12,2,.38,3.73-1.48,4.95-5.51-5.84-5.62,6.15-3.57,7.55,4.59,3.13,6.75-4.05,8.05-2.54.53,9.57-8.09,4.57-13.97,4.97,2.19-7.22,1.26-15.41,0-22.9,2.89.83,6.82-1.49,9.26-.86,1.73.44,3.7,3.76,2.72,4.83Z"/>
  <path class="cls-1" d="M40.07,47.82c.19.25-1.12,3.91-.82,6.19.2,1.51,1.65,5.18,2.35,6.75.49,1.09,0,2.55,1.95,1.99.74-.21,3.73-12.85,1.51-14.94h4.99c-1.47,3.37-5,22.32-7.5,22.9-2.87.67-6.77-14.91-7.96-17.94s-5.62-5.43,1.27-5.71c.91-.04,4,.47,4.22.75Z"/>
</svg>