<?xml version="1.0" encoding="UTF-8"?>
<svg id="Layer_1" data-name="Layer 1" xmlns="http://www.w3.org/2000/svg" viewBox="0 0 2328.13 1111.81">
  <defs>
    <style>
      .cls-1 {
        fill: #fff;
      }
    </style>
  </defs>
  <path class="cls-1" d="M0,354.49C9.26,197.68,144.16,110.58,282.66,73.02c106.49-28.88,246.83-21.04,324.59,66.64,28.65,32.31,50.88,70.05,64.95,110.91l217.91-175.82c23.46,26.24,45.3,60.99,53.16,95.71,1.27,5.61,1.57,11.02,2.32,16.68.18,1.38-.58,1.74,1.48,1.48l185.8-147.79c44.49,43.18,71.02,108.76,63.48,171.15-1.65,13.62-5.59,26.97-10.12,39.84-38.66,109.9-92.49,217.7-131.95,327.69-7.67,29.32-22.07,72.67,27.61,51.58,44.47-18.89,71.53-76.41,89.78-118.08,23.9-54.57,44.21-110.74,67.54-165.53l104.21-30.96-72.99,194.3c-3.4,10.64-13.95,44.59,6.36,43.4,34.03-1.99,56.34-39.09,68.09-66.89,22.32-52.81,41.52-109.41,62.75-163.07,28.03-70.84,55.43-142.45,85.25-212.53,1.5-3.53,5.76-15.41,8.16-16.83,34.73-9.54,69.62-25.61,104.21-34.72.87-.23,3.08-1.07,3.07.07l-147.22,401.35c-1.72,6.6-10.37,30.63-5.49,35.5,11.8,4.5,26.97-5.81,35.76-13.24,48.64-41.11,80.25-147.78,103.69-208.08,31.22-80.29,61.63-160.9,92.37-241.37L1789.94,0l2.28,1.28-141.94,394.66c-1.59,8.1-10.14,31.99,2.49,33.5,10.37,1.24,14.83-2.69,22.04-8.98,17.65-15.4,39.44-47.3,49.31-68.61,7.81-16.84,8.64-31.88,13.64-49.31,16.23-56.65,60.35-126.14,109.72-159.09,46.88-31.28,138.76-60.24,125.4,32.42-10.52,72.97-79.22,126.95-143.58,152.73,1.54,37,21.88,54.88,57.57,37.05,47.31-23.65,104.63-105.1,125.75-153.06,21.54-48.94,37.66-101.6,56.73-151.6l102.72-27.2c-3.1,16.56-15.84,38.24-16.98,54.46-.08,1.18-.69,4.37,1.47,3.47l76.47-83.92c6.5,19.78,13.14,40.97,31.09,53.36,13.56,9.36,33.05,13.48,49.35,14.62,4.13.29,9.12-.6,13.05-.04,1.22.17,1.89-.49,1.5,1.51-.44,2.27-7.46,13.8-9.21,16.77-15.79,26.72-39.08,56.42-69.81,66.1-15.81,4.98-38.44,7.07-52.44-3.46-12.41-9.33-20.19-34.88-39.82-22.81-16.7,10.27-36.34,56.34-44.82,75.09-21.83,48.31-40.44,98.16-59.45,147.63l-95.31,27.88,13.49-53.94c-25.45,29.06-52.62,57.88-83.01,81.88-35.99,28.42-72.34,50.92-118.45,27.56-15.18-7.69-30.49-20.83-35.43-37.51-41.99,51.35-89.91,113.79-158.62,128.2-10.05,2.11-19.34,4.01-29.36.73-12.78-4.18-18.11-16.62-24.94-27.01-18.53,19.29-38.14,39.1-59,55.91-23.13,18.63-63.78,46.93-94.68,42.73-14.84-2.02-26.49-16.55-35.72-27.25l-1.46-.43c-21.79,20.19-44.54,41.08-69.22,57.73-12.69,8.56-36.09,22.85-51.05,24.9-28.88,3.95-47.39-19.14-59.72-41.68-25.38,30.98-51.96,61.69-84.74,85.13-39.88,28.52-115.94,63.56-148.08,6.69s10.35-144.19,32.94-200.71c25.37-63.49,53.18-126.18,77.9-189.89,13.66-35.21,30.4-90.46,19.8-127.63-2.3-8.08-7.4-18.17-15.53-21.06l-90.55,73.45c-2.14,52.14-18.46,104.47-33.65,154.2-29.05,95.07-69.16,193.1-107.98,284.71-16.24,38.33-33.57,81.94-53.92,117.95-2.92,5.16-6.9,13.2-12.24,15.74l-168.72,58.17-1.46-1.47c44.87-86.68,85.07-176.07,122.4-266.31s77.28-190.26,97-285.7c6.58-31.87,8.61-72.84-14-98.9l-94.97,76.9c.48,42.93-4.03,85.59-14.77,127.11-12.04,46.58-35.21,93.55-55.83,137.02-58.89,124.13-123.74,245.75-190.72,365.61l-192.5,63.64-1.47-1.48c71.43-118.61,143.26-237.2,210.07-358.52,74.09-134.53,219.79-388.59,17.5-483.42-104.38-48.93-234.07-9.9-319.01,60.15-63.31,52.21-103.22,133.91-63.04,213.83,37.03,73.65,153.13,89.66,193.28,11.27,10.77-21.03,10.68-43.07,3.25-65.17l177.85-93.01c11.8,87.63-18.74,175.86-95.04,224.21-75.55,47.87-199.58,59.52-273.26,2.54C34.27,473.28,2.69,418.39,0,372.47v-17.98ZM1911.93,168.87c-22.65,3.36-46.67,44.23-55.59,63.36-3.36,7.22-23.39,48.99-.46,38.5,23.95-10.96,51.45-50.95,60.78-75.12,3.09-8,11.76-29.19-4.73-26.74Z"/>
  <path class="cls-1" d="M178.92,1111.81l-4-6.98L2263.51,366.46l2.23,7.56-1.28,1.33c-126.57,52.67-247.96,119.21-364.19,191.53-75.49,46.97-150.47,97.63-220.89,151.88-71.14,54.81-140.18,113.87-196.63,184.03-40.91-9.88-82.83-16.4-124.84-19.77-145.43-11.66-301.96,5.32-445.63,29.13-249.16,41.3-495.18,112.05-731.35,199.65h-2Z"/>
  <path class="cls-1" d="M1334.19,144.93c19.87-2.69,41.8,5.67,46.77,26.67,10.1,42.65-34.61,99.84-79.74,84.7-51.25-17.2-7.99-105.83,32.97-111.37Z"/>
  <path class="cls-1" d="M2234.8,240.85c26.38-3.58,46.35,12.78,43.12,40.1-3.61,30.5-46.4,38.65-64.84,15.07-15.69-20.06-3.93-51.69,21.73-55.17ZM2224.4,293.19c13.95,13.76,40.92,5.52,42.66-15.09,3.13-36.87-50.53-36.32-50.08-3.02.08,6.26,2.98,13.73,7.42,18.11Z"/>
  <path class="cls-1" d="M2249.53,256.58c10.23,2.05,10.82,19.68-.52,21.5l9.02,15.46-11.01-.47c-1.79-1.1-6.11-11.68-7.74-14.21-.64-.98.12-1.77-2.24-1.29v15.99h-10v-36.97c6.59.91,16.35-1.23,22.49,0ZM2237.04,271.57c6.08.69,12.54-.1,9.09-7.6l-9.09-1.4v9Z"/>
</svg>