<?xml version="1.0" encoding="UTF-8"?>
<svg id="Layer_1" data-name="Layer 1" xmlns="http://www.w3.org/2000/svg" viewBox="0 0 3009.68 1247.11">
  <defs>
    <style>
      .cls-1 {
        fill: #fff;
      }
    </style>
  </defs>
  <polygon class="cls-1" points="1047.3 .07 1198.75 806.08 1202.25 .07 1435.18 .07 1435.18 1247.07 1079.29 1247.07 865.36 276.07 865.36 1247.07 632.43 1247.07 632.43 .07 1047.3 .07"/>
  <path class="cls-1" d="M1525.15.07l346.44-.05c2.72-.2,5.23,1.02,7.91,1.09,165.53,3.99,339.93,46.48,347.48,244.41,2.18,57.13,4.53,148.81-13.01,202.08-30.46,92.54-123.95,120.67-211.01,135.03l.1,5.38c64.24,5.63,132.96,18.09,175.29,71.15,39.19,49.13,45.41,116.76,47.55,177.44,2.63,74.64,7.68,176.49-14.69,247.23-42.58,134.66-176.1,158.05-300.63,163.27l-385.42-.04V.07ZM1823.06,180.57v339c.88,1.43,1.99,1.38,3.45,1.55,9.3,1.09,27.33.54,37.08,0,50.22-2.82,62.39-30.25,64.48-76.5,2.79-61.94-2.21-125.94,0-188.09-1.48-28.95-5.94-60.97-36.79-72.19-14.72-5.35-49.13-7.15-64.77-5.31-1.46.17-2.57.12-3.45,1.55ZM1823.06,1070.07c38.79-1.69,99.38,11.58,103.84-43.62-1.4-96.36,5.7-196.84,1.17-292.92-2.23-47.36-19.52-56.56-64.49-58.49-10.12-.44-27.48-1.14-37.08,0-1.46.17-2.57.12-3.45,1.55v393.5Z"/>
  <path class="cls-1" d="M2257.92,1247.07L2481.95.18,2820.28,0l189.4,1247.07h-264.92l-32.99-338h-142.46l-45.49,338h-265.92ZM2691.78,731.07l-47.48-509.01-47.49,509.01h94.97Z"/>
  <g>
    <path class="cls-1" d="M266.38,1.8c1.59,1.41-10.34,12.04-11.77,13.87-8.99,11.47-11.24,22.78-13.07,36.98-.66,5.1.89,11.9-.99,16.44-1.17,2.82-7.71,4.33-9.85,6.5-4.82,4.9-3.27,20.28-1.5,26.64,1.26,4.51,5.53,9.39,6.58,13.43,1.37,5.27-2.59,32.19-4.78,37.84-4.01,10.39-12.98,12.51-23.08,14.45-23.89,4.6-51.52,4.33-74.4,13.13-39.76,15.3-66.03,91.4-82.2,127.98-7.74,17.51-16.66,34.65-23.98,52.35-12.5,30.22-26.34,56.16-11.64,88.44,7.19,15.79,27.38,10.17,42.17,14.14,15.53,4.17-7.63,23.04-11.36,29.26-8.89,14.81-15.21,59.89-13.94,77.39,2.34,32.29,28.72,77.31,42.72,107.42,4.72,10.14,7.47,26.28,18.86,29.93,7.9,2.53,12.59-1.09,19.66,6.6,8.95,9.72,20.19,34.23,28.25,46.82,47.85,74.75,109.03,140.73,179.42,194.62,18.06,13.83,38.55,22.78,42.33,49,.95,6.62-1.93,8.58-2.47,13.66-1.7,15.77,24.79,50.55,29.45,68.22,2.44,9.25,1.03,20.29,3.22,29.32,2.76,11.37,5.39,12.2,4.94,26.44-.64,20.1-8.86,70.8-3.15,86.9,2.24,6.33,8.75,10.52,8.1,17.55H91.96C47.7,1247.11-.49,1195.71,0,1151.43L.08,93.81C.87,52.31,47.71,1.8,89.46,1.8h176.92ZM101.34,1115.7l-24.38-98.87h-38.76l-1.88,1.88v168.34h33.13l1.88-1.88v-97l2.46,1.88,23.17,96.99h37.51l1.88-1.88v-166.46l-1.88-1.88h-31.26l-1.88,1.88v97ZM218.25,1016.82h-62.52l-1.88,1.88v168.34h66.89c.71,0,11.59-4.74,13.04-5.72,16.82-11.3,19.45-35.24,17.65-53.8-1.11-11.51-10.1-27.08-22.57-28.1-.21-4.61,5.56-5.1,8.15-7.48,20.52-18.83,13.68-70.03-18.78-75.12ZM255.13,1187.04h38.76l2.75-26.66c1.36-4.81,20.55-4.01,25.46-3.45,10.15,1.18,3.8,23.76,9.93,30.11h36.88l-35.59-170.3-44.38.14-33.81,170.16Z"/>
    <path class="cls-1" d="M513.95,1157.62c-1.93,18.18-14.48,43.54-26.87,56.96-9.23,10.01-32.29,25.85-45.61,28.24-1.54.28-3.46.45-3.8-1.37-.31-1.67,8.94-12.89,10.61-16.89,6.06-14.44,4.32-26.44,1.28-41.3-7.8-38.13-27.23-89.99-24.38-128.26,1.72-23.05,13.71-39.51,2.7-62.81-4.7-9.96-14.92-20.08-18.65-30.14-8.33-22.44-10.63-60.52-15.9-85.46-9.37-44.34-24.31-60.25-40.5-98.38-14.5-34.13-12.98-71-19.27-107.12-3.6-20.67-13.57-48.41-14.54-68.11-.48-9.72,1.32-14.28-.74-25.48-4.01-21.76-22.79-90.9-34.11-107.28-4.61-6.67-11.61-10.13-11.63-19.74-.02-7.36,6.18-22.5,8.82-30.06,3.2-9.16,16.33-46.36,20.7-51.87,2.91-3.67,28.27-19.62,32.99-20.79,2-.5,7.14-1.24,8.64-.32,7.86,26.72,10.73,55.13,17.07,82.39,2.44,10.49,5,21.36,8.5,31.54,9.96,28.95,27.96,55.49,38.15,84.46.03,2.19-2.11,3.54-3.6,4.68-9.01,6.9-21.07,10.35-30.57,18.2-48.48,40.08-44.42,115.73,9.01,148.73,46.49,28.72,101.26,10.45,129.2-33.56.48-.34,2.48,1.65,2.48,1.88v471.84Z"/>
    <path class="cls-1" d="M513.95,595.04c-2.85,3.3-10.55-13.42-11.26-14.39-5.52-7.51-19.15-17.58-27.1-22.94-3.33-2.25-8.72-3.53-11.61-5.9-7.62-6.23-8.31-30.97-10.39-40.92-7.56-36.34-26.24-65.54-34.09-103.55-10.71-51.85-.98-111.56-33.82-155.13-11.64-15.44-46.31-41.07-63.15-53.19-5.12-3.68-22.8-11.59-23.38-17.83-.4-4.39,14.8-21.45,18.26-26.32,6.89-9.7,13.68-18.63,20.76-28.03,14.52-19.3,8.93-24.87,13.61-45.2,1.67-7.27,6.14-15.57,7.03-23,3.3-27.65-15.41-38.91-33.65-54.99l2.07-2.91c61.32,1.84,126.89-14.24,167.74,43.21,7.37,10.37,18.99,34.9,18.99,47.33v503.76Z"/>
    <path class="cls-1" d="M191.36,1114.44l14.97.65c10.48,7.51,11.11,33.33-.88,39.11-3.75,1.81-11.05,3.01-14.09-.34v-39.42Z"/>
    <path class="cls-1" d="M191.36,1049.36c16.24-2.76,21.38,5.44,20.06,20.72-.92,10.69-10.54,18.11-20.06,12.45v-33.17Z"/>
    <path class="cls-1" d="M303.27,1124.46c-.82-.24-2-1.91-1.81-3l10.58-64.59,9.36,67.59h-18.13Z"/>
  </g>
</svg>