<?xml version="1.0" encoding="UTF-8"?>
<svg id="Layer_1" data-name="Layer 1" xmlns="http://www.w3.org/2000/svg" viewBox="0 0 1872.06 2361.25">
  <defs>
    <style>
      .cls-1 {
        fill: #fff;
      }
    </style>
  </defs>
  <path class="cls-1" d="M936.92.29c62.01,137.63,202.02,232.35,342.99,276.4,177.37,55.42,362.7,34.95,524.79-53.88l67.25-41.05.1,1637.97c-.48,107.02-34.01,203.62-130.3,258.55-111.54,63.64-239.8,40.68-362.95,57.35-118.01,15.97-232.51,53.12-330.24,121.54-43.24,30.27-79.55,66.4-116.24,104.08-35.17-38.93-73.33-75.56-116.24-105.93-121.24-85.81-275.25-122.25-422.58-129.2-46.45-2.19-92.06.83-138.58-5.84-145.9-20.91-246.92-111.79-254.93-263.54L.07,182.69l69.12,41.98c255.55,150.7,652.21,89.27,826.68-157.14,15.14-21.39,23.71-44.43,36.93-64.86,1.16-1.79-.2-3.32,4.12-2.38ZM919.36,209.53h-62.03l49.72,38.34-18.22,59.8,51.17-36.89,52.48,36.89-18.26-59.83,49.75-38.31h-62.95l-19.46-59.27c-4.07-.82-2.34,1.76-3.23,4.08-2.95,7.67-16.18,54.3-18.97,55.19ZM345.39,415.08h-63.88l51.52,40.05-18.17,59.95,52.66-35.28,50.06,35.3-17.24-59.97,51.52-40.05h-63.88c-7.78-17.41-12.03-37.13-18.97-55.19-.76-1.98.59-5.26-3.23-4.08-3,.93-16.04,57.87-20.39,59.27ZM611.08,416.93l-18.54-61.11c-2.63.21-2.91,2.73-3.75,4.56-7.68,16.65-9.45,40.39-19.37,56.55h-62.03l49.71,38.34-18.22,59.8,52.73-36.43,50.92,36.43-18.25-59.84,49.75-38.31h-62.95ZM835.12,416.93l-18.54-61.11c-2.88.28-2.8,2.81-3.56,4.75-6.76,17.27-12.32,38.43-16.78,56.36h-64.8l51.01,36.98-8.41,31.54c23.32-14.79,53.6-21.96,77.13-34.88,15.64-8.58,32.35-23,46.91-33.64h-62.95ZM1077.67,416.91c-8.25-17.66-12.32-39.08-20.29-56.53-.84-1.84-1.14-4.34-3.75-4.56l-18.53,59.24,42.58,1.84ZM1482.22,415.08h-63.88l51.6,40.16-17.33,59.85,51.83-35.13,50.89,35.11-18.26-59.99,51.6-40h-64.8c-6.22-18.22-11.13-37.2-18.04-55.19-.76-1.98.59-5.26-3.23-4.08-3,.93-14.02,53.21-20.39,59.27ZM1747.92,416.93l-18.54-61.11c-2.62.21-2.91,2.72-3.75,4.56-8.17,17.8-9.83,39.45-19.37,56.55h-62.03l49.69,38.33-18.2,59.81,52.73-36.43,50.92,36.43-18.25-59.84,49.75-38.31h-62.95ZM121.35,416.93h-62.03l50.08,36.48-18.59,61.66,52.42-36.73,51.23,36.73-18.62-61.69,50.12-36.45h-62.03c-5.45-6.06-17.38-58.34-20.39-59.27-3.82-1.18-2.47,2.1-3.23,4.08-2.89,7.51-15.81,54.17-18.97,55.19ZM1259.12,416.93h-62.95l48.31,36.02c3.57,3.8-.78,8.37-.24,12.96.68,5.82,18.76,14.56,23.56,19.23l12.35-6.9,51.17,36.82-18.22-59.8,49.72-38.34h-62.03c-7.99-17.36-12.02-37.12-18.97-55.19-.89-2.32.84-4.9-3.23-4.08l-19.46,59.27ZM1257.26,515.05c-15-20.55-42.69-34.45-66.15-43.99-202.19-82.2-479.43,13.62-569.24,216.83-12.27,27.76-22.39,59.59-21.89,90.12l172.16-68.51,11.14,29.6-168.5,66.72c20.18,34.25,66.88,56.14,104.11,67.13,103.23,30.48,221.58,12.33,315.57-37.21,115.26-60.75,219.73-156.47,235.73-292.9l-166.04,66.44-3.31-1.65-10.24-25.86,166.64-66.72ZM387.05,626.18l-18.54-61.11c-2.62.21-2.91,2.72-3.75,4.56-8.19,17.84-10.37,39.23-19.37,56.55h-63.88l51.66,38.26-20.18,61.72,54.33-36.64,52.11,36.68-19.52-61.89,51.94-38.12h-64.8ZM569.42,626.18h-62.03l49.8,38.29-17.38,59.88c11.97-10.14,44.17-25.12,52.81-36.07,4.62-5.85,9.65-22.68,13.79-30.65s14.72-21.5,17.61-28.69c2.29-5.7-10.75-.44-13.15-3.85l-18.33-60-23.12,61.1ZM1523.88,626.18l-18.54-61.11c-2.62.21-2.91,2.72-3.75,4.56-8.16,17.79-9.57,39.52-19.37,56.55h-62.03l49.79,38.25-18.29,61.75,52.45-36.73,51.21,34.87-18.33-60.84,51.67-37.3h-64.8ZM122.28,626.18h-62.95l49.8,38.26-18.32,59.88,50.86-35.15,52.8,37.01-20.33-62.85,51.82-37.15h-62.03c-8.85-17.14-12-37.06-18.97-55.19-.89-2.32.84-4.9-3.23-4.08l-19.46,59.27ZM1810.87,626.18h-62.03l-19.46-59.25c-2.62.21-2.91,2.72-3.75,4.56-7.87,17.16-9.92,38.24-19.37,54.7h-62.03l51.78,37.19-19.36,60.97,50.06-35.3,52.66,35.28-18.23-59.84,49.73-38.3ZM1362.8,626.18h-62.03c-7.7-10.78-6.93-27.45-15.72-37.03-3.8,28.67-17.97,55.51-31.18,80.87-9.54,18.33-24.88,34.28-26.22,56.16l51.19-36.67,52.47,34.8-18.31-59.85,49.8-38.29ZM387.05,833.58l-18.54-61.11c-2.62.21-2.91,2.72-3.75,4.56-8.09,17.62-10.65,39.35-19.37,56.55h-63.88l51.66,38.26-20.18,61.72,54.32-36.71,52.13,36.74-19.52-61.89,51.94-38.12h-64.8ZM1523.88,833.58l-18.54-61.11c-2.62.21-2.91,2.72-3.75,4.56-8.09,17.62-10.65,39.35-19.37,56.55h-62.03l49.81,38.25-18.31,61.74,52.45-36.72,51.21,34.86-18.33-60.84,51.67-37.3h-64.8ZM161.16,833.58c-4.99-17.04-9.28-38.75-16.59-54.7-.84-1.84-1.13-4.34-3.75-4.56l-18.54,59.25h-62.95l49.75,38.31-18.25,59.83,50.88-36.57,51.85,36.59-17.3-59.79,49.72-38.38h-64.8ZM1259.12,833.58h-62.95l49.75,38.31-18.25,61.68,51.19-36.67,52.47,34.81-18.31-59.85,49.8-38.29h-62.03c-8.85-17.14-12-37.06-18.97-55.19-.89-2.32.84-4.9-3.23-4.08l-19.46,59.27ZM1810.87,833.58h-62.03l-19.46-59.25c-2.62.21-2.91,2.72-3.75,4.56-7.87,17.16-9.92,38.24-19.37,54.7h-62.03l51.78,37.19-19.36,60.97,50.06-35.3,52.66,35.28-18.25-59.8,49.75-38.34ZM569.42,833.58h-62.03l49.8,38.29-18.32,59.84,52.82-35.14,49.92,35.17-16.73-61.1,8.38-6.5c-20.47-15.89-45.88-29.87-53.68-56.47l-10.16,25.91ZM1138.77,833.58h-52.77c-2.08,0-29.34,19.38-34.86,22.54-9.09,5.21-19.32,8.6-28,14.59-5.29,18.37-13.84,37.03-18.71,55.36-.43,1.63-2.1,5.03.13,5.68l49.92-35.17,52.82,35.14-18.32-59.84,49.8-38.29ZM790.67,913.22c-7.12-2.31-14.59-2.33-22.03-1.68l-5.74,20.16,27.77-18.48ZM862.71,911.53c-7.25-.16-15.62-1.65-22.03,2.59l25.9,17.59-3.87-20.18ZM1779.39,992.83H90.8l-.08,823.19c5.81,140.2,66.67,203.21,206.54,215.64,74.3,6.6,146.37,2.91,221.9,13.24,152.99,20.94,302.04,75.85,416.6,181.08,112.9-105.72,263.3-160.28,415.26-181.08,75.53-10.34,147.6-6.64,221.9-13.24,135.5-12.04,200.06-72.53,206.54-210.08l-.08-828.74Z"/>
  <path class="cls-1" d="M305.58,1808.53c4.4,41.5,43.96,67.02,46.3,113.03,2.54,49.86-70.18,17.2-92.63,5.52-46.53-24.21-119.5-73.85-127.23-130.14-6.44-46.89,31.81-23.92,51.21-34.86,9.01-5.08,13.08-19.65,13.2-29.39l-.1-564.85c-1.88-18.91-14.02-35.91-29-46.92-12.78-9.39-28.03-10.09-34.95-26.16-11.44-26.55,4.11-47.11,31.55-50.1,31.01-3.37,101.94-2.94,133.4-.07,27.66,2.53,42.04,25.34,54.88,46.96l168.15,432.73v-352.76c0-32.2-55.36-58.51-74.98-76.86-20.26-18.94-7.45-47.32,18.41-50.08,69.84,5.91,152.06-7.58,220.43.09,30.34,3.4,28.81,40.97,10.06,56.37-19.79,16.25-44.73,21.4-48,53.84l.05,764.83c-8.23,83.35-91.59,66.77-126.33,9.55l-214.42-553.11v432.39Z"/>
  <path class="cls-1" d="M1425.75,1846.49c18.13-.76,36.58,1,54.7.08,69.76-3.56,110.93-34.27,125.85-103.76,2.85-13.27,9.69-53.67.06-63.06-7.8-7.6-45.69-.71-59.3-1.8-107.84-8.64-131.85-174.22-21.03-198.74,134.43-29.75,201.31,106.02,197.91,220.16-1.95,65.54-29.37,140.71-74.1,188.84-96.89,104.24-237.53,49.91-362.99,73.98-22.67,4.35-69.36,25.94-87.93,10.25-25.53-21.58,5.97-63.55,22.21-81.52,21.62-23.93,47.22-34.68,54.21-69.85,5.26-213.08.84-426.9,2.26-640.25-2.64-21.53-11.22-41.47-25.85-57.48-17.48-19.13-81.41-58.55-28.79-78.7l267.11,1.45c10.39,5.42,11.09,16.67,9.77,27.35-1.98,16.04-18.46,22.49-28.78,32.31-10.85,10.31-45.31,52.27-45.31,65.79v674.97Z"/>
  <path class="cls-1" d="M940.65,1988.15c1.34,13.25,9.31,35.46,15.35,47.61,9.24,18.6,28.77,34,30.75,54.45,2.76,28.6-25.78,34.08-47.36,23.28-24.23-12.12-55.91-40.26-81.09-55.93-20.04-12.47-40.59-24.37-62.09-34.19-20-9.14-58.23-14.1-53.54-44.35,3.06-19.73,29.79-24.7,39.51-40.1,6.12-9.71,8.44-21.13,10.33-32.26l.11-748.16c-1.49-16.32-12.44-35.15-25.12-45.25-9.53-7.59-20.39-9.77-28.34-19.8-18.86-23.82-9.03-46.33,20.99-48.74l397.85-.14,57.7,155.58c6.75,32.78-11.63,48.92-41.81,32.56-30.26-16.39-52-69.5-87.88-69.5h-145.34v242.58h132.38c1.26,0,9.41-4.24,11.13-5.53,18.74-14.03,17.2-50.5,24.37-70.06,8.23-22.42,52.19-26.98,52.51,2.38l-.23,244.34c-2.58,18.31-19.44,22.53-34.47,14.42-19.69-10.61-15.11-41.41-31.03-57.85-6.84-7.06-27.57-16.6-37.1-16.6h-117.57v471.28Z"/>
  <path class="cls-1" d="M840.07,667.38c4.03-.12,7.56,3.08,9.62,6.25,2.83,4.36,15.18,34.47,16.15,39.5.5,2.58,1.5,4.91-.15,7.42-4.15,6.57-16.19,9.43-21.16,2.67-1.43-1.95-15.78-37.87-16.4-41.01-1.8-9.13,2.58-14.54,11.93-14.83Z"/>
  <path class="cls-1" d="M810.58,684.07c1.86,1.81,18.64,41.78,18.97,45.07,1.16,11.44-14.85,16.73-21.93,6.94-2.59-3.59-16.59-38.54-16.9-42.54-.83-10.8,14.22-14.95,19.86-9.47Z"/>
  <path class="cls-1" d="M1084.62,636.85c-3.13,3.09-14.82,5.08-18.2,1.02-1.59-1.91-17.48-39.59-18.03-42.72-2.54-14.37,13.68-19.86,21.6-8.51,3.1,4.45,16.91,39.59,16.82,44.06-.03,1.74-.96,4.95-2.18,6.15Z"/>
  <path class="cls-1" d="M1013.31,598.83c4.34-4.29,15.41-5.52,19.7.71,1.6,2.32,16.66,40.28,16.88,42.56,1.17,12.19-15.34,16.88-21.97,6.96-2.72-4.07-16.88-40.15-16.8-44.08.03-1.75.96-4.94,2.19-6.16Z"/>
  <path class="cls-1" d="M976.33,613.69c5.05-5.5,14.79-5.9,19.58.73,2.03,2.81,15.83,35.52,16.55,39.03,3.09,15.02-14.49,20.34-20.79,11.5-2.01-2.82-16.35-38.7-16.95-42.46-.52-3.21-.77-6.21,1.61-8.8Z"/>
  <path class="cls-1" d="M871.63,654.37c7-1.56,11.03-1.46,14.87,4.67,2.35,3.75,16.54,39.28,16.65,42.46.3,8.99-13.85,15.45-20.73,7.9-2.5-2.74-17.16-39.34-17.58-43.61-.63-6.47-.13-9.88,6.79-11.42Z"/>
  <path class="cls-1" d="M955.93,681.24c-1.78-1.69-17.8-42.16-18-45.56-.73-12.51,15.46-15.9,21.99-5.64,2.38,3.75,15.46,36.11,15.81,39.86,1.18,12.42-12.74,18.05-19.8,11.33Z"/>
  <path class="cls-1" d="M908.66,639.56c4.04-.9,9.28-1.47,12.57,1.42,1.59,1.39,15.85,35.32,16.65,38.87,3.87,17.15-11.01,25-19.48,13.94-2.23-2.91-14.73-33.61-15.72-37.96-.91-3.97-1.74-7.7-.61-11.76.9-2.61,4.07-3.96,6.58-4.51Z"/>
</svg>