<?xml version="1.0" encoding="UTF-8"?>
<svg id="Layer_1" data-name="Layer 1" xmlns="http://www.w3.org/2000/svg" viewBox="0 0 2499.92 540.73">
  <defs>
    <style>
      .cls-1 {
        fill: #fff;
      }
    </style>
  </defs>
  <path class="cls-1" d="M242.12,1.62C158.37,11.14,86.52,55.07,41.63,124.07c-17.13,26.17-31.88,62.65-38.54,95.48-4.12,20.46-4.12,81.05,0,101.51,16.97,83.9,69.79,153.06,144.65,190.17,31.4,15.54,60.43,23.95,96.28,27.76,9.99,1.11,81.53,1.74,202.54,1.74,157.97,0,190.01-.32,205.87-2.38,65.82-8.56,119.43-35.05,163.84-81.21,20.3-21.1,33.31-39.18,46-63.92,20.46-40.13,29.03-76.45,29.03-122.92s-8.56-82.79-29.03-122.92c-12.69-24.74-25.69-42.82-46-63.92-44.41-46.16-98.02-72.64-163.84-81.21C636.58.19,605.17-.12,443.87.04c-104.36.16-195.25.79-201.75,1.59h0ZM641.65,184.34c32.04,8.72,58.21,33.94,65.98,63.76,3.01,12.05,3.01,32.36,0,44.41-7.93,30.29-34.26,55.51-66.77,63.76-10.15,2.7-24.27,2.85-195.72,2.85s-185.41-.16-195.09-2.85c-31.56-8.56-53.29-27.44-64.55-55.99-3.81-9.83-4.28-13.01-4.28-29.98s.48-20.14,4.28-29.98c12.53-31.88,39.34-52.66,74.86-57.89,5.23-.79,90.88-1.27,190.33-1.11,165.91.32,181.61.48,190.97,3.01h0ZM1921.79,211.62v178.44h55.51V33.18h-55.51v178.44ZM2380.17,149.92c-25.85,5.71-46.47,20.78-56.78,41.71-5.71,11.42-5.87,12.53-5.87,28.55,0,14.91.48,17.76,4.28,26.01,9.36,19.83,28.87,32.36,63.29,40.76,44.41,10.79,54.4,14.75,60.27,24.27,9.99,16.5-5.71,32.51-33.63,34.1-22.21,1.27-46.63-5.55-66.14-18.24-4.92-3.33-9.83-6.5-10.94-7.3-1.27-.79-6.66,5.23-16.18,17.76-7.93,10.47-14.59,19.67-14.75,20.46-1.43,5.39,39.34,27.76,61.38,33.94,17.13,4.6,57.89,5.08,73.75.79,25.85-6.98,45.05-21.57,55.04-42.03,5.87-11.9,6.03-12.37,6.03-30.45s-.16-18.72-5.23-28.87c-11.1-22.68-31.88-35.21-76.77-46.47-15.39-3.81-30.77-8.41-34.26-10.15-13.48-6.98-16.81-17.92-8.25-27.76,6.19-6.98,16.5-10.47,31.09-10.47,15.86,0,25.85,2.38,42.35,9.99,8.09,3.65,14.43,5.71,15.23,4.92,4.44-5.08,25.54-35.37,25.54-36.8,0-2.7-17.13-12.69-30.14-17.61-24.43-9.52-55.67-12.21-79.3-7.14h0ZM1486.72,154.68c-45.84,10.15-76.13,39.49-88.5,85.49-2.85,9.99-3.49,17.13-3.49,34.1-.16,24.9,2.38,36.8,11.58,56.31,11.58,24.9,27.76,41.56,51.55,53.13,20.14,9.83,29.82,11.74,56.31,11.9,27.12,0,36.64-2.06,57.89-12.53,13.96-6.98,30.93-19.98,30.93-23.63,0-1.11-8.41-10.31-18.72-20.62l-18.87-18.87-9.2,6.5c-30.61,21.41-74.86,15.39-93.9-13.01-8.41-12.53-11.9-23.95-12.05-39.18-.32-30.77,14.75-53.13,41.71-62.02,18.87-6.34,44.73-3.49,61.22,6.66,2.7,1.59,5.71,3.01,6.5,3.01,1.74,0,33.78-40.45,33.78-42.51,0-3.81-29.66-19.19-45.2-23.47-13.64-3.65-47.74-4.44-61.54-1.27h0ZM1205.19,156.74c-6.34,1.59-17.76,6.03-25.38,9.68-11.26,5.55-16.5,9.52-28.07,21.25-9.2,9.2-16.18,18.08-19.51,24.43-20.94,39.65-20.94,84.7,0,124.35,3.33,6.34,10.31,15.23,19.51,24.43,11.58,11.74,16.81,15.54,27.76,20.94,18.87,9.36,34.58,13.01,55.83,13.01s36.16-3.17,54.4-11.9c23.47-11.26,40.76-28.55,52.34-52.34,9.83-19.83,12.53-32.2,12.53-56.31s-2.7-36.48-12.53-56.31c-11.58-23.95-28.55-40.92-52.34-52.34-7.77-3.81-19.35-7.93-25.69-9.36-15.54-3.49-43.78-3.17-58.84.48h0ZM1264.67,215.59c47.42,22.05,46.79,95.32-.79,117.85-9.99,4.76-11.74,5.08-28.07,5.08s-18.24-.32-27.76-4.92c-32.67-15.54-45.68-56.94-28.71-90.72,15.39-30.45,52.98-42.51,85.33-27.28ZM1636.77,234.14c.48,65.35.95,77.4,3.33,86.92,9.36,37.43,35.53,63.44,71.69,71.53,16.5,3.65,44.73,2.38,59.32-2.54,12.05-4.12,22.52-9.2,29.98-14.91,3.01-2.22,6.03-3.65,6.66-3.17.79.48,1.43,4.76,1.43,9.52v8.56h49.17v-231.57h-55.51v62.97c0,35.05-.79,67.73-1.59,73.44-4.92,30.77-25.54,48.53-55.99,48.22-10.79-.16-13.64-.79-22.84-5.55-17.45-8.88-26.01-23.47-29.03-50.28-.79-7.61-1.59-39.65-1.59-71.37v-57.42h-55.83l.79,75.66h0ZM2036.46,228.59c.48,39.34,1.74,75.34,2.7,82,6.5,42.51,31.4,71.06,70.74,81.05,30.61,7.93,68.68,1.11,91.36-16.34l7.45-5.71.95,10.31,1.11,10.15h48.85v-231.57h-55.51v57.42c0,81.84-1.74,94.06-15.54,109.28-13.64,15.23-34.74,21.57-54.24,16.65-18.4-4.76-30.45-16.34-36.8-35.53-3.33-10.15-3.49-13.48-4.12-79.3l-.48-68.52h-57.42l.95,70.11h0Z"/>
</svg>