<?xml version="1.0" encoding="UTF-8"?>
<svg id="Layer_1" xmlns="http://www.w3.org/2000/svg" version="1.1" viewBox="0 0 708 205.2">
  <!-- Generator: Adobe Illustrator 29.2.1, SVG Export Plug-In . SVG Version: 2.1.0 Build 116)  -->
  <defs>
    <style>
      .st0 {
        fill: #fff;
      }
    </style>
  </defs>
  <g id="Layer_2">
    <g id="Layer_1-2">
      <path class="st0" d="M526.3,158.6V38.5h38.1l.2,14.3c7.6-11,18.8-16.1,31.8-16.1s28,7.6,34.3,19.5c7.6-13,22-19.5,36.8-19.5,26.2,0,40.5,19.7,40.5,44.6v77.3h-38.8v-71.5c0-11.7-7.4-18.6-16.4-18.6s-16.3,7-16.3,18.6v71.5h-38.8v-71.5c0-11.7-7.4-18.6-16.4-18.6s-16.4,7-16.4,18.6v71.5h-38.8ZM513.3,112.9c0,30.9-24.6,48.4-56,48.4s-56-17.5-56-48.4V38.5h39v73.3c0,10.5,6.9,17.2,17,17.2s17-6.7,17-17.2V38.5h39v74.4ZM390.7,69.5v-30.9h-32V7.8h-38.8v107.8c0,29.8,17.7,44.8,46.2,44.8s17-.9,24.6-4v-30.7c-4.8,1.6-9.7,2.4-14.7,2.4-10.3,0-17.3-4.7-17.3-15.7v-43h32ZM270.9,98.6c0,17.3-12.5,30-28,30s-28.2-12.8-28.2-30,12.6-29.8,28.2-29.8,28,12.8,28,29.8ZM214.6,205.2v-59.1c10.1,9.4,23.4,14.6,37.2,14.6,32.5,0,58-27.6,58-62.1s-25.5-61.8-58-61.8c-14.3,0-28.1,5.6-38.3,15.7l-.2-13.9h-37.6v166.7h39ZM122.8,80.2c0,24.7-18.2,43-40.8,43s-40.8-18.4-40.8-43,18.1-43,40.8-43,40.8,18.3,40.8,43h0ZM82,0C36.1,0,0,35.6,0,80.2s36.1,80.2,82,80.2,82-35.6,82-80.2S127.9,0,82,0Z"/>
    </g>
  </g>
</svg>