<?xml version="1.0" encoding="UTF-8"?>
<svg id="Layer_1" xmlns="http://www.w3.org/2000/svg" version="1.1" viewBox="0 0 1963.88 283.36">
  <!-- Generator: Adobe Illustrator 30.2.1, SVG Export Plug-In . SVG Version: 2.1.1 Build 1)  -->
  <defs>
    <style>
      .st0 {
        fill: #28458e;
        fill-rule: evenodd;
      }
    </style>
  </defs>
  <path class="st0" d="M98.15,74.91h57.82c22.56,0,31.14,7.78,31.14,26.85s-8.58,26.14-31.14,26.14h-57.82v-52.99ZM8.57,267.77h89.58v-78.42h95.95c63.53,0,86.4-37.42,86.4-85.81,0-56.17-23.52-87.95-87.05-87.95H8.57v252.18ZM310.05,15.59h241.1v61.44h-151.52v33.91h140.74v61.47h-140.74v33.9h151.52v61.45h-241.1V15.59ZM678.23,74.91h57.82c22.56,0,31.14,7.78,31.14,26.85s-8.58,26.14-31.14,26.14h-57.82v-52.99ZM588.65,267.77h89.58v-78.42h95.94c63.55,0,86.42-37.42,86.42-85.81,0-56.17-23.52-87.95-87.06-87.95h-184.88v252.18ZM947.31,160.75c-43.83-7.43-61.93-35.68-61.93-70.99,0-65.35,57.5-83,131.19-83,101.01,0,142.63,29.3,145.81,82.64h-104.2c0-10.25-5.4-16.62-13.65-20.14-7.95-3.88-18.1-5.29-27.96-5.29-26.68,0-35.89,7.41-35.89,18.01,0,7.05,2.85,11.66,11.74,13.07l107.05,17.65c45.12,7.42,73.08,30.73,73.08,73.45,0,61.48-45.11,90.44-145.82,90.44-68.93,0-144.23-10.59-144.54-84.77h108.01c.3,8.47,3.18,14.12,9.54,18,6.65,3.54,16.51,5.31,30.48,5.31,27.95,0,35.59-8.48,35.59-20.5,0-7.42-4.14-14.83-16.19-16.94l-102.31-16.96ZM1201.76,15.59h89.58v252.18h-89.58V15.59ZM1623.34,169.58c-5.72,33.2-15.9,60.04-38.14,78.4-21.91,18.37-56.23,28.61-110.85,28.61s-155.03-4.25-155.03-134.91S1420.02,6.76,1474.34,6.76s137.23,7.76,148.99,107.73h-101.02c-2.54-18.03-13.36-44.16-47.97-44.16-36.55,0-59.74,20.13-59.74,71.36s22.56,71.33,55.28,71.33c28.28,0,45.12-13.07,52.42-43.44h101.03,0ZM1740.55,141.69c0-51.23,23.2-71.36,59.74-71.36s59.73,20.13,59.73,71.36-23.2,71.33-59.73,71.33c-36.54,0-59.74-20.12-59.74-71.33h0ZM1645.24,141.69c0,130.66,100.7,134.91,155.04,134.91s155.03-4.25,155.03-134.91S1854.61,6.76,1800.28,6.76s-155.04,4.24-155.04,134.93h0Z"/>
</svg>