<?xml version="1.0" encoding="UTF-8"?>
<svg id="svg2" xmlns="http://www.w3.org/2000/svg" xmlns:svg="http://www.w3.org/2000/svg" xmlns:sodipodi="http://sodipodi.sourceforge.net/DTD/sodipodi-0.dtd" xmlns:rdf="http://www.w3.org/1999/02/22-rdf-syntax-ns#" xmlns:inkscape="http://www.inkscape.org/namespaces/inkscape" xmlns:dc="http://purl.org/dc/elements/1.1/" xmlns:cc="http://creativecommons.org/ns#" version="1.1" viewBox="0 0 1000 164.4">
  <!-- Generator: Adobe Illustrator 29.2.1, SVG Export Plug-In . SVG Version: 2.1.0 Build 116)  -->
  <defs>
    <style>
      .st0 {
        fill: #fff;
      }
    </style>
  </defs>
  <sodipodi:namedview id="namedview30" bordercolor="#666666" borderopacity="1" gridtolerance="10" guidetolerance="10" inkscape:current-layer="svg2" inkscape:cx="466.89155" inkscape:cy="185.27065" inkscape:pageopacity="0" inkscape:pageshadow="2" inkscape:window-height="705" inkscape:window-maximized="1" inkscape:window-width="1366" inkscape:window-x="-8" inkscape:window-y="-8" inkscape:zoom="0.70710678" objecttolerance="10" pagecolor="#ffffff" showgrid="false"/>
  <g>
    <polygon id="polygon16" class="st0" points="814.8 120.8 812.9 13.1 846.9 13.1 846.9 148.9 798 148.9 764.1 37.4 763.4 37.4 765.3 148.9 731.5 148.9 731.5 13.1 782.5 13.1 814 120.8 814.8 120.8"/>
    <polygon id="polygon18" class="st0" points="197.1 25.8 178.3 150.3 141.2 150.3 166.7 13.1 227.7 13.1 253.1 150.3 216.2 150.3 197.9 25.8 197.1 25.8"/>
    <polygon id="polygon20" class="st0" points="339.4 150.3 316.4 26.9 315.7 26.9 314.8 150.3 280.4 150.3 283.5 13.1 339.5 13.1 356.4 118 357.2 118 374.1 13.1 430.1 13.1 433.1 150.3 398.8 150.3 397.9 26.9 397.1 26.9 374.2 150.3 339.4 150.3"/>
    <path id="path22" class="st0" d="M83.4,111.6c1.3,3.3.9,7.6.3,10.2-1.2,4.6-4.2,9.2-13.4,9.2s-13.8-4.9-13.8-12.5v-13.3H19.7v10.6c0,30.6,24.1,39.8,49.9,39.8s45.3-8.5,48.5-31.4c1.7-11.9.4-19.6-.1-22.5-5.8-28.7-57.9-37.3-61.8-53.4-.7-2.8-.5-5.7-.1-7.2.9-4.4,4-9.2,12.5-9.2s12.8,5,12.8,12.5v8.5h34.2v-9.6c0-29.9-26.8-34.6-46.3-34.6s-44.4,8.1-48,30.4c-1,6.2-1.1,11.7.3,18.6,6,28,54.7,36.2,61.8,53.9h0Z" inkscape:connector-curvature="0"/>
    <path id="path24" class="st0" d="M529.7,111.4c1.4,3.3.9,7.5.3,10-1.1,4.6-4.2,9.1-13.3,9.1s-13.7-4.9-13.7-12.3v-13.2h-36.5v10.5c0,30.3,23.8,39.4,49.4,39.4s44.8-8.4,48-31c1.7-11.8.5-19.4-.1-22.3-5.8-28.5-57.3-37-61.2-52.9-.7-2.7-.5-5.6-.1-7.1,1-4.4,3.9-9.1,12.4-9.1s12.6,4.8,12.6,12.3v8.4h34v-9.5c0-29.6-26.6-34.2-45.9-34.2s-43.9,8-47.5,30.1c-1,6.1-1.1,11.5.3,18.3,5.9,27.8,54.2,35.8,61.2,53.4h0Z" inkscape:connector-curvature="0"/>
    <path id="path26" class="st0" d="M645,129.8c9.5,0,12.5-6.6,13.2-10,.3-1.5.4-3.5.3-5.3V13h34.7v98.5c0,2.5-.2,7.7-.3,9-2.4,25.6-22.7,33.9-47.9,33.9s-45.5-8.3-47.9-33.9c-.1-1.3-.4-6.5-.3-9V13h34.7v101.6c0,1.8,0,3.8.3,5.3.7,3.4,3.6,10,13.2,10Z" inkscape:connector-curvature="0"/>
    <path id="path28" class="st0" d="M931.4,128.3c9.9,0,13.4-6.3,14.1-9.9.2-1.6.3-3.5.3-5.2v-19.9h-14.1v-20h48.7v36.8c0,2.6,0,4.5-.5,9-2.3,25-23.9,33.9-48.3,33.9s-46-8.9-48.3-33.9c-.4-4.6-.5-6.5-.5-9v-57.8c0-2.4.3-6.8.6-9,3-25.7,23.8-33.9,48.2-33.9s45.6,8.2,48.2,33.9c.5,4.4.3,9,.3,9v4.6h-34.6v-7.7s0-3.3-.5-5.2c-.6-3-3.2-10-13.7-10s-12.9,6.6-13.7,10c-.4,1.8-.6,4.3-.6,6.5v62.8c0,1.7,0,3.6.4,5.2.6,3.7,4.1,9.9,14,9.9Z" inkscape:connector-curvature="0"/>
  </g>
</svg>