<?xml version="1.0" encoding="UTF-8"?>
<svg id="Layer_1" data-name="Layer 1" xmlns="http://www.w3.org/2000/svg" viewBox="0 0 1065.25 388.3">
  <defs>
    <style>
      .cls-1 {
        fill: #fff;
      }
    </style>
  </defs>
  <path class="cls-1" d="M252.83,132.25l-71.93.5c1.05,3.28-2.17,8.65-5.52,9-2.2.23-4.7-1.66-7.04-1.94-5.74-.68-11.54-.49-17.41-2.06,2.44,3.6,9.59,9.83,13.7,10.76,11.33,2.56,29.19-1.9,41.24.73l46.95,48.89-.18,135.45-54.19,53.63c-47.28,2.05-95.21.61-142.72.73L.06,334.76v-73.33h71.94c.53,0,2.19-4.13,7.56-6.89.7-.36,3.37-.48,1.42-2.08-.74-.61-16.6,4.37-11.99-7.98l-22.77-.22L.27,196.89,0,56.37l1.01-3.98L54.72.27l140.73-.27,3.99,1,53.4,52.43v78.81ZM50.52,238.49h26.48l-3.99,9.97c5.46,3.73,26.75-10.8,26.95-1.51.22,10.48-20.94,9.24-23.88,15.85l3.92,4.62H6.06v63.35l49.38,49.46,139.74.72,49.71-48.13,1.01-3.98-.27-129.55-42.77-43.08-34.41-.56c-9.73-5.42-24.25-12.16-24.52-24.89,10.14,3.71,20.64,4.7,31.33,5.91l1.51-2.27-4.88-7.63h73.93V55.43L195.18,6.25c-46.18.14-92.77-1.31-138.72.74L7,55.37l-1,3,.29,134.54,44.22,45.58Z"/>
  <path class="cls-1" d="M1030.13,73.39c-1.03-8.21-5.55-8.76-12.93-9.54l-.05-3.9,33.48-5.69c4.09,1.83,1.44,4.94,1.43,8.12-.13,41.91.19,83.82.06,125.73.8,4.17.92,9.01,5.73,10.22s8.16-1.67,7.25,6.25c-11.29-.62-22.24,2.53-33.32,4.06-2.47-.53.78-6.88-2.14-8.03-19.87,14.45-51.78,10.48-63.97-11.98-12.1-22.3-7.21-56.76,14.17-71.68,15.56-10.85,32.16-10.02,50.28-8.15-1.01-11.15,1.36-24.55,0-35.42ZM1029.96,191.44l-.35-65.66c-6.72-7.03-22.65-7.88-31.14-4.19-18.13,7.86-18.86,44.24-11.01,59.26,7.85,15.03,28.45,17.63,42.51,10.6Z"/>
  <path class="cls-1" d="M697.44,207.56h-48.96c-1.17-6.45,4.51-4.33,8.5-6.97,2.68-1.78,3.39-3.96,4.05-6.93,2.54-11.29,2.87-51.36-1.36-61.61-5.68-13.76-25.76-12.2-36.68-6.31.11,19.43-1.79,39.96-.52,59.42.32,4.86.65,13.27,5.11,15.85,3.78,2.19,9.09.14,7.93,6.55h-47.96s0-4.98,0-4.98c10.16.2,12.37-5.41,13.03-14.43,1.46-19.82-.98-41.63-.28-61.66-1.97-11.12-14.41-1.88-12.75-12.71,8.45.46,16.8-.53,25-2.47,2.58-.61,8.57-4.8,9.87-.87.89,2.68-2,4.72.6,6.31,12.42-9.67,32.76-12.46,46.78-4.79,23.63,12.92,11.19,59.56,14.9,81.89.31,1.84,1.43,4.88,2.8,6.18,3.91,3.7,11.31.46,9.95,7.52Z"/>
  <path class="cls-1" d="M323.77,174.64l5.56.93c-2.62,23.88,41.25,26.86,50.84,11.99,22.65-35.13-50.26-44.6-53.39-79.28-3.92-43.45,41.95-44.86,73.42-39.39,1.13.2,1.86.51,2.5,1.5v26.94c-.55,1.34-3.79,1.69-4.48.56-1.55-14.3-9.61-18.14-22.96-19.06-15.91-1.1-31.46,4.15-28.27,23.25,3.65,21.88,54.22,28.85,57.58,61.21,4.17,40.11-31.74,48.84-64.22,44.17-4.92-.71-13.02-2.24-16.58-5.39v-27.43Z"/>
  <path class="cls-1" d="M813.11,108.08c38.69-4.62,60.3,17.9,57.15,56.07-2.74,33.21-30.07,50.43-61.98,43.96-50.38-10.21-44.51-94.15,4.83-100.03ZM818.08,119.04c-34.74,4.72-26.3,98.42,15.16,75.99,21.57-11.67,20.83-80.88-15.16-75.99Z"/>
  <path class="cls-1" d="M544.53,199.62c-1.53-1.07-8.65,5.01-11.26,6.15-16.55,7.22-38.84,1.58-42.21-18.09-5.32-31.04,27.6-34.32,49.25-41.72,4.43-2.42,2.14-12.5.13-16.57-5.13-10.42-20.39-11.81-29.35-5.62-3.28,2.26-7.97,12.12-11.01,5.98-2.64-5.33,7.73-14.7,11.82-17.14,8.63-5.16,19.3-5.87,29.17-4.8,37.93,4.11,17.43,60.97,25.01,84.77,4.76,5.51,9.81-2.59,11.99,2.04,1.57,3.34-7.17,10.34-10.19,11.79-7.98,3.82-20.82,2.86-23.35-6.79ZM542.57,157.68c-12.41,3.47-30.45,7.06-30.05,23.44s19.84,16.56,30.05,8.98v-32.42Z"/>
  <path class="cls-1" d="M744.39,192.1c.28,2.02,1.96,6.07,3.63,7.35,4.56,3.49,18.69,1.78,12.69,7.95l-52.29.16.96-4.53c9.65-.54,12.3-5.99,13.07-14.88,1.8-20.87-1.42-44.25-.03-65.38l-11.35-.14c-2.13-.7-1.88-3.41-1.53-5.22l12.66-6.82c.85-16.82-.59-36.71,13.87-48.51,11.92-9.72,31.16-10.55,44.98-4.36,2.02.91,7.13,3.33,6.93,5.68l-10.14,14.46c-3.88-2.65-5.27-7.66-9.52-10.42-7.54-4.9-18.6-3.03-22.16,5.72-.31.77-1.78,5.87-1.78,6.21v30.43h20.48c2.85,2.7,1.05,7.63,1.53,11.29-.2.66-2.26,1.68-2.53,1.68h-19.48v69.33Z"/>
  <path class="cls-1" d="M447.66,122.77c.72,16.24-.95,33.27-.04,49.42.84,14.93,2.15,26.83,20.51,25.39,3.35-.26,12.55-5.32,12.54-.48-6.55,12.94-33.36,15.02-43.93,7.91-8.84-5.95-10.47-15.9-11.1-25.83-1.19-18.74.88-37.78,1.05-56.41h-13s-.06-4.37-.06-4.37c12.53-4.45,19.36-13.1,26.46-23.63,2.72-4.03,1.99-8.32,8.58-5.9.03.68-1.01,1.24-1.01,1.49v17.96c0,.23,1.72,1.97,2.45,2.08l30.58-.15c1.46,1.01,1.83,10.93-.56,12.53h-32.47Z"/>
  <path class="cls-1" d="M915.25,116.78c8.91-6.36,18.58-10,29.78-7.3,2.51.6,8.76,3.32,9.21,5.82.48,2.66-6.74,17.27-7.68,17.49-4.89,1.18-6.99-4.19-10.63-6.25-6.14-3.48-15.87-4.25-20.5,1.9.56,18.19-1.41,37.67-.24,55.71.93,14.19,2.62,18.12,18.02,18.42l.02,4.98h-52.96s.05-4.95.05-4.95c6.8-.09,11.87-3.59,12.86-10.6,1.87-13.2,1.39-49.96.13-63.81-.23-2.51-.38-4.74-2.52-6.47-4.51-3.65-12.19.96-10.52-7.95,10.97.03,22.02-1.79,32.46-5.05,3.75.28,2.32,5.5,2.52,8.04Z"/>
  <path class="cls-1" d="M459.71,260.5c9.32,1.26,18.62,1.34,27.91-.05l-.05,3.93c-8.81-.91-8.56,9.09-8.98,15.48-1.72,26.49,10.45,66.17-27.4,69.41-20.59,1.77-38.71-3.16-40.54-26.44-.86-10.91,2.34-49.36-1.9-55.96-1.75-2.73-7.63-2.24-7.05-4.91.4-1.83,2.89-1.34,4.18-1.27,6.17.33,12.1.89,18.34.8,2.17-.03,8.84-2.23,9.44.46s-7.77,2.02-8.9,10.05c-1.34,9.54-1.13,47.81,1.2,56.48,3.29,12.23,12.76,13.79,24.21,12.8,13.28-1.15,16.51-9.49,17.44-21.5.84-10.82,1.54-38.83-.04-48.81-.28-1.79-1.45-4.03-2.86-5.13-2.74-2.13-7.51-.76-5.01-5.34Z"/>
  <path class="cls-1" d="M559.56,348.23h-30.97v-2.99c4.85.49,7.28-1.9,7.93-6.56.96-6.91.83-25.75.07-32.86-1.45-13.47-14.27-14.81-24.52-9.52-1.17,1.76-.95,38.17-.22,42.2.29,1.59,1.07,3.63,2.18,4.81,2.41,2.54,6.63,1.17,6.58,4.91h-31.97c-.02-3.8,4.86-2.84,7.03-5.45,1.53-1.85,1.79-4.67,2-6.98.74-8.04,1.08-30.36-.1-37.89-.7-4.48-3.72-5.63-7.87-5.61l-.06-3.92c7.89.92,14.52-1.18,21.98-2.99l.5,4.98c10.73-7.5,29.72-8.91,36.35,4.62,5.66,11.55-.63,33.32,3.33,46.56,1.18,3.94,7.73,2.45,7.79,6.69Z"/>
  <path class="cls-1" d="M944.71,286.38l1.02,2c-3.19,2.35-7,2.19-6.34,7.21,1.27,9.62,10.35,23.52,12.35,33.7l1.95,1.99c1.23-6.41,13.9-35.62,11.33-39.75-2.67-1.57-6.85-1.07-5.82-5.15h23.98c.74,3.7-2.96,4.17-5.04,6.44-6.1,6.63-20.92,55.13-26.18,67.64-3.37,8.02-5.94,16.46-14.36,20.58-7.55,3.69-19.71,3.36-25.92-2.85l.02-2.02,6.15-6.94c1.68-.35,3.77,3.45,5.46,4.36,13.43,7.26,19.61-13.93,22.83-22.86-7.69-16.88-12.8-36.47-20.74-53.05-.77-1.62-2-4.77-3.12-5.87-2.04-2-6-1.22-5.05-5.44h27.48Z"/>
  <path class="cls-1" d="M717.41,314.31h-38.96c-1.27,16.97,8.4,28.61,26.24,25.7,2.32-.38,9.71-4.7,10.72-1.24.7,2.41-4.47,5.68-6.28,6.68-13.64,7.5-34.87,4.71-41.84-10.51-7.13-15.56-1.61-44.33,17.34-48.88,21.24-5.1,34.39,7.09,32.79,28.25ZM678.45,307.33h23.98c2.38-20.86-25.12-20.47-23.98,0Z"/>
  <path class="cls-1" d="M626.5,286.38c1.03,4.08-3.16,3.59-5.83,5.15-2.39,3.82,10.08,31.21,12.32,36.73l13.48-33.51c.3-4-4.05-4.42-6.5-6.36l1.02-2h23.48c.89,4.17-2.87,3.5-5.07,5.42-11.21,17.91-16.67,39.39-27.56,57.28l-5.84-.84c-7.34-16.51-12.49-35.4-20.31-51.54-2.41-4.97-2.75-5.32-7.67-8.31l1.01-2h27.48Z"/>
  <path class="cls-1" d="M817.32,286.38v15.96c-5.55,1.16-3.87-2.29-5.79-5.69-4.55-8.07-22.74-6.88-19.93,4.94,1.5,6.31,20.93,11.97,25.49,20.44,3.99,7.4,2.06,17.58-4.83,22.65-8.51,6.25-24.98,5.93-33.77.93l-1.2-14.66,3.09-1.23c1.98,2.43,1.97,5.57,3.95,8.07,5.33,6.71,21.81,6.7,22.06-4.07s-25.1-13.37-26.8-29.16c-2.41-22.28,22.75-20.5,37.73-18.17Z"/>
  <path class="cls-1" d="M889.26,272.41v13.97h20.98l-.16,6.33-1.34,1.65h-19.48v39.41c0,4.37,5.41,8.15,9.61,8.44s8.44-3.62,11.35-.46c-8.93,11.52-32.91,10.85-34.97-5.96-.74-6.07,1.49-39.96.03-41.43-2.98-.31-6.81,1.16-8.98-1.49,4.36-3.74,9.01-5.48,12.99-9.96,3.39-3.81,4.86-10.56,9.97-10.5Z"/>
  <path class="cls-1" d="M723.41,348.23c-.02-3.8,4.86-2.84,7.03-5.45,1.53-1.85,1.79-4.67,2-6.98.74-8.04,1.08-30.36-.1-37.89-1.06-6.74-6.81-4.42-8.48-6.52l.66-2.93,20.3-2.99,2.07,4.89c6.72-5.71,17.4-7.05,24.55-1.3.55,2.66-4.74,12.29-7.13,11.88-2.06-.68-2.33-2.7-4.17-3.82-4.15-2.52-13.09-3.51-13.8,2.67-.84,7.31-.93,31.81.3,38.73,1.11,6.29,5.26,6.29,10.76,6.73v2.99h-33.97Z"/>
  <path class="cls-1" d="M587.53,285.38v56.37c2.04,4.05,8.8,2.12,8.99,6.48h-32.97c-.33-3.52,3.66-2.73,5.74-3.75,3.4-1.67,4.01-8.07,4.29-11.68.63-8.15.9-25.93-.3-33.69-.25-1.59-.92-4.89-2.13-5.86-1.86-1.48-6.65.13-6.58-3.39.03-1.26,2.55-1.34,3.47-1.5,6.47-1.09,13.03-1.86,19.49-2.99Z"/>
  <path class="cls-1" d="M852.29,285.38v54.37c0,5.67,8.72,3.77,8.99,8.48h-31.97v-2.99c6.78.23,8.46-3.32,9.03-9.44.73-7.83,1.09-30.64-.1-37.89-1.26-7.66-8.13-3.27-7.93-9.53l21.98-3Z"/>
  <path class="cls-1" d="M838.62,272.09c-8.39-7.68,5.26-19.51,12.69-11.18,6.87,7.7-5.28,17.95-12.69,11.18Z"/>
  <path class="cls-1" d="M577.26,258.65c13.3-2.98,13.45,14.38,3.51,15.57-11.05,1.32-12.27-13.6-3.51-15.57Z"/>
  <path class="cls-1" d="M239.84,119.78h-76.43c-.58,0-7.56-5.33-9.6-6.37-4.36-2.24-9.73-2.47-12.86-7.09,5.18-4.9,11.31-.54,17.31-1.66l1.7-2.33c-.09-6.87-24.01-8.57-18.88-18.33,20.88,1.09-3.12-10.54-3.12-12.6,11.33-6.96-.87-8.56-4.91-15.16l4.88-7.77-6.91-2.58c-.92-3.57,1.67-5.25,3.9-7.41-1.52-2.07-4.37-.86-5.92-3.05-1.41-1.99-1.46-7.32-2.07-9.92-.36-1.53.68-1.74-1.97-1.49-1.44,6.01-1.24,15.01-9,15.98-.67,2.95,3.63,3.56,4.53,4.96,2.54,3.93-9.12,10.06-11.53,12.5,1.03,4.7,7.68.44,9.97,4.98-5.75,3.72-15,5.6-15.96,13.46l7.84.14c3.5,10.48-12.84,9.62-16.82,17.33,3.85,5.61,24.78-6.07,19.44,5.47-.87,1.88-23.81,14.06-28.37,17.56-3.75,2.89-12.37,8.3-7.59,13.36,8.8-4.51,19.55,1.06,27.45-7.53,4.82,1.75.82,8.62-1.44,11.56-8.23,10.72-23.34,11.89-27.8,26.12-1.54,4.9-1.92,10.14-1.71,15.25,3.16,2.13,3.91-2.24,6.03-3.95,5.69-4.58,11.36-2.57,17.22-3.75,2.69-.54,4.79-2.99,7.07-3.94,3.71-1.55,2.66,2.84,1.87,4.88-3.83,9.92-18.48,7.73-21.19,18.23,3.64-.2,6.65,1.32,10.38.95,5.04-.51,8.74-4.49,13.59-4.93,2.11,18.69-29.64,18.27-30.96,35.91,7.06-4.21,14.35-.03,21.97-1-.1,2.85.51,6.06-.74,8.75-4.21,9.06-36.54,3.86-45.7,5.2-3.83-.73-14.13-14.05-17.48-17.46-3.71-3.78-22.42-21.02-22.98-23.94V59.44S58.45,13.97,58.45,13.97c44.29-2.05,89.22-.6,133.73-.74l47.66,46.18v60.36Z"/>
  <path class="cls-1" d="M135.94,298.85c1.59-5.63,7.35,1.57,10.72,2.27,6.25,1.28,11.51-1.16,18.28.71,8.16,2.25,16.41,11.42,22.92,13.05,5.4,1.35,2.33-8.38,1.75-10.76-1.39-5.73-3.8-11.76-8.22-15.73-3.87-3.48-11.14-4.41-9.07-11.04.86-2.76,5.68-4.73,3.12-8.96-1.84-3.04-21.15-2.76-23.31-12.69s14.67-.38,18.74.3c2.7.45,5.31.64,8.04.44-.43-7.8-5.94-11.87-12.29-15.15-6.67-3.45-19.47-5.07-13.18-15.75,4.68,6.96,10.72,4.86,16.95,6,2.58.47,4.35,3.62,7.53,2.95,1.07-1.08-4.17-12.97-5.56-14.89-6.28-8.74-21.2-11.08-27.86-21.07s7.18-1.02,11.03-1.04c3.68-2.65,17.75,2.86,13.26-4.27-5.31-8.42-23.86-8.64-23.92-21.94.31-1.46,3.89-1.46,5.09-1.25,4.83.86,23.36,10.47,26.32,9.51,3.97-1.29-.28-13.18-1.93-15.85l1.07-2.03h22.98c3.3,0,35.99,36.9,41.26,41.61v124.29s-45.2,45.65-45.2,45.65c-10.34,2.17-23.43,1.75-32.46-4.61-2.41-1.7-4.24-4.6-6.58-6.4-9.15-7.02-19.46-12.52-19.46-26.46v-36.91Z"/>
  <path class="cls-1" d="M79.99,274.41l-10.49,6.99c-3.75,2.92-11.75,23.14-5.87,24.87,4.17-1.11,6.96-5.13,11.06-7.72,10.6-6.72,15.57-4.94,26.1-7.86,7.19-1.99,8.6-8,15.17-8.3v43.4c0,.87-.97,7.49-1.23,8.74-2,9.64-9.18,12.32-14.75,19.19-3.65,4.51-5.68,10.19-10.47,14.49-8.87,7.98-19.3,6.33-30.48,5.44l-45.98-44.87v-54.37h66.94Z"/>
</svg>