<?xml version="1.0" encoding="UTF-8"?>
<svg id="Layer_1" data-name="Layer 1" xmlns="http://www.w3.org/2000/svg" viewBox="0 0 1749.99 2189.32">
  <defs>
    <style>
      .cls-1 {
        fill-rule: evenodd;
      }

      .cls-1, .cls-2 {
        fill: #fff;
      }
    </style>
  </defs>
  <path class="cls-1" d="M797.71,154.7c146.71,5.1,188.2,75.43,188.2,75.43,98.92,93.33,176.03,292.91,248.47,346.94,27.74-8.04,50.82-16.24,129.52-17.83-55.36-5.1-152.55-162.25-153.06-163.34-27.59-51.09-98.16-160.84-203.31-216.45-109.8-58.36-209.82-24.75-209.82-24.75Z"/>
  <g>
    <path class="cls-1" d="M991.99,1400.53h642.16v-458.57c-217.7,244.04-587.87,443.77-642.16,458.57h0ZM694.18,18.97c89.83,16.55,118.91,80.21,115.91,78.62,203.48-24.42,287.06,32.36,387.39,121.1,120.35,106.47,201.56,219.63,234.42,251.99,67.83,67.08,144.95,78.71,185.2,80.21-50.79-145.69-123.47-322.57-370.35-459.82C1022.87-33.4,740.51-.45,694.18,18.97h0Z"/>
    <path class="cls-1" d="M529.24,71.42c-66.57,63.95-60.15,155.47-52.54,198.19-123.36,108.06-163.59,289.64-152.54,467.7-1.84,90.06,32.36,222.47,26.08,293.14,1.43,39.22-3.01,96.69-63.4,186.51-54.76,82.51-64.81,132.71-67.49,176.61H81.72v-708.47C107.9,292.37,415.07,117.07,529.24,71.42h0Z"/>
    <path class="cls-1" d="M569.32,69.9c-69.58,65.47-23.16,165.17-23.16,165.17,7.68-13.03,117.32-80.37,186.74-89.97-265.71,117.07-307.11,260.1-268.23,510.66,16.83,107.73,38.25,176.65,49.19,288.05-64.98,53.93-106.4,139.09-106.4,139.09,15.32-98.19-23.83-231.34-38.71-361.66-20.25-175.13,15.49-332.26,137.4-455.21.01.01-41.81-129.11,63.18-196.12ZM945.74,832.41c546.33-260.29,623.51-90,623.51-90,88.16,189.85-407.3,463.24-441.18,476.21-15.38,14.72-532.53,271.73-648.36,83.47-4.44-16.41-53.94-150.48,307.11-427.13,179.22-137.65,412.06-234,604.84-286.44-93.82,13.22-258.99,34.38-606.43,222.81-311.61,179.72-530.58,471.13-470.36,589.2,168.2,156.9,601.51-37.72,794.46-132.65,293.26-134.39,702.34-438.75,632.83-608.85-152.69-203.07-797.76,161.99-796.43,173.38h0ZM0,1557.43h419.77l-32.7,67.16h-98.45v198.06h-155.81v-198.06H35.3L0,1557.43ZM481.5,1557.43h202.13l141.84,265.22h-158.81l-20.16-52.37h-135.75l-22.9,52.37h-154.39l148.05-265.22ZM537.01,1704.62h81.63l-39.8-80.04-41.83,80.04ZM564.63,1927.26h371.69l-30.48,62.24h-186.74v36.02h174.3v60.56h-174.3v39.08h208.07v64.15h-362.54v-262.04ZM959.87,1927.26h165.09v197.89h197.41l-32.53,64.15h-280.7c-41.83,0-49.27-36.13-49.27-36.13v-225.91h0ZM1345.34,1927.26h165.44v197.89h197.31l-32.19,64.15h-280.87c-41.72,0-49.67-36.13-49.67-36.13v-225.91h-.01,0Z"/>
    <path class="cls-2" d="M1646.46,1988.89c-14.97,0-28.12,5.34-38.51,15.76-10.71,10.69-16.69,24.76-16.69,39.45s5.68,28.13,16.06,38.68c10.56,10.71,24.47,16.69,39.14,16.69s28.3-5.68,39.17-16.24c10.53-10.25,16.19-23.85,16.19-39.14.15-14.48-5.52-28.42-15.73-38.69-10.4-10.68-24.71-16.65-39.62-16.51h0ZM1646.62,1997c13.02,0,24.5,4.89,33.67,14.06,8.87,9.03,13.45,20.51,13.45,33.8,0,12.37-4.89,24.01-13.76,32.57-9.09,8.93-21.36,13.88-34.1,13.77-11.96,0-23.71-5.05-32.72-14.06-8.74-8.77-13.63-20.65-13.61-33.03,0-12.39,5.05-24.33,14.21-33.66,8.86-8.86,20-13.45,32.85-13.45ZM1624,2012.12v61.94h13.29v-25.85h9.65l12.23,25.85h14.82l-13.76-27.98c8.87-1.98,13.76-8.12,13.76-17.13,0-10.86-8.72-16.83-26.15-16.83h-23.85,0ZM1637.29,2020.55h8.11c10.1,0,14.99,2.91,14.99,9.95s-4.59,9.48-14.38,9.48h-8.72v-19.43h0Z"/>
    <path class="cls-1" d="M1167.8,1624.59s-112.4-8.2-141.68,6.36c0,2.01-54.11,3.44-55.42,59.05,4.66,80.27,107.79,68.66,107.79,68.66,21.58,5.03,108.06-9.52,108.06-9.52v66.82s-69.36,13.2-135.65,13.2c-18.66-6.51-239.29,10.03-243.82-124.54-23.06-153.72,248.32-147.21,248.32-147.21,94.08,0,140.33,11.45,140.33,11.45l-27.94,55.72h0ZM1373.11,1697.18c0-40.06,17-82.28,66.57-80.79,38.48,0,64.75,36.04,61.66,80.36,3.09,45.68-18.47,73.51-61.66,73.51-46.32.01-66.57-32.68-66.57-73.08ZM1209.53,1693.34c0-75.28,97.6-135.91,225.65-135.91s231.48,47.51,231.48,135.91c1.17,91.66-103.86,135.82-231.48,135.82s-227.01-47.4-225.65-135.82h0ZM132.81,1927.26h309.94s86.48,6.69,78.88,62.24c7.61,52.5-48.01,62.14-48.01,62.14,0,0,49.6,6.42,55.63,60.79,7.77,66.92-74.11,76.88-74.11,76.88H132.81v-262.05h0ZM282.26,1977.95v47.57h77.29c-.06,0,27.53,0,21.58-26.1,0-18.13-20-21.48-20-21.48h-78.87ZM282.26,2079.66v50.58h77.29c-.06,0,34.05-1.41,27.53-27.85,0-16.32-25.94-22.74-25.94-22.74h-78.88ZM547.91,1266.96c-36.06-81.29,151.11-254.23,417.08-385.79,266.62-131.81,511.24-172.65,547.21-91.09,35.8,81.46-151.12,254.08-417.42,385.88-266.36,131.57-511.1,172.39-546.87,91h0Z"/>
  </g>
</svg>