<?xml version="1.0" encoding="UTF-8"?>
<svg id="Layer_1" xmlns="http://www.w3.org/2000/svg" version="1.1" viewBox="0 0 427 427">
  <!-- Generator: Adobe Illustrator 30.3.0, SVG Export Plug-In . SVG Version: 2.1.3 Build 182)  -->
  <defs>
    <style>
      .st0 {
        stroke-width: 8px;
      }

      .st0, .st1 {
        fill: none;
        stroke: #490a0a;
        stroke-miterlimit: 10;
      }

      .st1 {
        stroke-width: 11px;
      }

      .st2 {
        fill: #490a0a;
      }
    </style>
  </defs>
  <circle class="st0" cx="213.5" cy="213.5" r="165.64"/>
  <circle class="st1" cx="213.5" cy="213.5" r="207.39"/>
  <path class="st2" d="M186.93,135.33l4.09,159.07h-47.93l3.72-159.07h40.12ZM151.87,141.68c-.25.07-1.22,1.05-1.3,1.32-.38,1.3.05,4.64-.03,6.29-.31,6.71-.63,13.69-.78,20.41-.8,36.81-.78,73.65-2.23,110.38-.06,1.57-.22,4.9.08,6.27.57,2.6,3.41,2.23,3.67-.67.42-4.6-.12-10.15-.03-14.9.57-30.79,1.66-61.72,2.26-92.51.11-5.68.29-11.49.37-17.1.09-6.08-.11-12.16,0-18.24,0-.78-1.38-1.44-2.01-1.26h0ZM161.15,141.68c-.67.2-1.4,1.63-1.35,2.36-.53,38.9.03,77.79-.34,116.73,0,.65-.4,1.18-.4,1.83-.08,7.94.1,15.88,0,23.81,1.4,2.91,3.46,1.83,3.74-1.11.06-21.32-.13-42.64-.03-63.96.1-22.77.19-45.96.78-68.72.06-2.26.34-7.32-.08-9.25-.22-1.02-1.2-2.03-2.32-1.7h0ZM171.93,141.68c-.5.14-1.54,1.37-1.36,2,.27,33.49.15,66.87.37,100.38,0,.65.4,1.18.4,1.83.1,13.62-.14,27.24.03,40.85.97,1.78,3.12,1.97,3.31-.31-.11-20.33.09-40.66,0-60.98-.1-23.64-.18-47.7-.78-71.33-.1-3.83.14-7.67-.02-11.5-.15-.52-1.45-1.09-1.96-.94h.01ZM183.27,287.66c.81.81,2.81.49,2.93-.87-.09-5.7.09-11.42,0-17.12-.57-38.82-1.46-77.86-2.63-116.67-.09-2.87.38-6.61.02-9.31-.21-1.57-1.59-2.72-2.97-1.49-.89.79-.84,2.6-.76,3.74.92,12.13.51,24.57.74,36.79.6,31.05,1.43,62.22,2.26,93.25.09,3.28-.37,7.28,0,10.42.03.23.33,1.15.42,1.25h0Z"/>
  <path class="st2" d="M280.19,135.33l4.09,159.07h-48.3l4.09-159.07h40.12ZM244.2,142.07c-.22.22-.77,3.24-.81,3.83-.39,5.07.13,10.83.03,16.01-.69,37.97-1.79,76.08-2.63,114.07-.08,3.6.1,7.21,0,10.8.17,1.26,2.08,1.62,2.99.74.71-.68.27-3.63.35-4.86.77-12.47.5-25,.74-37.54.6-30.54,1.55-61.23,2.26-91.77.08-3.45-.05-6.92-.06-10.38-.54-1.04-1.89-1.88-2.87-.92v.02h0ZM253.49,142.07c-.2.19-.41,1.23-.44,1.6-.71,8.68.12,19,.03,27.91-.21,20.94-.67,42.22-.78,63.15-.09,17.23.11,34.46,0,51.69-.17,2.19,3.14,2.05,3.37.37.07-8.18-.12-16.37-.03-24.56.25-21.93.67-44.2.78-66.12.09-17.6-.11-35.2,0-52.8.24-1.45-2.06-2.09-2.93-1.23h0ZM265.2,141.69c-1.98.38-1.95,3.39-1.34,4.96.27,43.37-.46,86.82.74,130.08.09,3.35-.1,6.71-.02,10.06.27,1.92,3.16,1.48,3.36,0-.1-12.4.09-24.8,0-37.19-.18-26.64-.48-53.6-.78-80.25-.1-8.68.1-17.36.03-26.04-.21-.78-1.08-1.8-1.99-1.62h0ZM276.04,142.07c-.81-.79-2.79-.36-2.85.94-.05,3.94-.16,7.9-.09,11.84.75,37.85,1.9,75.84,2.63,113.7.11,5.47-.34,10.99.35,16.38.13.98-.36,2.41.74,2.98,1.22.63,2.46-.18,2.61-1.5.38-3.32.09-8.41.02-11.91-.71-36.99-1.94-74.11-2.63-111.09-.12-6.16.47-12.54-.35-18.61-.09-.7.1-2.21-.43-2.73h0Z"/>
  <path class="st2" d="M289.47,114.14c.06,2.31-1.47,4.47-3.15,5.95-2.36,2.09-3.91,2.01-5.47,5.31-.35.75-.63,2.65-1.26,2.83l-39.52.02c-.31-.95-.54-2.05-.94-2.96-1.92-4.38-8.44-5.49-8.36-11.14h58.7Z"/>
  <path class="st2" d="M196.22,114.14c.2,2.54-1.7,4.75-3.52,6.33-2.1,1.81-3.81,2.15-4.94,5.09-.29.76-.41,2.5-1.04,2.67h-39.32c-.65-.19-.84-1.87-1.14-2.58-1.92-4.45-6.55-5.07-8.19-9.27-.25-.63-.35-1.55-.54-2.24h58.7-.01Z"/>
  <path class="st2" d="M227.24,312.61c-.28-.07-.42-.37-.38-.74.46-4.11,4.84-4.56,6.89-7.25.6-.79,1.22-2.99,1.7-3.13h49.55c.46,5.84,8.38,5.12,8.19,11.12h-65.95,0Z"/>
  <path class="st2" d="M203.65,322.65h-73.19v-7.62c0-.11,1.26-1.38,1.66-1.31l70.42.18c.24.12,1.1,1.38,1.1,1.5v7.25h0Z"/>
  <path class="st2" d="M134.36,312.61c-.22-.06-.58-.52-.52-.88.08-.51.93-2.39,1.27-2.83,1.81-2.31,7.03-3.15,6.88-7.43h50.14c-.12,1.13.43,2.26,1.11,3.16,1.64,2.16,5.08,2.78,6.25,5.27.24.52.46,1.38.64,1.97.12.41-.25.74-.37.74h-65.4Z"/>
  <path class="st2" d="M295.23,313.73c.43.07,1.3.89,1.3,1.3v7.62h-71.52s-.15.34-.56.21c-.28-.09-1.11-.57-1.11-.77v-5.95c0-.09.59-1.25.55-1.68.21-.15.65-.74.75-.74h70.59Z"/>
  <path class="st2" d="M292.82,104.11c.44,1.93.58,4.52.39,6.52-.08.8-.34,1.87-.94,2.4h-64.27c-.13,0-.93-1.22-.93-1.3v-7.06s.52-.56.56-.56h65.2-.01Z"/>
  <path class="st2" d="M199.56,104.11c.4,2.06.66,5.15.37,7.25-.06.4-.63,1.67-.93,1.67h-63.9s-.86-.37-.89-.41c-.06-.06-.38-1.41-.4-1.64-.23-2.09-.08-4.84.36-6.87,0,0,65.39,0,65.39,0Z"/>
  <path class="st2" d="M234.36,295.58l51.21-.06c2.56.37,2.89,4.09.38,4.84h-51.66c-2.3-.67-2.4-4.24.07-4.78Z"/>
  <path class="st2" d="M141.1,295.56l51.22-.05c2.86.72,3.06,3.77.38,4.84h-51.28c-2.79-.71-2.49-3.41-.33-4.79h0Z"/>
  <path class="st2" d="M282.72,129.82c.05.05.74,1.21.76,1.28.51,1.69-1.15,2.99-2.72,3.12l-42-.02c-2.4-.34-2.98-3.88-.58-4.66l42.95-.18c.4.03,1.35.22,1.59.46Z"/>
  <path class="st2" d="M144.26,129.81c.21-.21,1.22-.41,1.6-.45h42.75c2.49.74,2.19,4.48-.38,4.85l-42,.02c-1.32.06-2.98-1.45-2.73-2.74.02-.12.69-1.62.76-1.68h0Z"/>
</svg>