<svg viewBox="0 0 1300.65 425.77" xmlns="http://www.w3.org/2000/svg" aria-label="Second Chair">
  <defs>
    <style>
      .sc-nc{fill:#1C1917}.sc-ns1{stroke:#1C1917;stroke-width:11px;fill:none;stroke-miterlimit:10}.sc-ns2{stroke:#1C1917;stroke-width:8px;fill:none;stroke-miterlimit:10}
    </style>
  </defs>
  <circle class="sc-ns2" cx="212.89" cy="212.89" r="165.64" />
  <circle class="sc-ns1" cx="212.89" cy="212.89" r="207.39" />
  <path class="sc-nc" d="M186.32,134.72l4.09,159.07h-47.93l3.72-159.07h40.12ZM151.26,141.07c-.25.07-1.22,1.05-1.3,1.32-.38,1.3.05,4.64-.03,6.29-.31,6.71-.63,13.69-.78,20.41-.8,36.81-.78,73.65-2.23,110.38-.06,1.57-.22,4.9.08,6.27.57,2.6,3.41,2.23,3.67-.67.42-4.6-.12-10.15-.03-14.9.57-30.79,1.66-61.72,2.26-92.51.11-5.68.29-11.49.37-17.1.09-6.08-.11-12.16,0-18.24,0-.78-1.38-1.44-2.01-1.26ZM160.54,141.07c-.67.2-1.4,1.63-1.35,2.36-.53,38.9.03,77.79-.34,116.73,0,.65-.4,1.18-.4,1.83-.08,7.94.1,15.88,0,23.81,1.4,2.91,3.46,1.83,3.74-1.11.06-21.32-.13-42.64-.03-63.96.1-22.77.19-45.96.78-68.72.06-2.26.34-7.32-.08-9.25-.22-1.02-1.2-2.03-2.32-1.7ZM171.32,141.07c-.5.14-1.54,1.37-1.36,2,.27,33.49.15,66.87.37,100.38,0,.65.4,1.18.4,1.83.1,13.62-.14,27.24.03,40.85.97,1.78,3.12,1.97,3.31-.31-.11-20.33.09-40.66,0-60.98-.1-23.64-.18-47.7-.78-71.33-.1-3.83.14-7.67-.02-11.5-.15-.52-1.45-1.09-1.96-.94ZM182.66,287.05c.81.81,2.81.49,2.93-.87-.09-5.7.09-11.42,0-17.12-.57-38.82-1.46-77.86-2.63-116.67-.09-2.87.38-6.61.02-9.31-.21-1.57-1.59-2.72-2.97-1.49-.89.79-.84,2.6-.76,3.74.92,12.13.51,24.57.74,36.79.6,31.05,1.43,62.22,2.26,93.25.09,3.28-.37,7.28-.01,10.42.03.23.33,1.15.42,1.25Z" />
  <path class="sc-nc" d="M279.58,134.72l4.09,159.07h-48.3l4.09-159.07h40.12ZM243.59,141.46c-.22.22-.77,3.24-.81,3.83-.39,5.07.13,10.83.03,16.01-.69,37.97-1.79,76.08-2.63,114.07-.08,3.6.1,7.21,0,10.8.17,1.26,2.08,1.62,2.99.74.71-.68.27-3.63.35-4.86.77-12.47.5-25,.74-37.54.6-30.54,1.55-61.23,2.26-91.77.08-3.45-.05-6.92-.06-10.38-.54-1.04-1.89-1.88-2.87-.92ZM252.88,141.46c-.2.19-.41,1.23-.44,1.6-.71,8.68.12,19,.03,27.91-.21,20.94-.67,42.22-.78,63.15-.09,17.23.11,34.46,0,51.69-.17,2.19,3.14,2.05,3.37.37.07-8.18-.12-16.37-.03-24.56.25-21.93.67-44.2.78-66.12.09-17.6-.11-35.2,0-52.8.24-1.45-2.06-2.09-2.93-1.23ZM264.59,141.08c-1.98.38-1.95,3.39-1.34,4.96.27,43.37-.46,86.82.74,130.08.09,3.35-.1,6.71-.02,10.06.27,1.92,3.16,1.48,3.36,0-.1-12.4.09-24.8,0-37.19-.18-26.64-.48-53.6-.78-80.25-.1-8.68.1-17.36.03-26.04-.21-.78-1.08-1.8-1.99-1.62ZM275.43,141.46c-.81-.79-2.79-.36-2.85.94-.05,3.94-.16,7.9-.09,11.84.75,37.85,1.9,75.84,2.63,113.7.11,5.47-.34,10.99.35,16.38.13.98-.36,2.41.74,2.98,1.22.63,2.46-.18,2.61-1.5.38-3.32.09-8.41.02-11.91-.71-36.99-1.94-74.11-2.63-111.09-.12-6.16.47-12.54-.35-18.61-.09-.7.1-2.21-.43-2.73Z" />
  <path class="sc-nc" d="M288.86,113.53c.06,2.31-1.47,4.47-3.15,5.95-2.36,2.09-3.91,2.01-5.47,5.31-.35.75-.63,2.65-1.26,2.83l-39.52.02c-.31-.95-.54-2.05-.94-2.96-1.92-4.38-8.44-5.49-8.36-11.14h58.7Z" />
  <path class="sc-nc" d="M195.61,113.53c.2,2.54-1.7,4.75-3.52,6.33-2.1,1.81-3.81,2.15-4.94,5.09-.29.76-.41,2.5-1.04,2.67h-39.32c-.65-.19-.84-1.87-1.14-2.58-1.92-4.45-6.55-5.07-8.19-9.27-.25-.63-.35-1.55-.54-2.24h58.7Z" />
  <path class="sc-nc" d="M226.63,312c-.28-.07-.42-.37-.38-.74.46-4.11,4.84-4.56,6.89-7.25.6-.79,1.22-2.99,1.7-3.13h49.55c.46,5.84,8.38,5.12,8.19,11.12h-65.95Z" />
  <path class="sc-nc" d="M203.04,322.04h-73.19v-7.62c0-.11,1.26-1.38,1.66-1.31l70.42.18c.24.12,1.1,1.38,1.1,1.5v7.25Z" />
  <path class="sc-nc" d="M133.75,312c-.22-.06-.58-.52-.52-.88.08-.51.93-2.39,1.27-2.83,1.81-2.31,7.03-3.15,6.88-7.43h50.14c-.12,1.13.43,2.26,1.11,3.16,1.64,2.16,5.08,2.78,6.25,5.27.24.52.46,1.38.64,1.97.12.41-.25.74-.37.74h-65.39Z" />
  <path class="sc-nc" d="M294.62,313.12c.43.07,1.3.89,1.3,1.3v7.62h-71.52s-.15.34-.56.21c-.28-.09-1.11-.57-1.11-.77v-5.95c0-.09.59-1.25.55-1.68.21-.15.65-.74.75-.74h70.59Z" />
  <path class="sc-nc" d="M292.21,103.5c.44,1.93.58,4.52.39,6.52-.08.8-.34,1.87-.94,2.4h-64.27c-.13,0-.93-1.22-.93-1.3v-7.06s.52-.56.56-.56h65.2Z" />
  <path class="sc-nc" d="M198.95,103.5c.4,2.06.66,5.15.37,7.25-.06.4-.63,1.67-.93,1.67h-63.9s-.86-.37-.89-.41c-.06-.06-.38-1.41-.4-1.64-.23-2.09-.08-4.84.36-6.87h65.39Z" />
  <path class="sc-nc" d="M233.75,294.97l51.21-.06c2.56.37,2.89,4.09.38,4.84h-51.66c-2.3-.67-2.4-4.24.07-4.78Z" />
  <path class="sc-nc" d="M140.49,294.95l51.22-.05c2.86.72,3.06,3.77.38,4.84h-51.28c-2.79-.71-2.49-3.41-.33-4.79Z" />
  <path class="sc-nc" d="M282.11,129.21c.05.05.74,1.21.76,1.28.51,1.69-1.15,2.99-2.72,3.12l-42-.02c-2.4-.34-2.98-3.88-.58-4.66l42.95-.18c.4.03,1.35.22,1.59.46Z" />
  <path class="sc-nc" d="M143.65,129.2c.21-.21,1.22-.41,1.6-.45h42.75c2.49.74,2.19,4.48-.38,4.85l-42,.02c-1.32.06-2.98-1.45-2.73-2.74.02-.12.69-1.62.76-1.68Z" />
  <path class="sc-nc" d="M522.99,169.95l-1.72-33.13h9c4.6,22.21,17.04,37.34,36.58,37.34,14.55,0,23.94-7.47,23.94-20.11s-8.23-18.96-30.45-26.43c-23.94-7.66-38.11-18.96-38.11-41.94,0-24.9,18.96-41.36,46.34-41.36,16.85,0,31.21,4.4,40.79,11.3v28.92h-8.04c-4.02-19.92-14.55-31.79-32.75-31.79-12.64,0-20.87,7.47-20.87,18.96,0,13.02,7.66,18.19,27.77,25.09,25.66,8.62,41.75,18.58,41.75,44.04,0,28.15-22.79,41.75-50.36,41.75-18.77,0-35.04-5.55-43.85-12.64Z" />
  <path class="sc-nc" d="M628.51,173.4c13.02-1.53,14.55-2.87,14.55-13.21v-93.45c0-10.34-1.53-11.68-14.55-13.21v-7.28h107.43l.96,35.81h-6.51c-9.58-21.26-14.94-27.58-31.21-27.58h-23.55v52.09h21.64c8.81,0,11.3-4.98,13.02-17.62h7.47v44.62h-7.47c-1.72-12.64-4.21-17.43-13.02-17.43h-21.64v43.28c0,10.34,5.17,13.02,16.47,13.02h9.38c16.28,0,21.07-7.85,34.47-31.79h7.47l-5.94,40.02h-108.96v-7.28Z" />
  <path class="sc-nc" d="M864.43,55.63l.38,31.98h-8.23c-4.6-22.41-15.51-34.47-33.7-34.47-25.28,0-36.38,25.85-36.38,58.41,0,35.24,13.41,61.85,38.11,61.85,17.04,0,29.3-11.3,36.38-39.83h8.81l-3.06,36.96c-11.3,7.66-27.19,12.06-45.58,12.06-42.71,0-69.13-25.66-69.13-65.68,0-44.62,31.02-72.58,69.9-72.58,17.23,0,31.6,4.02,42.51,11.3Z" />
  <path class="sc-nc" d="M880.13,116.14c0-44.04,28.15-71.81,66.26-71.81,41.55,0,63.58,31.02,63.58,66.45,0,44.04-28.34,71.81-66.45,71.81-41.36,0-63.39-31.02-63.39-66.45ZM975.3,115.18c0-33.13-9-62.24-31.21-62.24-21.06,0-29.3,29.11-29.3,58.79,0,33.13,9,62.24,31.21,62.24,20.87,0,29.3-29.11,29.3-58.79Z" />
  <path class="sc-nc" d="M1129.46,66.73c0-10.15-3.45-11.87-19.15-13.21v-7.28h45.38v7.28c-13.21,1.53-14.75,3.06-14.75,13.21v114.32h-11.49l-82.73-103.79v82.92c0,10.15,3.45,11.87,19.15,13.21v7.28h-45.19v-7.28c13.02-1.53,14.55-3.06,14.55-13.21v-94.6c-5.36-8.23-8.04-11.49-14.75-12.06v-7.28h43.47l65.49,82.54v-62.05Z" />
  <path class="sc-nc" d="M1164.12,180.68v-7.28c13.02-1.53,14.55-2.87,14.55-13.21v-93.45c0-10.34-1.53-11.68-14.55-13.21v-7.28h60.71c51.9,0,75.83,28.72,75.83,65.11,0,43.85-29.11,69.32-71.81,69.32h-64.73ZM1211.23,54.48v104.37c0,11.3,4.6,13.6,14.17,13.6h2.68c22.79,0,38.3-21.64,38.3-57.26s-15.51-60.71-47.3-60.71h-7.85Z" />
  <path class="sc-nc" d="M633.3,251.05l.38,31.98h-8.23c-4.6-22.41-15.51-34.47-33.7-34.47-25.28,0-36.38,25.85-36.38,58.41,0,35.24,13.41,61.85,38.11,61.85,17.04,0,29.3-11.3,36.38-39.83h8.81l-3.06,36.96c-11.3,7.66-27.19,12.06-45.58,12.06-42.71,0-69.13-25.66-69.13-65.68,0-44.62,31.02-72.58,69.9-72.58,17.23,0,31.6,4.02,42.51,11.3Z" />
  <path class="sc-nc" d="M695.91,302.37h53.43v-40.21c0-10.34-1.53-11.68-14.75-13.21v-7.28h61.85v7.28c-13.02,1.53-14.55,2.87-14.55,13.21v93.45c0,10.34,1.53,11.68,14.55,13.21v7.28h-61.85v-7.28c13.21-1.53,14.75-2.87,14.75-13.21v-42.7h-53.43v42.7c0,10.34,1.53,11.68,14.75,13.21v7.28h-61.85v-7.28c13.02-1.53,14.55-2.87,14.55-13.21v-93.45c0-10.34-1.53-11.68-14.55-13.21v-7.28h61.85v7.28c-13.21,1.53-14.75,2.87-14.75,13.21v40.21Z" />
  <path class="sc-nc" d="M886.07,333.01h-50.17l-7.47,19.72c-.96,2.68-1.72,5.17-1.72,7.28,0,6.13,5.17,8.23,16.09,8.81v7.28h-40.21v-7.28c5.17-.96,9.19-1.91,11.11-7.08l40.98-105.71-6.13-15.13h34.66l48.45,120.83c1.92,4.98,5.94,6.13,11.3,7.08v7.28h-63v-7.28c10.53-.38,15.7-2.49,15.7-8.62,0-2.11-.77-4.6-1.72-7.47l-7.85-19.72ZM839.34,323.82h43.09l-22.02-55.34-21.06,55.34Z" />
  <path class="sc-nc" d="M996.18,355.61c0,10.34,1.53,11.68,14.75,13.21v7.28h-61.85v-7.28c13.02-1.53,14.55-2.87,14.55-13.21v-93.45c0-10.34-1.53-11.68-14.55-13.21v-7.28h61.85v7.28c-13.21,1.53-14.75,2.87-14.75,13.21v93.45Z" />
  <path class="sc-nc" d="M1068.37,355.61c0,10.34,1.53,11.68,14.75,13.21v7.28h-61.85v-7.28c13.02-1.53,14.55-2.87,14.55-13.21v-93.45c0-10.34-1.53-11.68-14.55-13.21v-7.28h65.49c31.41,0,50.75,14.75,50.75,37.73,0,20.3-15.7,31.02-29.87,35.04l27.77,38.68c8.23,11.68,12.45,15.32,21.83,15.7v7.28h-39.83c-5.55-4.02-10.34-10.34-16.09-19.53l-24.13-37.34h-8.81v36.38ZM1068.37,250.29v60.32h7.66c18.77,0,28.72-11.49,28.72-31.02,0-17.62-9.96-29.3-29.11-29.3h-7.28Z" />
</svg>
